<svg width="313" height="275" viewBox="0 0 313 275" fill="none" xmlns="http://www.w3.org/2000/svg">
<path opacity="0.2" d="M45.0944 253.998C130.999 248.223 136.063 272.11 191.625 274.532C242.477 276.749 284.715 249.172 284.471 198.02C284.426 188.518 287.739 179.247 294.152 172.235C312.821 151.826 315.819 126.68 310.134 100.558C307.334 87.6902 298.861 76.9418 286.574 68.4859C277.227 62.0535 270.982 51.8612 270.043 40.5541C269.253 31.0278 266.163 22.7776 260.558 16.2663C241.89 -5.41751 200.962 -6.54431 154.886 19.7027C145.138 25.2559 133.536 26.5654 118.285 23.134C62.8813 10.6679 21.3598 41.45 24.4962 96.3353C25.2587 109.679 22.2088 122.261 13.7974 136.24C-17.6805 188.555 9.81738 256.369 45.0944 253.998Z" fill="#7694C4"/>
<path d="M41.5117 188.2V65.7769C41.5117 60.4766 45.8086 56.1797 51.1089 56.1797H244.341C249.642 56.1797 253.938 60.4766 253.938 65.7769V188.2C253.938 193.501 249.642 197.798 244.341 197.798H51.1089C45.8086 197.797 41.5117 193.501 41.5117 188.2Z" fill="#3E1C96"/>
<path d="M242.137 67.9805H53.3135V185.995H242.137V67.9805Z" fill="#7A5AF8"/>
<path opacity="0.2" d="M228.385 202.744H67.0666C64.7398 202.744 62.8535 200.858 62.8535 198.531C62.8535 196.205 64.7398 194.318 67.0666 194.318H228.385C230.712 194.318 232.598 196.205 232.598 198.531C232.598 200.858 230.712 202.744 228.385 202.744Z" fill="#7A5AF8"/>
<path d="M256.21 219.199H39.2386C32.084 219.199 25.4934 215.315 22.0268 209.056L20.9514 207.115C20.7771 206.8 21.0048 206.414 21.3643 206.414H274.084C274.444 206.414 274.671 206.8 274.497 207.115L273.422 209.056C269.955 215.315 263.365 219.199 256.21 219.199Z" fill="#EBE9FE"/>
<path d="M272.199 208.481H23.2503C21.7665 208.481 20.5635 207.278 20.5635 205.794V199.697C20.5635 198.213 21.7665 197.01 23.2503 197.01H272.199C273.682 197.01 274.885 198.213 274.885 199.697V205.794C274.885 207.278 273.682 208.481 272.199 208.481Z" fill="white"/>
<path d="M181.178 212.809H114.272C111.945 212.809 110.059 210.923 110.059 208.596C110.059 206.269 111.945 204.383 114.272 204.383H181.178C183.505 204.383 185.391 206.269 185.391 208.596C185.391 210.923 183.505 212.809 181.178 212.809Z" fill="#EBE9FE"/>
<path opacity="0.4" d="M225.465 185.994H70.4697V102.642C70.4697 98.7874 73.595 95.6621 77.4501 95.6621H218.484C222.339 95.6621 225.465 98.7874 225.465 102.642V185.994Z" fill="white"/>
<path d="M209.679 181.48H86.3034C83.7757 181.48 81.7266 179.431 81.7266 176.903V77.2526C81.7266 74.7249 83.7757 72.6758 86.3034 72.6758H209.679C212.207 72.6758 214.256 74.7249 214.256 77.2526V176.903C214.256 179.431 212.207 181.48 209.679 181.48Z" fill="white"/>
<path d="M92.3348 79.4453C92.3348 81.0449 91.0382 82.3416 89.4385 82.3416C87.8387 82.3416 86.542 81.0449 86.542 79.4453C86.542 77.8456 87.8387 76.5488 89.4385 76.5488C91.0382 76.5488 92.3348 77.8456 92.3348 79.4453Z" fill="#9B8AFB"/>
<path d="M102.049 79.4453C102.049 81.0449 100.752 82.3416 99.1523 82.3416C97.5529 82.3416 96.2559 81.0449 96.2559 79.4453C96.2559 77.8456 97.5529 76.5488 99.1523 76.5488C100.752 76.5488 102.049 77.8456 102.049 79.4453Z" fill="#9B8AFB"/>
<path d="M111.762 79.4453C111.762 81.0449 110.465 82.3416 108.865 82.3416C107.265 82.3416 105.969 81.0449 105.969 79.4453C105.969 77.8456 107.265 76.5488 108.865 76.5488C110.465 76.5488 111.762 77.8456 111.762 79.4453Z" fill="#9B8AFB"/>
<path d="M195.753 157.943H99.1748V161.756H195.753V157.943Z" fill="#EBE9FE"/>
<path d="M195.753 149.666H99.1748V153.478H195.753V149.666Z" fill="#EBE9FE"/>
<path d="M154.009 166.217H99.1748V170.029H154.009V166.217Z" fill="#EBE9FE"/>
<path d="M191.464 174.476H177.426C175.058 174.476 173.139 172.556 173.139 170.188C173.139 167.82 175.058 165.9 177.426 165.9H191.464C193.832 165.9 195.751 167.82 195.751 170.188C195.751 172.556 193.832 174.476 191.464 174.476Z" fill="#F34135"/>
<path d="M168.798 92.8783C157.307 81.3868 138.676 81.387 127.185 92.8783C115.694 104.37 115.694 123 127.185 134.492C138.676 145.983 157.307 145.983 168.798 134.492C180.29 123.001 180.29 104.37 168.798 92.8783ZM132.58 129.097C124.068 120.586 124.068 106.785 132.58 98.2731C141.091 89.7616 154.892 89.7617 163.404 98.2731C171.915 106.785 171.915 120.585 163.404 129.097C154.892 137.608 141.091 137.608 132.58 129.097Z" fill="#F34135"/>
<path d="M170.817 97.569L164.104 90.8555L125.165 129.794L131.879 136.507L170.817 97.569Z" fill="#F34135"/>
</svg>
