    <svg
      width="213"
      height="117"
      viewBox="0 0 213 117"
      fill="none"
      xmlns="http://www.w3.org/2000/svg"
    >
      <g clip-path="url(#clip0_14469_192954)">
        <rect y="-27" width="213" height="171" fill="white" />
        <path
          fill-rule="evenodd"
          clip-rule="evenodd"
          d="M176.364 28.5742C179.658 28.5742 182.328 31.2538 182.328 34.5592C182.328 37.8646 179.658 40.5442 176.364 40.5442H142.284C145.578 40.5442 148.248 43.2238 148.248 46.5292C148.248 49.8346 145.578 52.5142 142.284 52.5142H161.028C164.322 52.5142 166.992 55.1938 166.992 58.4992C166.992 61.8046 164.322 64.4842 161.028 64.4842H152.36C148.207 64.4842 144.84 67.1638 144.84 70.4692C144.84 72.6728 146.544 74.6678 149.952 76.4542C153.246 76.4542 155.916 79.1338 155.916 82.4392C155.916 85.7446 153.246 88.4242 149.952 88.4242H79.2359C75.9421 88.4242 73.2719 85.7446 73.2719 82.4392C73.2719 79.1338 75.9421 76.4542 79.2359 76.4542H46.0079C42.7141 76.4542 40.0439 73.7746 40.0439 70.4692C40.0439 67.1638 42.7141 64.4842 46.0079 64.4842H80.0879C83.3818 64.4842 86.0519 61.8046 86.0519 58.4992C86.0519 55.1938 83.3818 52.5142 80.0879 52.5142H58.7879C55.4941 52.5142 52.8239 49.8346 52.8239 46.5292C52.8239 43.2238 55.4941 40.5442 58.7879 40.5442H92.8679C89.5741 40.5442 86.9039 37.8646 86.9039 34.5592C86.9039 31.2538 89.5741 28.5742 92.8679 28.5742H176.364ZM176.364 52.5142C179.658 52.5142 182.328 55.1938 182.328 58.4992C182.328 61.8046 179.658 64.4842 176.364 64.4842C173.07 64.4842 170.4 61.8046 170.4 58.4992C170.4 55.1938 173.07 52.5142 176.364 52.5142Z"
          fill="#D9D6FE"
        />
        <path
          fill-rule="evenodd"
          clip-rule="evenodd"
          d="M130.958 27.7165L138.863 85.7032L139.572 91.5207C139.801 93.3948 138.471 95.1013 136.602 95.3322L86.6874 101.499C84.8185 101.73 83.118 100.398 82.8893 98.5236L75.2307 35.7631C75.1163 34.826 75.7812 33.9728 76.7156 33.8573C76.7215 33.8566 76.7275 33.8559 76.7334 33.8552L80.8745 33.3877M84.2135 32.9931L88.122 32.5521L84.2135 32.9931Z"
          fill="white"
        />
        <path
          d="M132.197 27.5466C132.103 26.8626 131.473 26.3841 130.789 26.4779C130.105 26.5718 129.626 27.2023 129.72 27.8863L130.958 27.7165L132.197 27.5466ZM138.863 85.7032L140.103 85.5507C140.102 85.5449 140.102 85.5391 140.101 85.5333L138.863 85.7032ZM139.572 91.5207L140.813 91.3682L139.572 91.5207ZM136.602 95.3322L136.755 96.5729L136.602 95.3322ZM86.6874 101.499L86.8397 102.74L86.6874 101.499ZM82.8893 98.5236L84.1299 98.3711L82.8893 98.5236ZM75.2307 35.7631L73.99 35.9155L73.99 35.9155L75.2307 35.7631ZM76.7334 33.8552L76.8725 35.0975L76.7334 33.8552ZM81.0137 34.6299C81.6997 34.5525 82.1934 33.9335 82.1166 33.2474C82.0397 32.5614 81.4213 32.068 80.7353 32.1454L80.8745 33.3877L81.0137 34.6299ZM84.0744 31.7509C83.3884 31.8283 82.8945 32.4472 82.9714 33.1333C83.0482 33.8194 83.6666 34.3128 84.3526 34.2354L84.2135 32.9931L84.0744 31.7509ZM88.2611 33.7943C88.9471 33.7169 89.4409 33.098 89.3641 32.4119C89.2873 31.7259 88.6689 31.2324 87.9829 31.3098L88.122 32.5521L88.2611 33.7943ZM130.958 27.7165L129.72 27.8863L137.624 85.8731L138.863 85.7032L140.101 85.5333L132.197 27.5466L130.958 27.7165ZM138.863 85.7032L137.622 85.8556L138.332 91.6732L139.572 91.5207L140.813 91.3682L140.103 85.5507L138.863 85.7032ZM139.572 91.5207L138.332 91.6732C138.477 92.8654 137.631 93.9456 136.45 94.0915L136.602 95.3322L136.755 96.5729C139.312 96.257 141.125 93.9243 140.813 91.3682L139.572 91.5207ZM136.602 95.3322L136.45 94.0915L86.5352 100.258L86.6874 101.499L86.8397 102.74L136.755 96.5729L136.602 95.3322ZM86.6874 101.499L86.5352 100.258C85.3547 100.404 84.2753 99.5627 84.1299 98.3711L82.8893 98.5236L81.6486 98.6761C81.9606 101.233 84.2822 103.056 86.8397 102.74L86.6874 101.499ZM82.8893 98.5236L84.1299 98.3711L76.4713 35.6106L75.2307 35.7631L73.99 35.9155L81.6486 98.6761L82.8893 98.5236ZM75.2307 35.7631L76.4713 35.6106C76.4402 35.3555 76.6212 35.1285 76.8679 35.098L76.7156 33.8573L76.5634 32.6166C74.9411 32.8171 73.7924 34.2965 73.99 35.9155L75.2307 35.7631ZM76.7156 33.8573L76.8679 35.098C76.8694 35.0978 76.871 35.0976 76.8725 35.0975L76.7334 33.8552L76.5942 32.613C76.5839 32.6141 76.5737 32.6154 76.5634 32.6166L76.7156 33.8573ZM76.7334 33.8552L76.8725 35.0975L81.0137 34.6299L80.8745 33.3877L80.7353 32.1454L76.5942 32.613L76.7334 33.8552ZM84.2135 32.9931L84.3526 34.2354L88.2611 33.7943L88.122 32.5521L87.9829 31.3098L84.0744 31.7509L84.2135 32.9931Z"
          fill="#6938EF"
        />
        <path
          fill-rule="evenodd"
          clip-rule="evenodd"
          d="M128.775 31.3705L135.948 83.9391L136.594 89.2129C136.801 90.9119 135.614 92.4563 133.941 92.6624L89.2602 98.1678C87.5872 98.374 86.0625 97.1638 85.8546 95.4648L78.946 39.0008C78.8119 37.9044 79.5918 36.9061 80.6881 36.771L85.9219 36.1262"
          fill="#EBE9FE"
        />
        <path
          d="M94.8828 17H132.855C133.586 17 134.288 17.2911 134.804 17.8086L145.914 28.9512C146.428 29.4667 146.717 30.1656 146.717 30.8936V83.5703C146.717 85.089 145.485 86.3203 143.967 86.3203H94.8828C93.3641 86.3203 92.133 85.0889 92.1328 83.5703V19.75C92.1328 18.2312 93.364 17 94.8828 17Z"
          fill="white"
          stroke="#6938EF"
          stroke-width="2.5"
        />
        <path
          d="M133.484 17.8047V27.7203C133.484 29.1369 134.629 30.2853 136.04 30.2853H142.8"
          stroke="#6938EF"
          stroke-width="2.5"
          stroke-linecap="round"
          stroke-linejoin="round"
        />
        <path
          d="M100.539 73.8902H122.691M100.539 30.2852H122.691H100.539ZM100.539 40.5452H137.175H100.539ZM100.539 51.6602H137.175H100.539ZM100.539 62.7752H137.175H100.539Z"
          stroke="#9B8AFB"
          stroke-width="2.5"
          stroke-linecap="round"
          stroke-linejoin="round"
        />
      </g>
      <defs>
        <clipPath id="clip0_14469_192954">
          <rect width="213" height="117" fill="white" />
        </clipPath>
      </defs>
    </svg>