<svg width="40" height="40" viewBox="0 0 40 40" fill="none" xmlns="http://www.w3.org/2000/svg">
<path d="M32.5 40H7.5C3.35754 40 0 36.6425 0 32.5V7.5C0 3.35754 3.35754 0 7.5 0H32.5C36.6425 0 40 3.35754 40 7.5V32.5C40 36.6425 36.6425 40 32.5 40Z" fill="#F04438"/>
<path d="M34.3767 27.4975L23.7791 8.01651C22.0764 5.15005 17.9258 5.14624 16.2209 8.01651L5.62384 27.4975C3.88326 30.4266 5.99058 34.1357 9.40208 34.1357H30.5975C34.0062 34.1357 36.1173 30.4296 34.3767 27.4975ZM20 30.62C19.031 30.62 18.2422 29.8313 18.2422 28.8622C18.2422 27.8932 19.031 27.1044 20 27.1044C20.969 27.1044 21.7578 27.8932 21.7578 28.8622C21.7578 29.8313 20.969 30.62 20 30.62ZM21.7578 23.5888C21.7578 24.5578 20.969 25.3466 20 25.3466C19.031 25.3466 18.2422 24.5578 18.2422 23.5888V14.7997C18.2422 13.8307 19.031 13.0419 20 13.0419C20.969 13.0419 21.7578 13.8307 21.7578 14.7997V23.5888Z" fill="white"/>
</svg>
