<svg width="148" height="33" viewBox="0 0 148 33" fill="none" xmlns="http://www.w3.org/2000/svg">
<mask id="mask0_11869_38019" style="mask-type:luminance" maskUnits="userSpaceOnUse" x="0" y="0" width="148" height="33">
<path d="M0 0H148V33H0V0Z" fill="white"/>
</mask>
<g mask="url(#mask0_11869_38019)">
<path d="M103.552 21.6131C104.548 21.6131 105.325 21.2858 105.881 20.631C106.437 19.9761 106.715 19.0376 106.715 17.8153V15.5453C106.715 14.323 106.437 13.3845 105.881 12.7297C105.325 12.075 104.548 11.7474 103.552 11.7474C102.555 11.7474 101.779 12.075 101.223 12.7297C100.667 13.3845 100.389 14.323 100.389 15.5453V17.8153C100.389 19.0376 100.667 19.9761 101.223 20.631C101.779 21.2858 102.555 21.6131 103.552 21.6131ZM103.552 24.5596C102.555 24.5596 101.646 24.3924 100.822 24.0578C99.9992 23.7231 99.2987 23.2248 98.7211 22.5626C98.1434 21.9007 97.6955 21.0785 97.378 20.0962C97.0601 19.1139 96.9014 17.9756 96.9014 16.6803C96.9014 15.3854 97.0601 14.2466 97.378 13.2646C97.6955 12.2823 98.1434 11.4603 98.7211 10.7979C99.2987 10.1362 99.9992 9.63785 100.822 9.30301C101.646 8.96839 102.555 8.80097 103.552 8.80097C104.548 8.80097 105.458 8.96839 106.282 9.30301C107.105 9.63785 107.805 10.1362 108.383 10.7979C108.96 11.4603 109.408 12.2823 109.726 13.2646C110.043 14.2466 110.203 15.3854 110.203 16.6803C110.203 17.9756 110.043 19.1139 109.726 20.0962C109.408 21.0785 108.96 21.9007 108.383 22.5626C107.805 23.2248 107.105 23.7231 106.282 24.0578C105.458 24.3924 104.548 24.5596 103.552 24.5596Z" fill="#7A5AF8"/>
</g>
<mask id="mask1_11869_38019" style="mask-type:luminance" maskUnits="userSpaceOnUse" x="0" y="0" width="148" height="33">
<path d="M0 0H148V33H0V0Z" fill="white"/>
</mask>
<g mask="url(#mask1_11869_38019)">
<path d="M112.052 24.5596V13.8196H115.057V16.1518H115.158C115.212 15.852 115.307 15.562 115.443 15.2824C115.578 15.003 115.757 14.754 115.981 14.5357C116.204 14.3177 116.471 14.1437 116.783 14.0141C117.094 13.8845 117.459 13.8196 117.879 13.8196H118.407V16.6429H117.656C116.776 16.6429 116.123 16.7588 115.696 16.9905C115.27 17.2226 115.057 17.652 115.057 18.2792V24.5596H112.052Z" fill="#7A5AF8"/>
</g>
<mask id="mask2_11869_38019" style="mask-type:luminance" maskUnits="userSpaceOnUse" x="0" y="0" width="148" height="33">
<path d="M0 0H148V33H0V0Z" fill="white"/>
</mask>
<g mask="url(#mask2_11869_38019)">
<path d="M124.961 22.1048C125.529 22.1048 126 21.9037 126.372 21.5014C126.744 21.0992 126.93 20.5571 126.93 19.8751V18.0135C126.93 17.3315 126.744 16.7896 126.372 16.387C126 15.9849 125.529 15.7836 124.961 15.7836C124.392 15.7836 123.922 15.9237 123.55 16.2031C123.177 16.4827 122.991 16.8677 122.991 17.3588V20.5296C122.991 21.0207 123.177 21.4061 123.55 21.6855C123.922 21.9651 124.392 22.1048 124.961 22.1048ZM119.986 8.80097H122.991V15.3746H123.093C123.242 14.7744 123.583 14.2836 124.118 13.9017C124.653 13.52 125.265 13.3288 125.956 13.3288C127.309 13.3288 128.331 13.8064 129.022 14.7608C129.712 15.7156 130.057 17.1066 130.057 18.934C130.057 20.7617 129.712 22.1561 129.022 23.1175C128.331 24.0789 127.309 24.5596 125.956 24.5596C125.604 24.5596 125.272 24.5085 124.961 24.4062C124.649 24.3039 124.368 24.1607 124.118 23.9768C123.868 23.7924 123.654 23.5746 123.479 23.3221C123.303 23.07 123.174 22.8002 123.093 22.5138H122.991V24.5596H119.986V8.80097Z" fill="#7A5AF8"/>
</g>
<mask id="mask3_11869_38019" style="mask-type:luminance" maskUnits="userSpaceOnUse" x="0" y="0" width="148" height="33">
<path d="M0 0H148V33H0V0Z" fill="white"/>
</mask>
<g mask="url(#mask3_11869_38019)">
<path d="M132.332 13.8199H135.337V24.5598H132.332V13.8199ZM133.834 12.2378C133.225 12.2378 132.781 12.0981 132.504 11.8185C132.227 11.5391 132.088 11.1812 132.088 10.7445V10.2944C132.088 9.85809 132.227 9.50016 132.504 9.22032C132.781 8.94114 133.225 8.80099 133.834 8.80099C134.443 8.80099 134.887 8.94114 135.164 9.22032C135.441 9.50016 135.58 9.85809 135.58 10.2944V10.7445C135.58 11.1812 135.441 11.5391 135.164 11.8185C134.887 12.0981 134.443 12.2378 133.834 12.2378Z" fill="#7A5AF8"/>
</g>
<mask id="mask4_11869_38019" style="mask-type:luminance" maskUnits="userSpaceOnUse" x="0" y="0" width="148" height="33">
<path d="M0 0H148V33H0V0Z" fill="white"/>
</mask>
<g mask="url(#mask4_11869_38019)">
<path d="M141.874 24.5596C140.831 24.5596 140.043 24.2936 139.508 23.7616C138.974 23.2299 138.707 22.4526 138.707 21.4296V16.1723H137.204V13.8196H137.955C138.361 13.8196 138.639 13.7208 138.788 13.5231C138.937 13.3255 139.011 13.0421 139.011 12.6741V10.7706H141.711V13.8196H143.823V16.1723H141.711V22.2069H143.661V24.5596H141.874Z" fill="#7A5AF8"/>
</g>
<mask id="mask5_11869_38019" style="mask-type:luminance" maskUnits="userSpaceOnUse" x="0" y="0" width="148" height="33">
<path d="M0 0H148V33H0V0Z" fill="white"/>
</mask>
<g mask="url(#mask5_11869_38019)">
<path d="M56.3829 22.1983H56.2719C56.1532 22.9888 55.7538 23.6448 55.0732 24.1665C54.3923 24.6883 53.4672 24.9492 52.2983 24.9492C51.4105 24.9492 50.5812 24.7778 49.8119 24.4351C49.0422 24.0921 48.369 23.585 47.7919 22.914C47.2146 22.243 46.763 21.4081 46.4377 20.4089C46.1121 19.4101 45.9492 18.2544 45.9492 16.9421C45.9492 15.6302 46.1193 14.4671 46.46 13.4531C46.8001 12.4391 47.2775 11.5893 47.8917 10.9033C48.5057 10.2176 49.242 9.69552 50.1006 9.33758C50.9587 8.97986 51.9134 8.80078 52.9643 8.80078C54.3552 8.80078 55.554 9.10284 56.5604 9.70652C57.5668 10.3104 58.3585 11.2164 58.9359 12.4242L56.1831 14.0121C55.9464 13.401 55.576 12.8827 55.0732 12.4576C54.5699 12.0328 53.8668 11.8203 52.9643 11.8203C51.9134 11.8203 51.0773 12.1261 50.4556 12.7372C49.8342 13.3488 49.5232 14.3107 49.5232 15.6225V18.1277C49.5232 19.4248 49.8342 20.3831 50.4556 21.0018C51.0773 21.6206 51.9134 21.9299 52.9643 21.9299C53.3783 21.9299 53.7707 21.8815 54.1408 21.7845C54.5107 21.6877 54.8363 21.5386 55.1177 21.3373C55.3985 21.1357 55.6171 20.8937 55.7726 20.6102C55.9278 20.3272 56.0055 19.9917 56.0055 19.6039V18.8211H53.1198V15.9803H59.2245V24.9492H56.3829V22.1983Z" fill="#7A5AF8"/>
</g>
<mask id="mask6_11869_38019" style="mask-type:luminance" maskUnits="userSpaceOnUse" x="0" y="0" width="148" height="33">
<path d="M0 0H148V33H0V0Z" fill="white"/>
</mask>
<g mask="url(#mask6_11869_38019)">
<path d="M69.1418 16.0654C69.6621 16.0654 70.0717 15.9306 70.3702 15.6604C70.6687 15.3909 70.8179 14.9936 70.8179 14.4691V13.4512C70.8179 12.9269 70.6687 12.5296 70.3702 12.2596C70.0717 11.9899 69.6621 11.8548 69.1418 11.8548H65.4677V16.0654H69.1418ZM65.4677 24.9495H61.9775V8.8008H69.578C70.3128 8.8008 70.9786 8.92466 71.5755 9.17106C72.1727 9.41812 72.6815 9.76902 73.1027 10.2238C73.5237 10.6789 73.8488 11.2226 74.0785 11.8548C74.3083 12.4873 74.4229 13.1889 74.4229 13.96C74.4229 15.0554 74.182 16.0115 73.6997 16.8288C73.2174 17.6466 72.4863 18.2401 71.5068 18.6102L74.6526 24.9495H70.772L67.9707 19.0266H65.4677V24.9495Z" fill="#7A5AF8"/>
</g>
<mask id="mask7_11869_38019" style="mask-type:luminance" maskUnits="userSpaceOnUse" x="0" y="0" width="148" height="33">
<path d="M0 0H148V33H0V0Z" fill="white"/>
</mask>
<g mask="url(#mask7_11869_38019)">
<path d="M84.1868 24.9495C83.1358 24.9495 82.1888 24.7818 81.3453 24.4463C80.5016 24.1108 79.7839 23.6114 79.1919 22.9477C78.5999 22.2844 78.141 21.457 77.8156 20.465C77.49 19.4737 77.3271 18.3145 77.3271 16.9872C77.3271 15.6751 77.49 14.5083 77.8156 13.4866C78.141 12.4656 78.5999 11.6078 79.1919 10.9146C79.7839 10.2213 80.5016 9.69576 81.3453 9.33782C82.1888 8.97988 83.1358 8.80102 84.1868 8.80102C85.622 8.80102 86.8061 9.0956 87.7385 9.68432C88.6709 10.2737 89.4181 11.2019 89.9808 12.4691L87.0728 13.9899C86.8653 13.3339 86.5435 12.8083 86.107 12.4132C85.6703 12.0181 85.0305 11.8205 84.1868 11.8205C83.195 11.8205 82.3997 12.1448 81.8004 12.7934C81.201 13.4419 80.9012 14.3853 80.9012 15.6226V18.1277C80.9012 19.3656 81.201 20.3086 81.8004 20.9571C82.3997 21.6057 83.195 21.93 84.1868 21.93C85.0154 21.93 85.6777 21.7029 86.1736 21.248C86.6692 20.7932 87.0356 20.2454 87.2726 19.6039L90.0251 21.2143C89.448 22.4076 88.6895 23.3278 87.7499 23.9766C86.8096 24.6252 85.622 24.9495 84.1868 24.9495Z" fill="#7A5AF8"/>
</g>
<mask id="mask8_11869_38019" style="mask-type:luminance" maskUnits="userSpaceOnUse" x="0" y="0" width="148" height="33">
<path d="M0 0H148V33H0V0Z" fill="white"/>
</mask>
<g mask="url(#mask8_11869_38019)">
<path d="M19.7358 7.17129C17.0125 7.29537 14.3029 7.69665 11.6602 8.37183C12.4174 11.069 13.4515 13.6837 14.744 16.1655C15.6006 16.479 16.4262 16.7479 17.1802 16.9734C15.8312 14.6585 14.7217 12.2058 13.8773 9.66015C15.8074 9.26393 17.7682 9.02105 19.7358 8.92645V7.17129Z" fill="#7A5AF8"/>
</g>
<mask id="mask9_11869_38019" style="mask-type:luminance" maskUnits="userSpaceOnUse" x="0" y="0" width="148" height="33">
<path d="M0 0H148V33H0V0Z" fill="white"/>
</mask>
<g mask="url(#mask9_11869_38019)">
<path d="M21.5236 26.8652C20.474 25.8266 19.4824 24.7312 18.5492 23.5857C17.6293 23.3602 16.684 23.0827 15.6992 22.7349C17.4122 25.1067 19.3645 27.301 21.5236 29.2766C23.134 27.8039 24.6297 26.2072 25.9957 24.5055C25.2675 24.4797 24.5461 24.4452 23.8246 24.3917C23.0912 25.248 22.3237 26.073 21.5236 26.8652Z" fill="#7A5AF8"/>
</g>
<mask id="mask10_11869_38019" style="mask-type:luminance" maskUnits="userSpaceOnUse" x="0" y="0" width="148" height="33">
<path d="M0 0H148V33H0V0Z" fill="white"/>
</mask>
<g mask="url(#mask10_11869_38019)">
<path d="M21.6761 25.4253C22.03 25.0551 22.377 24.6778 22.7154 24.2937C21.8163 24.2008 20.9103 24.0732 19.9854 23.8977C20.4349 24.4195 20.8965 24.9275 21.3717 25.4253L21.5239 25.5837L21.6761 25.4253Z" fill="#7A5AF8"/>
</g>
<mask id="mask11_11869_38019" style="mask-type:luminance" maskUnits="userSpaceOnUse" x="0" y="0" width="148" height="33">
<path d="M0 0H148V33H0V0Z" fill="white"/>
</mask>
<g mask="url(#mask11_11869_38019)">
<path d="M38.1451 18.4065C37.4237 16.5515 35.0766 14.9858 32.3398 13.7181C32.3367 13.7256 32.3334 13.7331 32.3304 13.7406C33.2555 11.4688 33.9899 9.11881 34.5176 6.71663L34.5604 6.52545L34.3757 6.46693C32.8184 5.97259 31.0233 5.50069 29.0164 5.14077C26.9206 4.76523 24.9991 4.58263 23.3117 4.51201V6.26717C24.734 6.32921 26.3239 6.47375 28.0401 6.75293C29.678 7.01803 31.1652 7.36255 32.4867 7.73127C31.6336 11.0588 30.3702 14.2694 28.7293 17.2801L26.4435 15.9522L26.3394 16.1399C25.8212 17.0819 25.2622 18.0035 24.6657 18.8991C25.2982 19.0575 25.8983 19.2023 26.4708 19.3297C26.6761 19.0076 26.8778 18.6855 27.0743 18.3584L29.3601 19.688L29.466 19.509C30.4748 17.8101 31.3644 16.044 32.1306 14.2259C32.1181 14.2558 32.1061 14.2859 32.0934 14.3159C32.1157 14.328 32.138 14.3434 32.1618 14.359C33.0422 14.9066 33.8936 15.5164 34.7056 16.1881C35.3159 16.7444 36.4289 17.7503 36.7143 18.7251C36.7844 18.9629 36.8049 19.1955 36.7588 19.4227C36.5588 19.8585 36.0391 20.1118 35.5673 20.2684C34.9604 20.4717 34.2698 20.5698 33.5774 20.6283C32.0113 20.711 30.4405 20.6387 28.8727 20.4649C28.2386 20.3942 27.606 20.3062 26.9735 20.2046C26.6503 20.1531 26.3256 20.0979 26.0024 20.0394C25.3803 19.9274 24.758 19.8051 24.1392 19.6724C22.9852 19.428 21.8364 19.1559 20.6962 18.8784C19.4398 18.541 18.1781 18.1912 16.925 17.8055C16.1745 17.5747 15.4258 17.3301 14.6855 17.0665C14.3111 16.9356 13.9386 16.7994 13.5676 16.6582C12.9195 16.4085 12.2786 16.1449 11.6443 15.8592C10.5401 15.3666 9.45966 14.812 8.4168 14.1797C7.81676 13.787 7.23376 13.365 6.76364 12.8863C6.40466 12.5176 6.03543 12.0424 6.01839 11.5566C6.03543 11.46 6.06796 11.3705 6.10901 11.2845C6.56035 10.32 8.22181 9.88419 9.10921 9.64307C9.16336 9.63273 9.21773 9.62085 9.27035 9.60875C9.76711 11.3012 10.3671 12.962 11.0665 14.5812C11.8648 14.9875 12.6854 15.3545 13.494 15.6834C12.2496 13.1428 11.2631 10.4766 10.5604 7.73127C13.8444 6.81321 17.2379 6.31029 20.6466 6.23791V8.89551C23.5049 8.83171 26.3684 9.08669 29.1701 9.66023C28.5463 11.5428 27.7753 13.3771 26.8726 15.1409L28.3803 16.0176C29.637 13.5804 30.6455 11.0159 31.3858 8.37191C28.4489 7.62259 25.4299 7.20767 22.4005 7.14211V4.48275C17.6857 4.38639 12.9778 5.07697 8.48689 6.52545C8.63494 7.21361 8.7998 7.89781 8.98125 8.57717C8.98059 8.57475 8.97994 8.57233 8.97928 8.56991C8.94151 8.57343 8.90395 8.57695 8.86639 8.58025L8.8629 8.58201C7.29708 8.74393 5.97734 9.15731 5.1465 9.95811C3.89162 11.1932 4.4268 13.1688 5.36879 14.3709C7.24227 16.7495 10.4272 18.8285 14.1301 20.4079C15.041 20.7973 15.983 21.1554 16.9455 21.4793C17.4259 21.643 17.9131 21.7963 18.4019 21.9408C19.3389 22.2198 20.2877 22.4662 21.2399 22.6781C21.3989 22.7141 21.5596 22.7487 21.7185 22.7832C22.3784 22.9209 23.0365 23.0433 23.6929 23.1467C24.0399 23.2034 24.3853 23.2534 24.729 23.298C25.4197 23.3878 26.1033 23.4584 26.7769 23.5066C30.1737 23.7545 33.3226 23.4617 35.7057 22.4972C35.8887 22.4231 36.0699 22.3439 36.2442 22.2629C37.5639 21.6412 38.7913 20.1254 38.1451 18.4065Z" fill="#7A5AF8"/>
</g>
</svg>
