<svg width="26" height="19" viewBox="0 0 26 19" fill="none" xmlns="http://www.w3.org/2000/svg">
<g clip-path="url(#clip0_12524_21928)">
<mask id="mask0_12524_21928" style="mask-type:luminance" maskUnits="userSpaceOnUse" x="-4" y="-4" width="115" height="26">
<path d="M-3.38281 -3.42789H110.085V21.8516H-3.38281V-3.42789Z" fill="white"/>
</mask>
<g mask="url(#mask0_12524_21928)">
<path d="M11.7461 2.06538C9.65818 2.16043 7.58082 2.46783 5.55469 2.98504C6.13526 5.05122 6.9281 7.05419 7.91898 8.95538C8.57572 9.19553 9.20869 9.40148 9.78675 9.57422C8.75251 7.80095 7.90191 5.92201 7.25454 3.97195C8.73426 3.66843 10.2376 3.48238 11.7461 3.40991V2.06538Z" fill="#6938EF"/>
</g>
<mask id="mask1_12524_21928" style="mask-type:luminance" maskUnits="userSpaceOnUse" x="-4" y="-4" width="115" height="26">
<path d="M-3.38281 -3.42789H110.085V21.8516H-3.38281V-3.42789Z" fill="white"/>
</mask>
<g mask="url(#mask1_12524_21928)">
<path d="M13.2337 16.0505C13.5051 15.7669 13.7711 15.4779 14.0306 15.1836C13.3412 15.1125 12.6466 15.0148 11.9375 14.8803C12.2822 15.28 12.6361 15.6692 13.0004 16.0505L13.1171 16.1719L13.2337 16.0505Z" fill="#6938EF"/>
</g>
<mask id="mask2_12524_21928" style="mask-type:luminance" maskUnits="userSpaceOnUse" x="-4" y="-4" width="115" height="26">
<path d="M-3.38281 -3.42789H110.085V21.8516H-3.38281V-3.42789Z" fill="white"/>
</mask>
<g mask="url(#mask2_12524_21928)">
<path d="M13.1217 17.1527C12.317 16.3571 11.5568 15.518 10.8413 14.6405C10.136 14.4677 9.41126 14.2552 8.65625 13.9888C9.96956 15.8057 11.4664 17.4866 13.1217 19C14.3563 17.8719 15.5031 16.6487 16.5504 15.3451C15.992 15.3254 15.4389 15.2989 14.8858 15.258C14.3235 15.9139 13.7351 16.5459 13.1217 17.1527Z" fill="#6938EF"/>
</g>
<mask id="mask3_12524_21928" style="mask-type:luminance" maskUnits="userSpaceOnUse" x="-4" y="-4" width="115" height="26">
<path d="M-3.38281 -3.42789H110.085V21.8516H-3.38281V-3.42789Z" fill="white"/>
</mask>
<g mask="url(#mask3_12524_21928)">
<path d="M25.8638 10.6735C25.3107 9.25248 23.5113 8.05305 21.413 7.08198C21.4106 7.08772 21.4081 7.09345 21.4058 7.09918C22.1151 5.35894 22.6781 3.5587 23.0827 1.71853L23.1155 1.57207L22.9739 1.52725C21.7799 1.14856 20.4037 0.787064 18.865 0.511349C17.2583 0.223668 15.7851 0.0837889 14.4913 0.0296907V1.37422C15.5818 1.42175 16.8007 1.53247 18.1166 1.74634C19.3723 1.94941 20.5125 2.21333 21.5256 2.49579C20.8716 5.0448 19.903 7.50432 18.6449 9.81065L16.8925 8.79341L16.8126 8.93716C16.4154 9.6588 15.9868 10.3648 15.5294 11.0509C16.0144 11.1722 16.4745 11.2831 16.9134 11.3807C17.0708 11.1339 17.2254 10.8872 17.3761 10.6366L19.1285 11.6552L19.2097 11.518C19.9831 10.2166 20.6652 8.86368 21.2526 7.47095C21.2431 7.49387 21.2338 7.51696 21.2241 7.53988C21.2412 7.54915 21.2583 7.56095 21.2765 7.57291C21.9515 7.99238 22.6042 8.45955 23.2268 8.97407C23.6947 9.40028 24.548 10.1708 24.7668 10.9176C24.8206 11.0997 24.8363 11.2779 24.801 11.452C24.6476 11.7858 24.2492 11.9798 23.8874 12.0998C23.4222 12.2555 22.8927 12.3307 22.3618 12.3755C21.1612 12.4389 19.9569 12.3834 18.7549 12.2503C18.2687 12.1962 17.7837 12.1288 17.2988 12.0509C17.051 12.0115 16.8021 11.9692 16.5543 11.9243C16.0774 11.8386 15.6002 11.7449 15.1258 11.6432C14.2411 11.456 13.3603 11.2475 12.4861 11.035C11.5229 10.7765 10.5556 10.5085 9.59484 10.2131C9.01946 10.0363 8.44542 9.84891 7.8779 9.64701C7.5908 9.54673 7.3052 9.44241 7.02078 9.33422C6.52391 9.14294 6.03257 8.94104 5.54625 8.72212C4.69967 8.34478 3.87134 7.91992 3.0718 7.43556C2.61177 7.13474 2.16479 6.8115 1.80436 6.44477C1.52914 6.16232 1.24606 5.7983 1.233 5.42618C1.24606 5.3522 1.271 5.2836 1.30247 5.21771C1.6485 4.47888 2.92231 4.14502 3.60265 3.96031C3.64417 3.95239 3.68585 3.94329 3.7262 3.93402C4.10705 5.23052 4.56709 6.50275 5.10329 7.74313C5.71533 8.0544 6.34445 8.33551 6.96436 8.58746C6.01031 6.64128 5.25396 4.59887 4.71524 2.49579C7.23305 1.79251 9.83473 1.40725 12.4481 1.35181V3.38765C14.6395 3.33877 16.8349 3.5341 18.9829 3.97345C18.5046 5.41556 17.9135 6.82076 17.2214 8.17187L18.3774 8.84346C19.3408 6.97649 20.1141 5.01194 20.6816 2.98655C18.4299 2.41253 16.1154 2.09469 13.7927 2.04446V0.00727654C10.1781 -0.0665398 6.56861 0.462475 3.12554 1.57207C3.23904 2.09924 3.36544 2.62336 3.50455 3.14378C3.50405 3.14193 3.50355 3.14007 3.50304 3.13822C3.47408 3.14092 3.44529 3.14361 3.41649 3.14614L3.41382 3.14749C2.21334 3.27153 1.20153 3.5882 0.564541 4.20164C-0.39755 5.14777 0.0127639 6.66117 0.73496 7.58201C2.17132 9.40416 4.61312 10.9968 7.45202 12.2066C8.15044 12.5049 8.87264 12.7793 9.61057 13.0274C9.97887 13.1528 10.3524 13.2702 10.7272 13.381C11.4455 13.5946 12.1729 13.7834 12.903 13.9457C13.0249 13.9733 13.1481 13.9998 13.2699 14.0263C13.7758 14.1318 14.2804 14.2255 14.7836 14.3047C15.0496 14.3481 15.3145 14.3864 15.578 14.4206C16.1075 14.4894 16.6316 14.5435 17.1481 14.5804C19.7523 14.7703 22.1665 14.546 23.9936 13.8072C24.1338 13.7504 24.2728 13.6897 24.4064 13.6277C25.4182 13.1514 26.3592 11.9902 25.8638 10.6735Z" fill="#6938EF"/>
</g>
</g>
<defs>
<clipPath id="clip0_12524_21928">
<rect width="26" height="19" fill="white"/>
</clipPath>
</defs>
</svg>
