<svg width="624" height="794" viewBox="0 0 624 794" fill="none" xmlns="http://www.w3.org/2000/svg">
<rect width="624" height="793.333" rx="12" fill="#EBE9FE"/>
<path d="M432.131 607.47L429.225 609.195C426.385 610.882 422.643 610.07 420.869 607.382L400.668 576.783C398.894 574.095 399.758 570.549 402.599 568.862L405.505 567.137C408.346 565.45 412.087 566.262 413.861 568.95L434.062 599.549C435.837 602.237 434.972 605.783 432.131 607.47Z" fill="#9B8AFB"/>
<path d="M318.892 219.875L306.158 219.688C302.419 219.633 299.433 216.557 299.488 212.819L299.834 189.283C299.889 185.544 302.964 182.558 306.703 182.613L319.437 182.8C323.175 182.855 326.162 185.93 326.107 189.669L325.761 213.205C325.706 216.944 322.631 219.93 318.892 219.875Z" fill="#9B8AFB"/>
<path d="M518.048 153.981C520.468 148.071 517.64 141.319 511.73 138.898C505.821 136.478 499.068 139.307 496.648 145.216C494.228 151.126 497.056 157.878 502.966 160.298C508.875 162.719 515.628 159.89 518.048 153.981Z" fill="#9B8AFB"/>
<path d="M125.498 160.783C131.877 160.481 136.803 155.065 136.501 148.686C136.199 142.307 130.783 137.381 124.404 137.683C118.026 137.985 113.099 143.401 113.401 149.78C113.703 156.159 119.119 161.085 125.498 160.783Z" fill="#9B8AFB"/>
<path d="M487.718 142.06L484.091 140.474C482.145 139.623 480.175 138.852 478.184 138.161C458.89 131.462 437.69 132.252 418.85 140.529L380.192 157.512L526.689 270.88L534.649 233.385C540.046 207.958 532.954 181.484 515.568 162.161C507.823 153.553 498.328 146.699 487.718 142.06Z" fill="#9B8AFB"/>
<path opacity="0.3" d="M518.452 174.716L522.724 182.853C526.917 190.838 529.263 199.664 529.589 208.678C529.873 216.528 528.619 224.357 525.897 231.726L516.399 257.436L489.076 233.514L500.624 221.054C505.612 215.671 509.575 209.422 512.316 202.614L513.356 200.033C515.361 195.054 516.692 189.83 517.313 184.499L518.452 174.716Z" fill="white"/>
<path opacity="0.4" d="M431.82 187.719L380.192 157.512L413.778 142.732C415.904 141.798 415.904 141.798 420.854 139.6C420.854 139.6 429.436 136.1 437.906 134.761L444.723 133.952L441.564 137.797C439.764 139.988 438.176 142.349 436.874 144.868C430.656 156.898 428.273 169.878 430.96 183.391L431.82 187.719Z" fill="#6938EF"/>
<path d="M526.491 271.105C529.583 267.11 499.292 238.494 458.836 207.189C418.38 175.883 383.077 153.744 379.986 157.739C376.895 161.734 407.185 190.35 447.641 221.656C488.098 252.961 523.4 275.1 526.491 271.105Z" fill="#6938EF"/>
<mask id="mask0_15732_53851" style="mask-type:luminance" maskUnits="userSpaceOnUse" x="385" y="161" width="141" height="110">
<path d="M525.093 269.562C528.037 265.756 499.184 238.495 460.646 208.673C422.108 178.85 388.48 157.759 385.535 161.565C382.94 164.918 405.044 186.49 436.707 211.978L416.02 236.758L444.124 260.22L465.718 234.354C497.285 257.664 522.557 272.837 525.093 269.562Z" fill="white"/>
</mask>
<g mask="url(#mask0_15732_53851)">
<path d="M431.849 248.516L428.593 245.984C425.41 243.508 424.837 238.921 427.313 235.738L455.497 199.503C457.973 196.321 462.56 195.747 465.743 198.223L468.999 200.756C472.182 203.232 472.755 207.819 470.279 211.002L442.095 247.236C439.619 250.419 435.032 250.992 431.849 248.516Z" fill="#9B8AFB"/>
</g>
<path d="M114.484 166.828L112.036 169.941C110.723 171.61 109.482 173.323 108.312 175.076C96.976 192.064 92.4094 212.782 95.6821 233.099L102.397 274.784L248.964 161.507L214.675 144.374C191.423 132.756 164.017 132.962 140.943 144.929C130.663 150.26 121.642 157.727 114.484 166.828Z" fill="#9B8AFB"/>
<path opacity="0.3" d="M153.819 145.296L162.769 143.207C171.552 141.157 180.684 141.106 189.49 143.057C197.159 144.757 204.422 147.94 210.869 152.427L233.364 168.086L203.34 188.514L194.184 174.204C190.229 168.023 185.177 162.616 179.277 158.25L177.041 156.595C172.726 153.402 168.005 150.8 163.001 148.859L153.819 145.296Z" fill="white"/>
<path opacity="0.4" d="M144.617 232.413L102.397 274.784L96.5384 238.56C96.1691 236.268 96.1691 236.268 95.2867 230.925C95.2867 230.925 94.0574 221.738 94.8921 213.203L95.8235 206.403L98.7504 210.427C100.418 212.72 102.304 214.85 104.414 216.744C114.493 225.788 126.457 231.359 140.212 232.157L144.617 232.413Z" fill="#6938EF"/>
<path d="M170.276 211.173C129.803 242.454 99.497 271.052 102.586 275.048C105.675 279.045 140.989 256.926 181.462 225.646C221.935 194.365 252.241 165.767 249.153 161.771C246.064 157.774 210.75 179.892 170.276 211.173Z" fill="#6938EF"/>
<mask id="mask1_15732_53851" style="mask-type:luminance" maskUnits="userSpaceOnUse" x="107" y="162" width="141" height="110">
<path d="M247.286 162.722C244.344 158.915 210.702 179.985 172.146 209.784C133.59 239.583 104.72 266.827 107.662 270.634C110.256 273.989 136.694 258.02 169.324 233.786L188.106 260.039L217.881 238.739L198.277 211.335C228.777 186.644 249.819 165.999 247.286 162.722Z" fill="white"/>
</mask>
<g mask="url(#mask1_15732_53851)">
<path d="M203.468 247.675L200.197 250.19C197.001 252.647 192.417 252.049 189.959 248.852L161.977 212.461C159.52 209.264 160.118 204.68 163.315 202.222L166.585 199.708C169.781 197.25 174.366 197.849 176.823 201.045L204.805 237.436C207.263 240.633 206.664 245.217 203.468 247.675Z" fill="#9B8AFB"/>
</g>
<path d="M206.468 612.064L203.386 610.637C200.373 609.241 199.116 605.8 200.579 602.949L217.732 569.525C218.917 567.216 221.856 566.261 224.298 567.392L229.451 569.779C231.892 570.909 232.911 573.698 231.726 576.007L214.573 609.431C213.11 612.281 209.482 613.46 206.468 612.064Z" fill="#9B8AFB"/>
<path d="M214.5 621.108C219.779 615.829 219.779 607.27 214.5 601.991C209.222 596.712 200.663 596.712 195.384 601.991C190.105 607.27 190.105 615.829 195.384 621.108C200.663 626.387 209.222 626.387 214.5 621.108Z" fill="#9B8AFB"/>
<path d="M312.648 594.962C389.987 596.099 457.46 552.009 489.871 487.162H447.001L314.455 520.067L184.029 487.162H141.16C172.661 550.168 237.35 593.855 312.648 594.962Z" fill="#9B8AFB"/>
<path d="M318.375 205.382C241.383 204.25 174.169 247.942 141.592 312.313H184.604L312.797 264.806L446.416 312.314H489.427C457.768 249.774 393.327 206.484 318.375 205.382Z" fill="#9B8AFB"/>
<path d="M317.829 242.547C262.469 241.733 213.358 269.558 184.604 312.313H446.417C418.559 270.886 371.528 243.337 317.829 242.547Z" fill="white"/>
<path d="M313.195 557.796C368.929 558.616 418.332 530.409 447.001 487.162H315.516H184.03C211.812 529.072 259.122 557.002 313.195 557.796Z" fill="white"/>
<g opacity="0.25">
<path d="M433.515 529.205C432.405 530.889 431.284 532.565 430.15 534.231C446.461 521.12 460.421 505.187 471.284 487.162H468.331C458.946 502.939 447.173 517.119 433.515 529.205Z" fill="white"/>
<path d="M319.362 221C384.977 221.965 441.685 258.673 471.231 312.314H476.208C446.789 256.631 388.681 218.309 321.272 217.318C251.996 216.299 191.384 254.982 161.101 312.314H162.319C192.744 257.066 251.899 220.008 319.362 221Z" fill="white"/>
</g>
<path d="M343.254 190.851L282.661 189.96C278.418 189.898 275.029 186.408 275.092 182.166C275.256 171.022 284.422 162.121 295.566 162.285L331.168 162.808C342.312 162.972 351.213 172.139 351.049 183.282C350.987 187.525 347.497 190.913 343.254 190.851Z" fill="#6938EF"/>
<path d="M343.898 190.861L294.227 190.13C290.34 190.073 287.236 186.876 287.293 182.99L287.327 180.652C287.477 170.444 295.875 162.289 306.084 162.439L332.861 162.833C343.07 162.983 351.223 171.38 351.073 181.589L351.039 183.927C350.982 187.813 347.785 190.918 343.898 190.861Z" fill="#9B8AFB"/>
<path opacity="0.3" d="M326.082 162.615C340.556 168.176 344.227 179.044 345.366 190.825L332.261 190.676C333.003 181.447 331.61 170.555 326.082 162.615Z" fill="white"/>
<path d="M438.629 623.046C445.314 619.721 448.038 611.607 444.713 604.922C441.389 598.238 433.275 595.514 426.59 598.838C419.905 602.163 417.181 610.277 420.506 616.961C423.83 623.646 431.944 626.37 438.629 623.046Z" fill="#9B8AFB"/>
<path d="M316.516 260.816H315.696C315.011 260.816 314.455 260.261 314.455 259.575V248.743C314.455 248.057 315.01 247.502 315.696 247.502H316.516C317.201 247.502 317.757 248.057 317.757 248.743V259.575C317.757 260.261 317.202 260.816 316.516 260.816Z" fill="#6938EF"/>
<path d="M247.545 279.219L246.826 279.637C246.235 279.981 245.479 279.777 245.138 279.182L239.768 269.808C239.427 269.213 239.63 268.451 240.221 268.107L240.94 267.688C241.531 267.344 242.287 267.549 242.628 268.144L247.997 277.518C248.339 278.113 248.136 278.875 247.545 279.219Z" fill="#6938EF"/>
<path d="M246.826 519.838L247.545 520.257C248.136 520.6 248.339 521.362 247.998 521.958L242.628 531.331C242.287 531.927 241.531 532.131 240.94 531.787L240.221 531.369C239.63 531.025 239.427 530.263 239.768 529.667L245.138 520.294C245.479 519.698 246.235 519.494 246.826 519.838Z" fill="#6938EF"/>
<path d="M315.696 538.659H316.516C317.202 538.659 317.757 539.215 317.757 539.9V550.733C317.757 551.418 317.202 551.974 316.516 551.974H315.696C315.011 551.974 314.455 551.418 314.455 550.733V539.9C314.455 539.215 315.011 538.659 315.696 538.659Z" fill="#6938EF"/>
<path d="M384.667 520.256L385.386 519.838C385.977 519.494 386.733 519.698 387.074 520.294L392.444 529.667C392.785 530.263 392.582 531.025 391.991 531.369L391.272 531.787C390.681 532.131 389.925 531.927 389.584 531.331L384.215 521.958C383.873 521.363 384.076 520.601 384.667 520.256Z" fill="#6938EF"/>
<path d="M385.386 279.637L384.667 279.219C384.076 278.875 383.873 278.113 384.215 277.517L389.584 268.144C389.925 267.549 390.681 267.344 391.272 267.688L391.991 268.107C392.582 268.451 392.785 269.213 392.444 269.808L387.074 279.182C386.733 279.777 385.977 279.981 385.386 279.637Z" fill="#6938EF"/>
<path d="M301.043 255.299C300.476 255.359 299.968 254.944 299.908 254.373L299.398 249.48C299.339 248.908 299.75 248.396 300.317 248.336C300.885 248.276 301.393 248.691 301.452 249.262L301.963 254.155C302.022 254.727 301.611 255.239 301.043 255.299Z" fill="#6938EF"/>
<path d="M286.145 257.677C285.587 257.797 285.039 257.437 284.92 256.875L283.906 252.063C283.787 251.5 284.143 250.948 284.701 250.829C285.259 250.709 285.807 251.068 285.926 251.63L286.941 256.442C287.059 257.005 286.703 257.558 286.145 257.677Z" fill="#6938EF"/>
<path d="M271.575 261.611C271.033 261.789 270.45 261.49 270.274 260.943L268.766 256.264C268.589 255.717 268.886 255.13 269.429 254.953C269.971 254.775 270.554 255.074 270.73 255.621L272.238 260.3C272.415 260.847 272.118 261.434 271.575 261.611Z" fill="#6938EF"/>
<path d="M257.494 267.059C256.973 267.293 256.363 267.057 256.131 266.532L254.145 262.037C253.913 261.512 254.148 260.897 254.669 260.663C255.189 260.429 255.8 260.666 256.032 261.191L258.017 265.686C258.249 266.21 258.015 266.826 257.494 267.059Z" fill="#6938EF"/>
<path d="M231.405 282.24C230.943 282.578 230.297 282.475 229.962 282.01L227.093 278.03C226.758 277.565 226.86 276.914 227.321 276.576C227.783 276.238 228.428 276.341 228.764 276.806L231.633 280.786C231.968 281.252 231.866 281.903 231.405 282.24Z" fill="#6938EF"/>
<path d="M219.683 291.808C219.259 292.192 218.606 292.158 218.224 291.731L214.958 288.074C214.576 287.647 214.61 286.989 215.034 286.605C215.458 286.22 216.111 286.254 216.492 286.682L219.759 290.338C220.141 290.765 220.106 291.423 219.683 291.808Z" fill="#6938EF"/>
<path d="M209.016 302.557C208.634 302.984 207.981 303.019 207.557 302.634L203.93 299.342C203.506 298.958 203.472 298.3 203.853 297.872C204.235 297.445 204.888 297.411 205.312 297.795L208.939 301.087C209.363 301.472 209.397 302.13 209.016 302.557Z" fill="#6938EF"/>
<path d="M195.346 310.025C194.884 309.688 194.239 309.791 193.903 310.256C193.568 310.721 193.67 311.372 194.132 311.709L194.957 312.314H198.47L195.346 310.025Z" fill="#6938EF"/>
<path d="M194.132 487.766C193.67 488.104 193.568 488.755 193.903 489.22C194.239 489.685 194.884 489.788 195.346 489.45L198.47 487.163H194.956L194.132 487.766Z" fill="#6938EF"/>
<path d="M209.016 496.919C209.397 497.346 209.363 498.004 208.939 498.389L205.311 501.681C204.888 502.065 204.235 502.031 203.853 501.603C203.471 501.177 203.506 500.518 203.93 500.134L207.557 496.842C207.981 496.457 208.634 496.491 209.016 496.919Z" fill="#6938EF"/>
<path d="M219.682 507.668C220.106 508.053 220.14 508.711 219.759 509.138L216.492 512.794C216.111 513.222 215.458 513.256 215.034 512.872C214.61 512.487 214.576 511.829 214.958 511.402L218.224 507.745C218.606 507.318 219.258 507.283 219.682 507.668Z" fill="#6938EF"/>
<path d="M231.405 517.235C231.866 517.573 231.968 518.224 231.633 518.689L228.764 522.669C228.428 523.134 227.783 523.237 227.321 522.899C226.86 522.562 226.758 521.911 227.093 521.446L229.962 517.465C230.297 517 230.943 516.897 231.405 517.235Z" fill="#6938EF"/>
<path d="M257.494 532.416C258.015 532.65 258.249 533.265 258.017 533.79L256.032 538.285C255.8 538.81 255.189 539.046 254.669 538.812C254.148 538.578 253.913 537.963 254.145 537.438L256.131 532.944C256.363 532.419 256.973 532.182 257.494 532.416Z" fill="#6938EF"/>
<path d="M271.575 537.864C272.118 538.042 272.415 538.629 272.238 539.175L270.73 543.855C270.554 544.401 269.971 544.7 269.429 544.523C268.886 544.345 268.59 543.758 268.766 543.211L270.274 538.532C270.45 537.985 271.033 537.687 271.575 537.864Z" fill="#6938EF"/>
<path d="M286.145 541.799C286.703 541.918 287.059 542.471 286.94 543.033L285.926 547.846C285.807 548.408 285.259 548.767 284.701 548.647C284.143 548.528 283.787 547.975 283.906 547.413L284.92 542.601C285.039 542.038 285.587 541.679 286.145 541.799Z" fill="#6938EF"/>
<path d="M301.044 544.177C301.611 544.237 302.022 544.749 301.963 545.321L301.452 550.214C301.393 550.785 300.885 551.2 300.317 551.14C299.75 551.08 299.339 550.568 299.398 549.996L299.908 545.103C299.968 544.531 300.477 544.117 301.044 544.177Z" fill="#6938EF"/>
<path d="M331.17 544.177C331.737 544.117 332.245 544.532 332.305 545.103L332.815 549.996C332.875 550.568 332.463 551.08 331.896 551.14C331.329 551.2 330.821 550.785 330.761 550.214L330.251 545.321C330.191 544.749 330.602 544.237 331.17 544.177Z" fill="#6938EF"/>
<path d="M346.067 541.799C346.625 541.679 347.173 542.038 347.292 542.6L348.307 547.413C348.425 547.975 348.069 548.527 347.512 548.647C346.954 548.767 346.405 548.408 346.287 547.846L345.272 543.033C345.153 542.471 345.509 541.918 346.067 541.799Z" fill="#6938EF"/>
<path d="M360.637 537.864C361.179 537.687 361.762 537.985 361.938 538.532L363.446 543.211C363.623 543.758 363.325 544.345 362.783 544.523C362.241 544.701 361.658 544.401 361.482 543.855L359.974 539.175C359.798 538.629 360.094 538.042 360.637 537.864Z" fill="#6938EF"/>
<path d="M374.718 532.416C375.239 532.183 375.85 532.419 376.082 532.944L378.067 537.438C378.299 537.963 378.065 538.578 377.544 538.812C377.023 539.046 376.413 538.81 376.181 538.285L374.195 533.79C373.963 533.265 374.197 532.65 374.718 532.416Z" fill="#6938EF"/>
<path d="M400.809 517.235C401.27 516.897 401.916 517 402.251 517.465L405.12 521.445C405.456 521.91 405.353 522.561 404.892 522.899C404.431 523.237 403.785 523.134 403.449 522.669L400.58 518.688C400.245 518.224 400.347 517.573 400.809 517.235Z" fill="#6938EF"/>
<path d="M412.53 507.668C412.954 507.283 413.607 507.318 413.989 507.745L417.255 511.402C417.637 511.829 417.603 512.487 417.179 512.872C416.755 513.256 416.102 513.222 415.72 512.795L412.454 509.138C412.072 508.711 412.106 508.053 412.53 507.668Z" fill="#6938EF"/>
<path d="M423.197 496.919C423.578 496.492 424.231 496.457 424.655 496.842L428.283 500.134C428.707 500.518 428.741 501.176 428.359 501.603C427.978 502.03 427.325 502.065 426.901 501.68L423.273 498.388C422.85 498.004 422.815 497.346 423.197 496.919Z" fill="#6938EF"/>
<path d="M436.867 489.45C437.328 489.788 437.974 489.685 438.309 489.22C438.644 488.755 438.542 488.104 438.081 487.766L437.256 487.162H433.742L436.867 489.45Z" fill="#6938EF"/>
<path d="M438.081 311.71C438.542 311.372 438.644 310.721 438.309 310.256C437.974 309.791 437.328 309.688 436.867 310.026L433.742 312.314H437.256L438.081 311.71Z" fill="#6938EF"/>
<path d="M423.197 302.557C422.815 302.13 422.85 301.472 423.273 301.087L426.901 297.795C427.325 297.411 427.978 297.445 428.359 297.872C428.741 298.3 428.706 298.958 428.283 299.342L424.655 302.634C424.231 303.018 423.578 302.984 423.197 302.557Z" fill="#6938EF"/>
<path d="M412.53 291.808C412.106 291.423 412.072 290.765 412.454 290.338L415.72 286.682C416.102 286.254 416.755 286.22 417.179 286.605C417.603 286.989 417.637 287.647 417.255 288.074L413.989 291.731C413.607 292.157 412.954 292.192 412.53 291.808Z" fill="#6938EF"/>
<path d="M400.809 282.24C400.347 281.903 400.245 281.252 400.58 280.787L403.449 276.807C403.785 276.342 404.431 276.239 404.892 276.576C405.353 276.914 405.456 277.565 405.12 278.03L402.251 282.01C401.916 282.475 401.27 282.578 400.809 282.24Z" fill="#6938EF"/>
<path d="M374.718 267.06C374.197 266.826 373.963 266.211 374.195 265.686L376.181 261.191C376.413 260.666 377.023 260.43 377.544 260.664C378.065 260.897 378.299 261.513 378.067 262.037L376.082 266.532C375.85 267.057 375.239 267.293 374.718 267.06Z" fill="#6938EF"/>
<path d="M360.637 261.611C360.094 261.434 359.798 260.847 359.974 260.3L361.482 255.621C361.658 255.074 362.241 254.775 362.783 254.953C363.326 255.13 363.623 255.717 363.446 256.264L361.938 260.943C361.762 261.49 361.179 261.789 360.637 261.611Z" fill="#6938EF"/>
<path d="M346.067 257.677C345.509 257.557 345.153 257.005 345.272 256.442L346.287 251.63C346.405 251.068 346.954 250.709 347.512 250.829C348.07 250.948 348.426 251.5 348.307 252.063L347.292 256.875C347.174 257.438 346.625 257.796 346.067 257.677Z" fill="#6938EF"/>
<path d="M331.17 255.299C330.603 255.239 330.191 254.727 330.251 254.155L330.761 249.262C330.82 248.69 331.329 248.276 331.896 248.336C332.463 248.396 332.875 248.908 332.815 249.48L332.305 254.372C332.245 254.944 331.737 255.359 331.17 255.299Z" fill="#6938EF"/>
<path d="M135.4 381.755H127.984C125.968 381.755 124.456 381.179 123.448 380.027C122.44 378.923 121.936 377.531 121.936 375.851V370.739C119.056 370.451 116.44 369.683 114.088 368.435C111.736 367.187 109.744 365.483 108.112 363.323C106.48 361.115 105.208 358.475 104.296 355.403C103.432 352.283 103 348.755 103 344.819C103 340.595 103.504 336.875 104.512 333.659C105.52 330.443 106.936 327.731 108.76 325.523C110.632 323.315 112.864 321.659 115.456 320.555C118.096 319.403 121.048 318.827 124.312 318.827C127.528 318.827 130.456 319.403 133.096 320.555C135.736 321.659 137.968 323.315 139.792 325.523C141.664 327.731 143.104 330.443 144.112 333.659C145.12 336.875 145.624 340.595 145.624 344.819C145.624 352.547 144.016 358.595 140.8 362.963C137.584 367.283 133.216 369.827 127.696 370.595V376.715H135.4V381.755ZM124.312 365.411C126.472 365.411 128.464 365.027 130.288 364.259C132.112 363.491 133.672 362.387 134.968 360.947C136.312 359.507 137.344 357.779 138.064 355.763C138.784 353.747 139.144 351.491 139.144 348.995V340.643C139.144 338.147 138.784 335.891 138.064 333.875C137.344 331.859 136.312 330.131 134.968 328.691C133.672 327.251 132.112 326.147 130.288 325.379C128.464 324.611 126.472 324.227 124.312 324.227C122.152 324.227 120.16 324.611 118.336 325.379C116.512 326.147 114.928 327.251 113.584 328.691C112.288 330.131 111.28 331.859 110.56 333.875C109.84 335.891 109.48 338.147 109.48 340.643V348.995C109.48 351.491 109.84 353.747 110.56 355.763C111.28 357.779 112.288 359.507 113.584 360.947C114.928 362.387 116.512 363.491 118.336 364.259C120.16 365.027 122.152 365.411 124.312 365.411Z" fill="#344054"/>
<path d="M177.377 363.899H177.089C176.705 364.763 176.225 365.627 175.649 366.491C175.121 367.307 174.449 368.051 173.633 368.723C172.817 369.347 171.833 369.851 170.681 370.235C169.529 370.619 168.185 370.811 166.649 370.811C162.809 370.811 159.761 369.587 157.505 367.139C155.249 364.643 154.121 361.139 154.121 356.627V332.795H159.881V355.619C159.881 362.291 162.713 365.627 168.377 365.627C169.529 365.627 170.633 365.483 171.689 365.195C172.793 364.907 173.753 364.475 174.569 363.899C175.433 363.323 176.105 362.603 176.585 361.739C177.113 360.827 177.377 359.747 177.377 358.499V332.795H183.137V369.947H177.377V363.899Z" fill="#344054"/>
<path d="M207.93 370.811C205.386 370.811 203.082 370.355 201.018 369.443C199.002 368.531 197.25 367.235 195.762 365.555C194.322 363.827 193.194 361.787 192.378 359.435C191.61 357.035 191.226 354.347 191.226 351.371C191.226 348.443 191.61 345.779 192.378 343.379C193.194 340.979 194.322 338.939 195.762 337.259C197.25 335.531 199.002 334.211 201.018 333.299C203.082 332.387 205.386 331.931 207.93 331.931C210.426 331.931 212.658 332.387 214.626 333.299C216.594 334.211 218.274 335.483 219.666 337.115C221.058 338.699 222.114 340.595 222.834 342.803C223.602 345.011 223.986 347.435 223.986 350.075V352.811H197.274V354.539C197.274 356.123 197.514 357.611 197.994 359.003C198.522 360.347 199.242 361.523 200.154 362.531C201.114 363.539 202.266 364.331 203.61 364.907C205.002 365.483 206.562 365.771 208.29 365.771C210.642 365.771 212.682 365.219 214.41 364.115C216.186 363.011 217.554 361.427 218.514 359.363L222.618 362.315C221.418 364.859 219.546 366.923 217.002 368.507C214.458 370.043 211.434 370.811 207.93 370.811ZM207.93 336.755C206.346 336.755 204.906 337.043 203.61 337.619C202.314 338.147 201.186 338.915 200.226 339.923C199.314 340.931 198.594 342.131 198.066 343.523C197.538 344.867 197.274 346.355 197.274 347.987V348.491H217.794V347.699C217.794 344.387 216.882 341.747 215.058 339.779C213.282 337.763 210.906 336.755 207.93 336.755Z" fill="#344054"/>
<path d="M243.198 370.811C239.742 370.811 236.838 370.163 234.486 368.867C232.182 367.523 230.19 365.747 228.51 363.539L232.614 360.227C234.054 362.051 235.662 363.467 237.438 364.475C239.214 365.435 241.278 365.915 243.63 365.915C246.078 365.915 247.974 365.387 249.318 364.331C250.71 363.275 251.406 361.787 251.406 359.867C251.406 358.427 250.926 357.203 249.966 356.195C249.054 355.139 247.374 354.419 244.926 354.035L241.974 353.603C240.246 353.363 238.662 353.003 237.222 352.523C235.782 351.995 234.51 351.323 233.406 350.507C232.35 349.643 231.51 348.587 230.886 347.339C230.31 346.091 230.022 344.603 230.022 342.875C230.022 341.051 230.358 339.467 231.03 338.123C231.702 336.731 232.614 335.579 233.766 334.667C234.966 333.755 236.382 333.083 238.014 332.651C239.646 332.171 241.398 331.931 243.27 331.931C246.294 331.931 248.814 332.459 250.83 333.515C252.894 334.571 254.694 336.035 256.23 337.907L252.414 341.363C251.598 340.211 250.398 339.179 248.814 338.267C247.23 337.307 245.238 336.827 242.838 336.827C240.438 336.827 238.614 337.355 237.366 338.411C236.166 339.419 235.566 340.811 235.566 342.587C235.566 344.411 236.166 345.731 237.366 346.547C238.614 347.363 240.39 347.963 242.694 348.347L245.574 348.779C249.702 349.403 252.63 350.603 254.358 352.379C256.086 354.107 256.95 356.387 256.95 359.219C256.95 362.819 255.726 365.651 253.278 367.715C250.83 369.779 247.47 370.811 243.198 370.811Z" fill="#344054"/>
<path d="M273.4 369.947C271.384 369.947 269.848 369.395 268.792 368.291C267.784 367.139 267.28 365.651 267.28 363.827V337.835H261.16V332.795H264.616C265.864 332.795 266.704 332.555 267.136 332.075C267.616 331.547 267.856 330.659 267.856 329.411V322.499H273.04V332.795H281.176V337.835H273.04V364.907H280.6V369.947H273.4Z" fill="#344054"/>
<path d="M291.874 324.083C290.626 324.083 289.714 323.795 289.138 323.219C288.61 322.595 288.346 321.803 288.346 320.843V319.907C288.346 318.947 288.61 318.179 289.138 317.603C289.714 316.979 290.626 316.667 291.874 316.667C293.122 316.667 294.01 316.979 294.538 317.603C295.114 318.179 295.402 318.947 295.402 319.907V320.843C295.402 321.803 295.114 322.595 294.538 323.219C294.01 323.795 293.122 324.083 291.874 324.083ZM288.994 332.795H294.754V369.947H288.994V332.795Z" fill="#344054"/>
<path d="M319.594 370.811C317.098 370.811 314.818 370.355 312.754 369.443C310.69 368.531 308.914 367.235 307.426 365.555C305.986 363.827 304.858 361.787 304.042 359.435C303.226 357.035 302.818 354.347 302.818 351.371C302.818 348.443 303.226 345.779 304.042 343.379C304.858 340.979 305.986 338.939 307.426 337.259C308.914 335.531 310.69 334.211 312.754 333.299C314.818 332.387 317.098 331.931 319.594 331.931C322.09 331.931 324.346 332.387 326.362 333.299C328.426 334.211 330.202 335.531 331.69 337.259C333.178 338.939 334.33 340.979 335.146 343.379C335.962 345.779 336.37 348.443 336.37 351.371C336.37 354.347 335.962 357.035 335.146 359.435C334.33 361.787 333.178 363.827 331.69 365.555C330.202 367.235 328.426 368.531 326.362 369.443C324.346 370.355 322.09 370.811 319.594 370.811ZM319.594 365.699C322.714 365.699 325.258 364.739 327.226 362.819C329.194 360.899 330.178 357.971 330.178 354.035V348.707C330.178 344.771 329.194 341.843 327.226 339.923C325.258 338.003 322.714 337.043 319.594 337.043C316.474 337.043 313.93 338.003 311.962 339.923C309.994 341.843 309.01 344.771 309.01 348.707V354.035C309.01 357.971 309.994 360.899 311.962 362.819C313.93 364.739 316.474 365.699 319.594 365.699Z" fill="#344054"/>
<path d="M344.403 369.947V332.795H350.163V338.843H350.451C351.363 336.731 352.635 335.051 354.267 333.803C355.947 332.555 358.179 331.931 360.963 331.931C364.803 331.931 367.827 333.179 370.035 335.675C372.291 338.123 373.419 341.603 373.419 346.115V369.947H367.659V347.123C367.659 340.451 364.851 337.115 359.235 337.115C358.083 337.115 356.955 337.259 355.851 337.547C354.795 337.835 353.835 338.267 352.971 338.843C352.107 339.419 351.411 340.163 350.883 341.075C350.403 341.939 350.163 342.971 350.163 344.171V369.947H344.403Z" fill="#344054"/>
<path d="M383.885 369.947V332.795H389.645V338.843H389.933C390.845 336.731 392.117 335.051 393.749 333.803C395.429 332.555 397.661 331.931 400.445 331.931C404.285 331.931 407.309 333.179 409.517 335.675C411.773 338.123 412.901 341.603 412.901 346.115V369.947H407.141V347.123C407.141 340.451 404.333 337.115 398.717 337.115C397.565 337.115 396.437 337.259 395.333 337.547C394.277 337.835 393.317 338.267 392.453 338.843C391.589 339.419 390.893 340.163 390.365 341.075C389.885 341.939 389.645 342.971 389.645 344.171V369.947H383.885Z" fill="#344054"/>
<path d="M450.367 369.947C448.207 369.947 446.647 369.371 445.687 368.219C444.775 367.067 444.199 365.627 443.959 363.899H443.599C442.783 366.203 441.439 367.931 439.567 369.083C437.695 370.235 435.463 370.811 432.871 370.811C428.935 370.811 425.863 369.803 423.655 367.787C421.495 365.771 420.415 363.035 420.415 359.579C420.415 356.075 421.687 353.387 424.231 351.515C426.823 349.643 430.831 348.707 436.255 348.707H443.599V345.035C443.599 342.395 442.879 340.379 441.439 338.987C439.999 337.595 437.791 336.899 434.815 336.899C432.559 336.899 430.663 337.403 429.127 338.411C427.639 339.419 426.391 340.763 425.383 342.443L421.927 339.203C422.935 337.187 424.543 335.483 426.751 334.091C428.959 332.651 431.743 331.931 435.103 331.931C439.615 331.931 443.119 333.035 445.615 335.243C448.111 337.451 449.359 340.523 449.359 344.459V364.907H453.607V369.947H450.367ZM433.807 365.915C435.247 365.915 436.567 365.747 437.767 365.411C438.967 365.075 439.999 364.595 440.863 363.971C441.727 363.347 442.399 362.627 442.879 361.811C443.359 360.995 443.599 360.107 443.599 359.147V353.027H435.967C432.655 353.027 430.231 353.507 428.695 354.467C427.207 355.427 426.463 356.819 426.463 358.643V360.155C426.463 361.979 427.111 363.395 428.407 364.403C429.751 365.411 431.551 365.915 433.807 365.915Z" fill="#344054"/>
<path d="M463.268 324.083C462.02 324.083 461.108 323.795 460.532 323.219C460.004 322.595 459.74 321.803 459.74 320.843V319.907C459.74 318.947 460.004 318.179 460.532 317.603C461.108 316.979 462.02 316.667 463.268 316.667C464.516 316.667 465.404 316.979 465.932 317.603C466.508 318.179 466.796 318.947 466.796 319.907V320.843C466.796 321.803 466.508 322.595 465.932 323.219C465.404 323.795 464.516 324.083 463.268 324.083ZM460.388 332.795H466.148V369.947H460.388V332.795Z" fill="#344054"/>
<path d="M476.948 369.947V332.795H482.708V339.635H483.068C483.74 337.859 484.94 336.275 486.668 334.883C488.396 333.491 490.772 332.795 493.796 332.795H496.028V338.555H492.644C489.524 338.555 487.076 339.155 485.3 340.355C483.572 341.507 482.708 342.971 482.708 344.747V369.947H476.948Z" fill="#344054"/>
<path d="M515.562 370.811C513.018 370.811 510.714 370.355 508.65 369.443C506.634 368.531 504.882 367.235 503.394 365.555C501.954 363.827 500.826 361.787 500.01 359.435C499.242 357.035 498.858 354.347 498.858 351.371C498.858 348.443 499.242 345.779 500.01 343.379C500.826 340.979 501.954 338.939 503.394 337.259C504.882 335.531 506.634 334.211 508.65 333.299C510.714 332.387 513.018 331.931 515.562 331.931C518.058 331.931 520.29 332.387 522.258 333.299C524.226 334.211 525.906 335.483 527.298 337.115C528.69 338.699 529.746 340.595 530.466 342.803C531.234 345.011 531.618 347.435 531.618 350.075V352.811H504.906V354.539C504.906 356.123 505.146 357.611 505.626 359.003C506.154 360.347 506.874 361.523 507.786 362.531C508.746 363.539 509.898 364.331 511.242 364.907C512.634 365.483 514.194 365.771 515.922 365.771C518.274 365.771 520.314 365.219 522.042 364.115C523.818 363.011 525.186 361.427 526.146 359.363L530.25 362.315C529.05 364.859 527.178 366.923 524.634 368.507C522.09 370.043 519.066 370.811 515.562 370.811ZM515.562 336.755C513.978 336.755 512.538 337.043 511.242 337.619C509.946 338.147 508.818 338.915 507.858 339.923C506.946 340.931 506.226 342.131 505.698 343.523C505.17 344.867 504.906 346.355 504.906 347.987V348.491H525.426V347.699C525.426 344.387 524.514 341.747 522.69 339.779C520.914 337.763 518.538 336.755 515.562 336.755Z" fill="#344054"/>
<path d="M147.888 430.785H124.746V455.667H111.522V394.941H124.746V419.127H147.888V394.941H161.112V455.667H147.888V430.785ZM205.798 455.667C203.478 455.667 201.535 454.942 199.969 453.492C198.461 452.042 197.504 450.099 197.098 447.663H196.576C195.88 450.621 194.343 452.883 191.965 454.449C189.587 455.957 186.658 456.711 183.178 456.711C178.596 456.711 175.087 455.493 172.651 453.057C170.215 450.621 168.997 447.402 168.997 443.4C168.997 438.586 170.737 435.019 174.217 432.699C177.755 430.321 182.54 429.132 188.572 429.132H195.793V426.261C195.793 424.057 195.213 422.317 194.053 421.041C192.893 419.707 190.95 419.04 188.224 419.04C185.672 419.04 183.642 419.591 182.134 420.693C180.626 421.795 179.379 423.042 178.393 424.434L170.737 417.648C172.593 414.922 174.913 412.805 177.697 411.297C180.539 409.731 184.367 408.948 189.181 408.948C195.677 408.948 200.549 410.369 203.797 413.211C207.045 416.053 208.669 420.2 208.669 425.652V445.662H212.932V455.667H205.798ZM187.963 447.75C190.109 447.75 191.936 447.286 193.444 446.358C195.01 445.43 195.793 443.922 195.793 441.834V436.44H189.529C184.483 436.44 181.96 438.151 181.96 441.573V442.878C181.96 444.56 182.482 445.807 183.526 446.619C184.57 447.373 186.049 447.75 187.963 447.75ZM235.32 456.711C230.912 456.711 227.2 456.015 224.184 454.623C221.168 453.173 218.471 451.143 216.093 448.533L223.662 440.877C225.286 442.675 227.084 444.096 229.056 445.14C231.028 446.184 233.261 446.706 235.755 446.706C238.307 446.706 240.076 446.329 241.062 445.575C242.048 444.763 242.541 443.69 242.541 442.356C242.541 440.21 241.004 438.934 237.93 438.528L232.971 437.919C222.705 436.643 217.572 431.945 217.572 423.825C217.572 421.621 217.978 419.62 218.79 417.822C219.66 415.966 220.849 414.4 222.357 413.124C223.923 411.79 225.779 410.775 227.925 410.079C230.129 409.325 232.594 408.948 235.32 408.948C237.698 408.948 239.786 409.122 241.584 409.47C243.44 409.76 245.064 410.224 246.456 410.862C247.906 411.442 249.211 412.196 250.371 413.124C251.589 413.994 252.778 414.98 253.938 416.082L246.543 423.651C245.093 422.201 243.44 421.07 241.584 420.258C239.786 419.388 237.93 418.953 236.016 418.953C233.812 418.953 232.246 419.301 231.318 419.997C230.39 420.693 229.926 421.621 229.926 422.781C229.926 423.999 230.245 424.956 230.883 425.652C231.579 426.29 232.855 426.754 234.711 427.044L239.844 427.74C249.878 429.074 254.895 433.656 254.895 441.486C254.895 443.69 254.431 445.72 253.503 447.576C252.575 449.432 251.241 451.056 249.501 452.448C247.819 453.782 245.76 454.826 243.324 455.58C240.946 456.334 238.278 456.711 235.32 456.711ZM281.45 455.667V394.941H322.775V406.686H294.674V419.127H318.773V430.785H294.674V443.922H322.775V455.667H281.45ZM331.86 455.667V409.992H344.736V417.735H345.258C346.07 415.357 347.491 413.298 349.521 411.558C351.551 409.818 354.364 408.948 357.96 408.948C362.658 408.948 366.196 410.514 368.574 413.646C371.01 416.778 372.228 421.244 372.228 427.044V455.667H359.352V428.088C359.352 425.13 358.888 422.955 357.96 421.563C357.032 420.113 355.379 419.388 353.001 419.388C351.957 419.388 350.942 419.533 349.956 419.823C348.97 420.055 348.071 420.461 347.259 421.041C346.505 421.621 345.896 422.346 345.432 423.216C344.968 424.028 344.736 424.985 344.736 426.087V455.667H331.86ZM409.96 448.011H409.525C409.177 449.229 408.626 450.389 407.872 451.491C407.118 452.535 406.19 453.463 405.088 454.275C404.044 455.029 402.826 455.609 401.434 456.015C400.1 456.479 398.708 456.711 397.258 456.711C391.458 456.711 387.079 454.681 384.121 450.621C381.163 446.503 379.684 440.558 379.684 432.786C379.684 425.014 381.163 419.098 384.121 415.038C387.079 410.978 391.458 408.948 397.258 408.948C400.216 408.948 402.826 409.76 405.088 411.384C407.408 413.008 408.887 415.096 409.525 417.648H409.96V391.287H422.836V455.667H409.96V448.011ZM401.521 446.271C403.957 446.271 405.958 445.691 407.524 444.531C409.148 443.313 409.96 441.66 409.96 439.572V426.087C409.96 423.999 409.148 422.375 407.524 421.215C405.958 419.997 403.957 419.388 401.521 419.388C399.085 419.388 397.055 420.258 395.431 421.998C393.865 423.68 393.082 425.971 393.082 428.871V436.788C393.082 439.688 393.865 442.008 395.431 443.748C397.055 445.43 399.085 446.271 401.521 446.271ZM452.19 456.711C448.71 456.711 445.607 456.16 442.881 455.058C440.155 453.898 437.835 452.303 435.921 450.273C434.065 448.185 432.644 445.662 431.658 442.704C430.73 439.746 430.266 436.44 430.266 432.786C430.266 429.19 430.73 425.942 431.658 423.042C432.586 420.084 433.949 417.561 435.747 415.473C437.603 413.385 439.865 411.79 442.533 410.688C445.201 409.528 448.246 408.948 451.668 408.948C455.438 408.948 458.657 409.586 461.325 410.862C464.051 412.138 466.255 413.849 467.937 415.995C469.677 418.141 470.924 420.635 471.678 423.477C472.49 426.261 472.896 429.19 472.896 432.264V436.092H443.577V436.788C443.577 439.804 444.389 442.211 446.013 444.009C447.637 445.749 450.189 446.619 453.669 446.619C456.337 446.619 458.512 446.097 460.194 445.053C461.876 443.951 463.442 442.646 464.892 441.138L471.33 449.142C469.3 451.52 466.632 453.376 463.326 454.71C460.078 456.044 456.366 456.711 452.19 456.711ZM451.929 418.431C449.319 418.431 447.26 419.301 445.752 421.041C444.302 422.723 443.577 424.985 443.577 427.827V428.523H459.585V427.74C459.585 424.956 458.947 422.723 457.671 421.041C456.453 419.301 454.539 418.431 451.929 418.431ZM508.264 448.011H507.829C507.481 449.229 506.93 450.389 506.176 451.491C505.422 452.535 504.494 453.463 503.392 454.275C502.348 455.029 501.13 455.609 499.738 456.015C498.404 456.479 497.012 456.711 495.562 456.711C489.762 456.711 485.383 454.681 482.425 450.621C479.467 446.503 477.988 440.558 477.988 432.786C477.988 425.014 479.467 419.098 482.425 415.038C485.383 410.978 489.762 408.948 495.562 408.948C498.52 408.948 501.13 409.76 503.392 411.384C505.712 413.008 507.191 415.096 507.829 417.648H508.264V391.287H521.14V455.667H508.264V448.011ZM499.825 446.271C502.261 446.271 504.262 445.691 505.828 444.531C507.452 443.313 508.264 441.66 508.264 439.572V426.087C508.264 423.999 507.452 422.375 505.828 421.215C504.262 419.997 502.261 419.388 499.825 419.388C497.389 419.388 495.359 420.258 493.735 421.998C492.169 423.68 491.386 425.971 491.386 428.871V436.788C491.386 439.688 492.169 442.008 493.735 443.748C495.359 445.43 497.389 446.271 499.825 446.271Z" fill="#5925DC"/>
</svg>
