<svg width="20" height="20" viewBox="0 0 20 20" fill="none" xmlns="http://www.w3.org/2000/svg">
<g clip-path="url(#clip0_15584_84760)">
<path d="M19.1962 5.42418C18.688 4.38477 17.9411 3.50422 16.9762 2.80703C15.2657 1.57121 12.8534 0.917969 10 0.917969C7.1466 0.917969 4.73426 1.57117 3.02379 2.80703C2.05887 3.50422 1.31195 4.38477 0.803828 5.42418C0.270469 6.51527 0 7.78535 0 9.19922C0 12.2572 1.26113 14.5966 3.65684 16.0037C3.32543 17.1729 2.89543 17.8814 2.89156 17.8878L2.15004 19.08L3.55453 19.082H3.57105C4.0143 19.082 6.04785 18.9864 7.70133 17.3278C8.43023 17.4292 9.20148 17.4805 10 17.4805C12.8534 17.4805 15.2657 16.8272 16.9762 15.5914C17.9411 14.8942 18.688 14.0137 19.1962 12.9743C19.7295 11.8832 20 10.6131 20 9.19922C20 7.78535 19.7295 6.51523 19.1962 5.42418ZM16.0611 14.3249C14.6186 15.3671 12.5228 15.918 10 15.918C9.13316 15.918 8.30606 15.8521 7.5416 15.7223L7.1066 15.6484L6.81875 15.9828C6.20023 16.7012 5.48617 17.0848 4.88 17.289C5.06284 16.7947 5.21167 16.2885 5.32547 15.7739L5.45809 15.1755L4.90836 14.9043C2.6882 13.8092 1.5625 11.8897 1.5625 9.19922C1.5625 6.93738 2.36203 5.21285 3.93891 4.07355C5.38133 3.03137 7.47723 2.48047 10 2.48047C12.5228 2.48047 14.6187 3.03133 16.0611 4.07355C17.638 5.21285 18.4375 6.93742 18.4375 9.19922C18.4375 11.461 17.638 13.1855 16.0611 14.3249Z" fill="#6938EF"/>
</g>
<defs>
<clipPath id="clip0_15584_84760">
<rect width="20" height="20" fill="white"/>
</clipPath>
</defs>
</svg>
