<svg width="200" height="45" viewBox="0 0 200 45" fill="none" xmlns="http://www.w3.org/2000/svg">
<g clip-path="url(#clip0_16418_72038)">
<mask id="mask0_16418_72038" style="mask-type:luminance" maskUnits="userSpaceOnUse" x="0" y="0" width="200" height="45">
<path d="M0 5.72205e-05H199.963V44.2529H0V5.72205e-05Z" fill="white"/>
</mask>
<g mask="url(#mask0_16418_72038)">
<path d="M139.908 28.9826C141.254 28.9826 142.303 28.5436 143.054 27.6656C143.805 26.7873 144.181 25.5288 144.181 23.8897V20.8457C144.181 19.2065 143.805 17.948 143.054 17.07C142.303 16.192 141.254 15.7527 139.908 15.7527C138.561 15.7527 137.512 16.192 136.761 17.07C136.01 17.948 135.634 19.2065 135.634 20.8457V23.8897C135.634 25.5288 136.01 26.7873 136.761 27.6656C137.512 28.5436 138.561 28.9826 139.908 28.9826ZM139.908 32.9338C138.561 32.9338 137.332 32.7096 136.22 32.2608C135.107 31.8121 134.161 31.1439 133.381 30.2559C132.6 29.3682 131.995 28.2657 131.566 26.9484C131.136 25.6312 130.922 24.1047 130.922 22.3677C130.922 20.6312 131.136 19.1042 131.566 17.7872C131.995 16.4699 132.6 15.3677 133.381 14.4794C134.161 13.592 135.107 12.9238 136.22 12.4748C137.332 12.0261 138.561 11.8016 139.908 11.8016C141.254 11.8016 142.483 12.0261 143.596 12.4748C144.708 12.9238 145.654 13.592 146.435 14.4794C147.215 15.3677 147.82 16.4699 148.249 17.7872C148.678 19.1042 148.893 20.6312 148.893 22.3677C148.893 24.1047 148.678 25.6312 148.249 26.9484C147.82 28.2657 147.215 29.3682 146.435 30.2559C145.654 31.1439 144.708 31.8121 143.596 32.2608C142.483 32.7096 141.254 32.9338 139.908 32.9338Z" fill="#6938EF"/>
</g>
<mask id="mask1_16418_72038" style="mask-type:luminance" maskUnits="userSpaceOnUse" x="0" y="0" width="200" height="45">
<path d="M0 5.72205e-05H199.963V44.2529H0V5.72205e-05Z" fill="white"/>
</mask>
<g mask="url(#mask1_16418_72038)">
<path d="M151.391 32.9343V18.5321H155.451V21.6596H155.588C155.661 21.2575 155.789 20.8686 155.972 20.4937C156.155 20.119 156.397 19.785 156.699 19.4924C157.001 19.2 157.362 18.9666 157.783 18.7929C158.203 18.6191 158.697 18.5321 159.264 18.5321H159.977V22.3181H158.962C157.773 22.3181 156.891 22.4735 156.315 22.7842C155.739 23.0954 155.451 23.6713 155.451 24.5124V32.9343H151.391Z" fill="#6938EF"/>
</g>
<mask id="mask2_16418_72038" style="mask-type:luminance" maskUnits="userSpaceOnUse" x="0" y="0" width="200" height="45">
<path d="M0 5.72205e-05H199.963V44.2529H0V5.72205e-05Z" fill="white"/>
</mask>
<g mask="url(#mask2_16418_72038)">
<path d="M168.834 29.6425C169.602 29.6425 170.238 29.3729 170.741 28.8333C171.244 28.294 171.495 27.567 171.495 26.6525V24.156C171.495 23.2415 171.244 22.5148 170.741 21.975C170.238 21.4357 169.602 21.1657 168.834 21.1657C168.066 21.1657 167.431 21.3536 166.928 21.7283C166.425 22.1033 166.173 22.6196 166.173 23.2781V27.5302C166.173 28.1886 166.425 28.7055 166.928 29.0802C167.431 29.4552 168.066 29.6425 168.834 29.6425ZM162.113 11.8021H166.173V20.6173H166.311C166.511 19.8125 166.973 19.1543 167.696 18.6421C168.418 18.1303 169.246 17.8739 170.179 17.8739C172.007 17.8739 173.388 18.5144 174.321 19.7942C175.254 21.0746 175.72 22.94 175.72 25.3904C175.72 27.8414 175.254 29.7112 174.321 31.0005C173.388 32.2897 172.007 32.9343 170.179 32.9343C169.703 32.9343 169.255 32.8659 168.834 32.7287C168.413 32.5915 168.034 32.3995 167.696 32.1528C167.357 31.9056 167.069 31.6135 166.832 31.2748C166.594 30.9368 166.42 30.5751 166.311 30.1909H166.173V32.9343H162.113V11.8021Z" fill="#6938EF"/>
</g>
<mask id="mask3_16418_72038" style="mask-type:luminance" maskUnits="userSpaceOnUse" x="0" y="0" width="200" height="45">
<path d="M0 5.72205e-05H199.963V44.2529H0V5.72205e-05Z" fill="white"/>
</mask>
<g mask="url(#mask3_16418_72038)">
<path d="M178.79 18.5321H182.85V32.9343H178.79V18.5321ZM180.82 16.4106C179.997 16.4106 179.398 16.2233 179.024 15.8483C178.648 15.4736 178.461 14.9936 178.461 14.408V13.8044C178.461 13.2194 178.648 12.7394 179.024 12.3641C179.398 11.9897 179.997 11.8018 180.82 11.8018C181.643 11.8018 182.242 11.9897 182.617 12.3641C182.992 12.7394 183.179 13.2194 183.179 13.8044V14.408C183.179 14.9936 182.992 15.4736 182.617 15.8483C182.242 16.2233 181.643 16.4106 180.82 16.4106Z" fill="#6938EF"/>
</g>
<mask id="mask4_16418_72038" style="mask-type:luminance" maskUnits="userSpaceOnUse" x="0" y="0" width="200" height="45">
<path d="M0 5.72205e-05H199.963V44.2529H0V5.72205e-05Z" fill="white"/>
</mask>
<g mask="url(#mask4_16418_72038)">
<path d="M191.684 32.9343C190.276 32.9343 189.211 32.5776 188.488 31.8643C187.766 31.1512 187.405 30.1089 187.405 28.7371V21.687H185.375V18.5321H186.39C186.939 18.5321 187.313 18.3996 187.514 18.1344C187.716 17.8695 187.816 17.4895 187.816 16.9959V14.4434H191.465V18.5321H194.318V21.687H191.465V29.7794H194.098V32.9343H191.684Z" fill="#6938EF"/>
</g>
<mask id="mask5_16418_72038" style="mask-type:luminance" maskUnits="userSpaceOnUse" x="0" y="0" width="200" height="45">
<path d="M0 5.72205e-05H199.963V44.2529H0V5.72205e-05Z" fill="white"/>
</mask>
<g mask="url(#mask5_16418_72038)">
<path d="M76.1789 29.7679H76.0291C75.8686 30.8279 75.329 31.7077 74.4094 32.4072C73.4895 33.107 72.2395 33.4568 70.6603 33.4568C69.4608 33.4568 68.3403 33.227 67.3009 32.7674C66.261 32.3075 65.3514 31.6274 64.5717 30.7276C63.7917 29.8278 63.1816 28.7082 62.742 27.3682C62.3021 26.0289 62.082 24.4791 62.082 22.7193C62.082 20.9601 62.3119 19.4004 62.7721 18.0406C63.2317 16.6809 63.8766 15.5412 64.7065 14.6213C65.5361 13.7018 66.5309 13.0017 67.6909 12.5217C68.8504 12.042 70.1402 11.8018 71.5601 11.8018C73.4394 11.8018 75.059 12.2069 76.4188 13.0164C77.7785 13.8263 78.8483 15.0412 79.6283 16.6608L75.909 18.7903C75.5892 17.9707 75.0888 17.2756 74.4094 16.7057C73.7294 16.136 72.7794 15.851 71.5601 15.851C70.1402 15.851 69.0106 16.2611 68.1706 17.0806C67.331 17.9008 66.9109 19.1906 66.9109 20.9498V24.3092C66.9109 26.0486 67.331 27.3337 68.1706 28.1633C69.0106 28.9932 70.1402 29.408 71.5601 29.408C72.1195 29.408 72.6496 29.3431 73.1497 29.213C73.6494 29.0832 74.0893 28.8832 74.4696 28.6132C74.849 28.343 75.1443 28.0185 75.3544 27.6382C75.5641 27.2588 75.6691 26.8089 75.6691 26.2888V25.2391H71.7702V21.4295H80.0183V33.4568H76.1789V29.7679Z" fill="#6938EF"/>
</g>
<mask id="mask6_16418_72038" style="mask-type:luminance" maskUnits="userSpaceOnUse" x="0" y="0" width="200" height="45">
<path d="M0 5.72205e-05H199.963V44.2529H0V5.72205e-05Z" fill="white"/>
</mask>
<g mask="url(#mask6_16418_72038)">
<path d="M93.4179 21.5433C94.1209 21.5433 94.6743 21.3625 95.0776 21.0002C95.4809 20.6388 95.6824 20.106 95.6824 19.4027V18.0376C95.6824 17.3346 95.4809 16.8018 95.0776 16.4398C94.6743 16.0781 94.1209 15.897 93.4179 15.897H88.4539V21.5433H93.4179ZM88.4539 33.4568H83.7383V11.8015H94.0073C95 11.8015 95.8996 11.9676 96.7061 12.298C97.513 12.6293 98.2004 13.0999 98.7695 13.7097C99.3383 14.3201 99.7776 15.0491 100.088 15.897C100.398 16.7451 100.553 17.6859 100.553 18.72C100.553 20.1889 100.228 21.471 99.5761 22.567C98.9244 23.6636 97.9367 24.4596 96.6132 24.9558L100.864 33.4568H95.6205L91.8357 25.5143H88.4539V33.4568Z" fill="#6938EF"/>
</g>
<mask id="mask7_16418_72038" style="mask-type:luminance" maskUnits="userSpaceOnUse" x="0" y="0" width="200" height="45">
<path d="M0 5.72205e-05H199.963V44.2529H0V5.72205e-05Z" fill="white"/>
</mask>
<g mask="url(#mask7_16418_72038)">
<path d="M113.745 33.4568C112.325 33.4568 111.045 33.232 109.906 32.7821C108.766 32.3322 107.796 31.6625 106.996 30.7725C106.196 29.883 105.576 28.7734 105.137 27.4432C104.697 26.1138 104.477 24.5594 104.477 22.7795C104.477 21.02 104.697 19.4552 105.137 18.0852C105.576 16.716 106.196 15.5657 106.996 14.6361C107.796 13.7065 108.766 13.0017 109.906 12.5217C111.045 12.0417 112.325 11.8018 113.745 11.8018C115.684 11.8018 117.284 12.1969 118.543 12.9864C119.803 13.7767 120.813 15.0214 121.573 16.7207L117.644 18.7602C117.364 17.8804 116.929 17.1756 116.339 16.6458C115.749 16.1159 114.885 15.851 113.745 15.851C112.405 15.851 111.33 16.2858 110.52 17.1556C109.71 18.0253 109.305 19.2903 109.305 20.9495V24.3089C109.305 25.969 109.71 27.2334 110.52 28.1031C111.33 28.9729 112.405 29.4077 113.745 29.4077C114.864 29.4077 115.759 29.1033 116.429 28.4932C117.099 27.8833 117.594 27.1487 117.914 26.2885L121.633 28.448C120.853 30.0482 119.828 31.2823 118.559 32.1523C117.288 33.022 115.684 33.4568 113.745 33.4568Z" fill="#6938EF"/>
</g>
<mask id="mask8_16418_72038" style="mask-type:luminance" maskUnits="userSpaceOnUse" x="0" y="0" width="200" height="45">
<path d="M0 5.72205e-05H199.963V44.2529H0V5.72205e-05Z" fill="white"/>
</mask>
<g mask="url(#mask8_16418_72038)">
<path d="M26.6649 9.61665C22.9854 9.78304 19.3245 10.3212 15.7539 11.2266C16.777 14.8435 18.1742 18.3498 19.9205 21.6779C21.0778 22.0983 22.1933 22.4588 23.212 22.7612C21.3894 19.657 19.8904 16.3679 18.7495 12.9542C21.3572 12.4229 24.0065 12.0972 26.6649 11.9703V9.61665Z" fill="#6938EF"/>
</g>
<mask id="mask9_16418_72038" style="mask-type:luminance" maskUnits="userSpaceOnUse" x="0" y="0" width="200" height="45">
<path d="M0 5.72205e-05H199.963V44.2529H0V5.72205e-05Z" fill="white"/>
</mask>
<g mask="url(#mask9_16418_72038)">
<path d="M29.0803 36.0264C27.6621 34.6336 26.3224 33.1647 25.0615 31.6285C23.8186 31.3261 22.5415 30.9541 21.2109 30.4877C23.5254 33.6683 26.1631 36.6108 29.0803 39.2601C31.256 37.2852 33.2769 35.144 35.1226 32.862C34.1387 32.8275 33.1639 32.7812 32.1892 32.7095C31.1982 33.8577 30.1612 34.964 29.0803 36.0264Z" fill="#6938EF"/>
</g>
<mask id="mask10_16418_72038" style="mask-type:luminance" maskUnits="userSpaceOnUse" x="0" y="0" width="200" height="45">
<path d="M0 5.72205e-05H199.963V44.2529H0V5.72205e-05Z" fill="white"/>
</mask>
<g mask="url(#mask10_16418_72038)">
<path d="M29.2882 34.0952C29.7665 33.5987 30.2353 33.0927 30.6925 32.5776C29.4776 32.4531 28.2536 32.282 27.0039 32.0466C27.6114 32.7464 28.235 33.4276 28.877 34.0952L29.0826 34.3076L29.2882 34.0952Z" fill="#6938EF"/>
</g>
<path d="M51.5383 24.6831C50.5636 22.1955 47.3924 20.0958 43.6947 18.3959C43.6905 18.406 43.6861 18.416 43.682 18.426C44.932 15.3797 45.9241 12.2283 46.6372 9.00695L46.695 8.75057L46.4454 8.6721C44.3413 8.00919 41.916 7.37638 39.2045 6.89372C36.3729 6.39013 33.7767 6.14526 31.4968 6.05056V8.40422C33.4186 8.48742 35.5666 8.68125 37.8854 9.05563C40.0984 9.41112 42.1078 9.87312 43.8932 10.3676C42.7406 14.8297 41.0336 19.1352 38.8165 23.1726L35.7283 21.3919L35.5875 21.6435C34.8875 22.9068 34.1322 24.1426 33.3262 25.3436C34.1809 25.556 34.9916 25.7502 35.7651 25.921C36.0425 25.4891 36.3151 25.0572 36.5806 24.6185L39.6688 26.4016L39.8119 26.1614C41.1749 23.8833 42.3768 21.5149 43.412 19.0768C43.3952 19.117 43.379 19.1574 43.3619 19.1975C43.392 19.2137 43.4221 19.2344 43.4542 19.2553C44.6437 19.9896 45.794 20.8074 46.8912 21.7081C47.7158 22.4542 49.2195 23.803 49.6051 25.1103C49.6998 25.4292 49.7275 25.741 49.6653 26.0458C49.395 26.6302 48.6929 26.9698 48.0553 27.1798C47.2355 27.4524 46.3023 27.584 45.3668 27.6625C43.251 27.7734 41.1286 27.6763 39.0104 27.4433C38.1536 27.3486 37.2989 27.2306 36.4443 27.0943C36.0076 27.0252 35.569 26.9512 35.1323 26.8727C34.2918 26.7226 33.451 26.5585 32.6149 26.3806C31.0557 26.0529 29.5037 25.6879 27.9631 25.3159C26.2655 24.8633 24.5609 24.3943 22.8678 23.8771C21.8538 23.5676 20.8422 23.2396 19.8421 22.8861C19.3361 22.7106 18.8328 22.528 18.3316 22.3386C17.456 22.0037 16.5901 21.6503 15.733 21.2671C14.2411 20.6065 12.7814 19.8628 11.3724 19.0149C10.5617 18.4883 9.77395 17.9224 9.13877 17.2805C8.65376 16.786 8.15489 16.1488 8.13187 15.4974C8.15489 15.3679 8.19884 15.2478 8.25431 15.1324C8.86411 13.8391 11.1089 13.2546 12.3079 12.9313C12.381 12.9174 12.4545 12.9015 12.5256 12.8853C13.1968 15.1549 14.0075 17.382 14.9524 19.5533C16.031 20.0982 17.1397 20.5903 18.2322 21.0313C16.5508 17.6245 15.2179 14.0491 14.2686 10.3676C18.7057 9.13646 23.2905 8.46205 27.8961 8.36498V11.9288C31.7579 11.8433 35.6268 12.1852 39.4122 12.9543C38.5693 15.4788 37.5276 17.9387 36.308 20.3038L38.3451 21.4795C40.0429 18.2113 41.4056 14.7722 42.4057 11.2267C38.4377 10.2218 34.3588 9.66543 30.2657 9.57751V6.01132C23.8956 5.8821 17.5347 6.80817 11.4671 8.75057C11.6671 9.6734 11.8898 10.5909 12.135 11.5019C12.1341 11.4987 12.1332 11.4954 12.1323 11.4922C12.0813 11.4969 12.0306 11.5016 11.9798 11.5061L11.9751 11.5084C9.8595 11.7255 8.07641 12.2799 6.95386 13.3538C5.25839 15.01 5.98148 17.6593 7.25419 19.2713C9.78546 22.461 14.0886 25.2489 19.0915 27.3669C20.3224 27.8891 21.5951 28.3693 22.8955 28.8036C23.5446 29.0231 24.2027 29.2287 24.8633 29.4226C26.1292 29.7967 27.4111 30.1271 28.6977 30.4112C28.9124 30.4596 29.1296 30.5059 29.3443 30.5522C30.2359 30.7369 31.1251 30.9009 32.0119 31.0396C32.4807 31.1157 32.9474 31.1827 33.4118 31.2425C34.3449 31.3629 35.2686 31.4576 36.1788 31.5222C40.7681 31.8547 45.0225 31.462 48.2424 30.1687C48.4896 30.0692 48.7345 29.963 48.9699 29.8545C50.753 29.0208 52.4113 26.9881 51.5383 24.6831Z" fill="#6938EF"/>
</g>
<defs>
<clipPath id="clip0_16418_72038">
<rect width="200" height="44.2529" fill="white"/>
</clipPath>
</defs>
</svg>
