<svg width="691" height="794" viewBox="0 0 691 794" fill="none" xmlns="http://www.w3.org/2000/svg">
<g clip-path="url(#clip0_16418_72111)">
<rect width="691" height="793.333" rx="12" fill="#DEE7F9"/>
<g clip-path="url(#clip1_16418_72111)">
<path opacity="0.2" d="M709 -0.333374H-85V793.667H709V-0.333374Z" fill="#76AADB"/>
<path opacity="0.26" d="M709 447.213C709 447.213 661.009 361.669 617.588 349.476C574.168 337.283 600.83 282.967 529.988 269.666C529.988 269.666 497.232 262.462 478.189 294.053C459.144 325.645 443.148 364.996 405.06 355.574C366.973 346.151 367.734 382.176 333.455 388.827C299.177 395.477 266.421 383.285 240.521 324.537C214.621 265.787 192.943 260.858 148.349 268.96C70.0984 283.176 113.635 208.603 52.1143 212.395C-7.95023 216.098 -11.3644 192.074 -16.4429 185.053C-21.5197 178.032 -62.6553 165.47 -85 182.098V793.667H709V447.213Z" fill="url(#paint0_linear_16418_72111)"/>
<path opacity="0.26" d="M-85.0586 602.181C-85.0586 602.181 -37.0613 516.637 6.36575 504.444C49.7912 492.25 23.1271 437.934 93.9805 424.634C93.9805 424.634 126.739 417.428 145.786 449.018C164.832 480.611 180.831 519.962 218.924 510.539C257.017 501.116 256.257 537.143 290.54 543.792C324.823 550.442 357.584 538.249 383.487 479.501C409.392 420.753 431.072 415.824 475.674 423.926C553.934 438.14 510.392 363.568 571.921 367.362C631.995 371.063 635.409 347.04 640.489 340.019C645.568 332.999 686.708 320.436 709.057 337.064V793.667H-85.0586V602.181Z" fill="url(#paint1_linear_16418_72111)"/>
<path d="M135 678.531V691.067C135 691.067 135.475 695.585 144.034 695.585H516.23C516.735 695.585 517.235 695.553 517.738 695.493C519.077 695.331 521.87 694.961 524.143 694.438C526.051 694 527.411 692.315 527.411 690.359V678.719L135.303 678.228C135.137 678.228 135 678.364 135 678.531Z" fill="#A4A4A8"/>
<path d="M507.164 645.021H155.252C152.122 645.021 149.562 642.461 149.562 639.331V417.773C149.562 408.506 157.144 400.925 166.411 400.925H496.005C505.273 400.925 512.854 408.506 512.854 417.773V639.331C512.854 642.461 510.293 645.021 507.164 645.021Z" fill="#1D1C22" stroke="#AFAFAF" stroke-width="1.588" stroke-miterlimit="10"/>
<path d="M493.958 630.635H168.453C165.542 630.635 163.16 628.253 163.16 625.342V421.87C163.16 418.96 165.542 416.578 168.453 416.578H493.958C496.869 416.578 499.251 418.96 499.251 421.87V625.342C499.251 628.253 496.869 630.635 493.958 630.635Z" fill="#76AADB"/>
<path opacity="0.5" d="M493.958 630.635H168.453C165.542 630.635 163.16 628.253 163.16 625.342V421.87C163.16 418.96 165.542 416.578 168.453 416.578H493.958C496.869 416.578 499.251 418.96 499.251 421.87V625.342C499.251 628.253 496.869 630.635 493.958 630.635Z" fill="url(#paint2_linear_16418_72111)"/>
<path d="M513.876 649.097C513.573 648.438 513.392 647.735 513.198 647.033C512.828 645.693 511.592 644.702 510.141 644.702H346.723H315.702H152.284C150.831 644.702 149.598 645.693 149.228 647.033C149.035 647.733 148.854 648.438 148.55 649.097L135.008 678.464C135.008 680.208 136.434 681.634 138.177 681.634H319.888H342.539H524.249C525.88 681.634 527.234 680.386 527.401 678.799C527.425 678.58 527.371 678.361 527.279 678.163L513.876 649.097Z" fill="#83878A"/>
<path d="M389.579 667.847H347.642H314.859H272.922L269.922 676.501H314.859H347.642H393.814L389.579 667.847Z" fill="#565B5F"/>
<path d="M491.244 648.191H335.674H330.286H173.601L167.66 665.625H330.286H335.674H498.301L491.244 648.191Z" fill="#080A10"/>
<path d="M171.713 652.907H493.486" stroke="#858585" stroke-width="1.588" stroke-miterlimit="10"/>
<path d="M169.85 659.207H495.704" stroke="#858585" stroke-width="1.588" stroke-miterlimit="10"/>
<path opacity="0.08" d="M151.348 513.085V477.739C151.348 474.741 153.801 472.286 156.799 472.286C159.797 472.286 162.251 474.741 162.251 477.739V513.085C162.251 516.085 159.797 518.538 156.799 518.538C153.801 518.537 151.348 516.083 151.348 513.085Z" fill="white"/>
<path d="M471.697 611.384H378.281C376.006 611.384 374.162 609.538 374.162 607.263V431.914C374.162 429.639 376.006 427.795 378.281 427.795H471.697C473.973 427.795 475.816 429.64 475.816 431.914V607.264C475.815 609.538 473.971 611.384 471.697 611.384Z" fill="#EDEEF0"/>
<g opacity="0.72">
<path d="M464.895 442.193H385.34V455.153H464.895V442.193Z" fill="white"/>
<path d="M462.995 475.465H387.239C386.189 475.465 385.34 474.614 385.34 473.564V464.406C385.34 463.356 386.189 462.505 387.239 462.505H462.995C464.044 462.505 464.894 463.356 464.894 464.406V473.564C464.895 474.614 464.044 475.465 462.995 475.465Z" fill="white"/>
<path d="M462.995 495.777H387.239C386.189 495.777 385.34 494.927 385.34 493.878V484.718C385.34 483.67 386.189 482.819 387.239 482.819H462.995C464.044 482.819 464.894 483.67 464.894 484.718V493.878C464.895 494.927 464.044 495.777 462.995 495.777Z" fill="white"/>
<path d="M428.899 516.091H387.239C386.189 516.091 385.34 515.24 385.34 514.192V505.032C385.34 503.982 386.189 503.133 387.239 503.133H428.899C429.948 503.133 430.798 503.982 430.798 505.032V514.192C430.8 515.24 429.95 516.091 428.899 516.091Z" fill="white"/>
<path d="M462.995 536.404H387.239C386.189 536.404 385.34 535.553 385.34 534.505V525.346C385.34 524.296 386.189 523.446 387.239 523.446H462.995C464.044 523.446 464.894 524.296 464.894 525.346V534.505C464.895 535.553 464.044 536.404 462.995 536.404Z" fill="white"/>
<path d="M462.995 556.716H387.239C386.189 556.716 385.34 555.867 385.34 554.817V545.658C385.34 544.609 386.189 543.758 387.239 543.758H462.995C464.044 543.758 464.894 544.609 464.894 545.658V554.817C464.895 555.867 464.044 556.716 462.995 556.716Z" fill="white"/>
<path d="M434.839 577.03H387.239C386.189 577.03 385.34 576.179 385.34 575.131V565.971C385.34 564.922 386.189 564.072 387.239 564.072H434.839C435.889 564.072 436.739 564.922 436.739 565.971V575.131C436.739 576.179 435.889 577.03 434.839 577.03Z" fill="white"/>
</g>
<path d="M401.179 594.104C401.179 597.682 398.279 600.583 394.7 600.583C391.122 600.583 388.221 597.682 388.221 594.104C388.221 590.525 391.122 587.624 394.7 587.624C398.278 587.624 401.179 590.525 401.179 594.104Z" fill="white"/>
<path d="M423.018 594.105C423.018 597.682 420.117 600.584 416.539 600.584C412.96 600.584 410.059 597.682 410.059 594.105C410.059 590.525 412.96 587.624 416.539 587.624C420.117 587.624 423.018 590.525 423.018 594.105Z" fill="white"/>
<path d="M444.857 594.104C444.857 597.682 441.957 600.583 438.378 600.583C434.798 600.583 431.898 597.682 431.898 594.104C431.898 590.525 434.798 587.624 438.378 587.624C441.957 587.624 444.857 590.525 444.857 594.104Z" fill="white"/>
<path d="M466.696 594.104C466.696 597.682 463.795 600.583 460.215 600.583C456.638 600.583 453.736 597.682 453.736 594.104C453.736 590.525 456.638 587.624 460.215 587.624C463.795 587.624 466.696 590.525 466.696 594.104Z" fill="white"/>
<path d="M319.661 521.311L304.845 534.954C285.423 552.838 254.898 551.58 237.014 532.155C219.13 512.731 220.388 482.208 239.81 464.322L254.627 450.682C267.351 438.965 287.35 439.789 299.067 452.514L321.494 476.871C333.212 489.595 332.388 509.595 319.661 521.311Z" fill="#F0D19A"/>
<path d="M423.228 344.826L315.036 227.329L185.363 443.585L205.661 463.17L423.228 344.826Z" fill="#C64832"/>
<path opacity="0.5" d="M423.228 344.826L315.036 227.329L185.363 443.585L205.661 463.17L423.228 344.826Z" fill="url(#paint3_linear_16418_72111)"/>
<path d="M276.851 447.491L252.045 422.841L234.113 440.885L286.887 493.329C291.87 498.28 299.925 498.256 304.876 493.273C309.829 488.29 309.804 480.236 304.821 475.284L290.88 461.431L276.851 447.491Z" fill="#C64832"/>
<path d="M244.805 524.341V630.635H297.88V524.341H244.805Z" fill="#F0D19A"/>
<path d="M300.489 439.85L273.922 464.311C269.835 468.076 262.97 467.332 258.668 462.66C254.364 457.988 254.19 451.085 258.277 447.32L284.843 422.858C288.93 419.093 295.795 419.838 300.099 424.51C304.401 429.183 304.577 436.086 300.489 439.85Z" fill="#F5DBAB"/>
<path d="M317.133 455.669L282.391 487.661C277.717 491.963 270.374 491.661 266.072 486.988C261.77 482.316 262.072 474.973 266.746 470.67L301.488 438.678C306.16 434.376 313.504 434.679 317.806 439.351C322.108 444.023 321.806 451.368 317.133 455.669Z" fill="#F5DBAB"/>
<path d="M332.656 472.524L297.913 504.516C293.241 508.818 285.898 508.516 281.594 503.843C277.291 499.171 277.594 491.828 282.268 487.525L317.012 455.534C321.683 451.231 329.026 451.533 333.33 456.206C337.632 460.88 337.328 468.223 332.656 472.524Z" fill="#F5DBAB"/>
<path d="M344.206 493.034L318.667 516.55C313.995 520.854 306.652 520.552 302.348 515.877C298.045 511.205 298.348 503.862 303.02 499.56L328.56 476.042C333.232 471.74 340.575 472.043 344.878 476.715C349.18 481.387 348.878 488.732 344.206 493.034Z" fill="#F5DBAB"/>
<path d="M266.341 479.964L237.464 485.968C229.206 487.685 221.047 482.333 219.33 474.077C217.614 465.82 222.965 457.659 231.221 455.942L260.099 449.938C268.355 448.222 276.516 453.573 278.232 461.829C279.949 470.088 274.598 478.248 266.341 479.964Z" fill="#F6E0B0"/>
<path d="M209.975 468.778C206.588 472.092 201.156 472.034 197.842 468.646L180.264 450.681C176.95 447.294 177.009 441.863 180.396 438.547C183.783 435.233 189.216 435.292 192.53 438.679L210.107 456.644C213.421 460.033 213.361 465.462 209.975 468.778Z" fill="#D84D3A"/>
<path d="M433.598 349.132C430.211 352.446 424.778 352.388 421.464 349L309.178 234.247C305.864 230.861 305.923 225.429 309.31 222.114C312.697 218.8 318.13 218.859 321.444 222.246L433.73 336.998C437.044 340.387 436.985 345.818 433.598 349.132Z" fill="#D84D3A"/>
<path d="M281.446 169.295C281.446 169.295 247.593 92.7822 302.858 78.9666C358.127 65.1494 317.668 -0.333374 317.668 -0.333374H688.206V347.972C688.206 347.972 655.398 289.554 598.595 323.33C541.792 357.103 484.402 352.352 463.204 313.278C442.005 274.203 393.732 284.047 393.732 284.047L281.446 169.295Z" fill="#76AADB"/>
<path opacity="0.5" d="M281.446 169.295C281.446 169.295 247.593 92.7822 302.858 78.9666C358.127 65.1494 317.668 -0.333374 317.668 -0.333374H688.206V347.972C688.206 347.972 655.398 289.554 598.595 323.33C541.792 357.103 484.402 352.352 463.204 313.278C442.005 274.203 393.732 284.047 393.732 284.047L281.446 169.295Z" fill="url(#paint4_linear_16418_72111)"/>
<path d="M551.658 245.934L554.429 245.478C555.668 245.273 556.51 244.103 556.305 242.864L555.425 237.52C555.222 236.28 554.051 235.442 552.811 235.645L549.73 236.152C549.094 236.256 548.481 235.92 548.19 235.342C547.464 233.892 546.586 232.539 545.583 231.297C545.157 230.771 545.12 230.033 545.527 229.493L547.205 227.257C547.96 226.252 547.756 224.826 546.751 224.072L542.419 220.821C541.414 220.065 539.99 220.27 539.234 221.275L537.355 223.776C536.968 224.294 536.288 224.475 535.68 224.256C534.182 223.717 532.615 223.333 531.003 223.125C530.333 223.038 529.798 222.531 529.717 221.861L529.383 219.095C529.232 217.848 528.1 216.957 526.852 217.108L521.475 217.756C520.229 217.905 519.338 219.039 519.488 220.287L519.863 223.405C519.941 224.046 519.576 224.648 518.985 224.912C517.005 225.796 515.191 226.952 513.58 228.332C513.079 228.759 512.346 228.769 511.814 228.383L509.363 226.598C508.345 225.86 506.924 226.082 506.184 227.098L502.996 231.476C502.257 232.493 502.481 233.916 503.496 234.656L506.322 236.712C506.838 237.088 507.032 237.755 506.832 238.362C506.103 240.584 505.722 242.947 505.73 245.379C505.732 246.056 505.297 246.653 504.642 246.82L501.92 247.514C500.702 247.823 499.967 249.064 500.278 250.28L501.616 255.528C501.925 256.746 503.164 257.482 504.38 257.172L507.415 256.399C508.042 256.238 508.682 256.522 509.019 257.073C509.864 258.453 510.848 259.73 511.957 260.885C512.425 261.372 512.524 262.104 512.166 262.676L510.691 265.044C510.026 266.109 510.351 267.513 511.417 268.178L516.014 271.045C517.079 271.708 518.483 271.383 519.149 270.317L520.807 267.657C521.148 267.11 521.809 266.87 522.434 267.035C523.97 267.44 525.559 267.691 527.189 267.759C527.864 267.788 528.442 268.247 528.578 268.907L529.15 271.639C529.407 272.868 530.614 273.657 531.842 273.4L537.144 272.291C538.373 272.034 539.162 270.829 538.903 269.598L538.26 266.524C538.128 265.892 538.44 265.263 539.003 264.95C540.418 264.164 541.73 263.235 542.927 262.18C543.434 261.734 544.169 261.664 544.728 262.047L547.043 263.633C548.079 264.343 549.495 264.08 550.205 263.043L553.267 258.574C553.977 257.539 553.713 256.122 552.676 255.412L550.088 253.639C549.556 253.273 549.344 252.605 549.537 251.987C550.005 250.471 550.313 248.894 550.448 247.274C550.508 246.602 550.993 246.043 551.658 245.934ZM530.43 253.316C524.279 255.1 518.288 250.399 518.561 243.999C518.728 240.125 521.421 236.691 525.145 235.612C531.295 233.827 537.288 238.529 537.015 244.927C536.85 248.802 534.154 252.235 530.43 253.316Z" fill="#EDEEF0"/>
<path d="M607.704 263.222L610.475 262.766C611.714 262.563 612.556 261.391 612.351 260.152L611.471 254.809C611.268 253.57 610.098 252.73 608.859 252.933L605.778 253.44C605.141 253.545 604.528 253.207 604.238 252.63C603.512 251.18 602.634 249.827 601.63 248.585C601.206 248.06 601.17 247.321 601.576 246.781L603.255 244.546C604.009 243.54 603.806 242.114 602.801 241.36L598.469 238.109C597.463 237.355 596.037 237.558 595.283 238.562L593.404 241.065C593.015 241.582 592.337 241.763 591.729 241.544C590.232 241.006 588.664 240.622 587.052 240.414C586.382 240.326 585.846 239.82 585.765 239.15L585.431 236.383C585.28 235.137 584.148 234.246 582.9 234.397L577.523 235.045C576.276 235.195 575.385 236.328 575.536 237.576L575.911 240.693C575.989 241.335 575.624 241.936 575.033 242.2C573.053 243.085 571.238 244.241 569.626 245.621C569.127 246.048 568.392 246.057 567.862 245.671L565.41 243.887C564.393 243.148 562.97 243.37 562.232 244.387L559.043 248.766C558.305 249.783 558.529 251.206 559.544 251.946L562.37 254.002C562.886 254.378 563.08 255.045 562.88 255.654C562.149 257.875 561.77 260.237 561.776 262.671C561.779 263.346 561.346 263.945 560.69 264.111L557.968 264.804C556.75 265.113 556.015 266.354 556.325 267.57L557.663 272.818C557.973 274.036 559.212 274.772 560.428 274.462L563.463 273.689C564.09 273.53 564.73 273.812 565.067 274.363C565.911 275.743 566.896 277.02 568.004 278.175C568.471 278.662 568.571 279.393 568.214 279.966L566.737 282.334C566.073 283.399 566.397 284.803 567.465 285.468L572.06 288.333C573.126 288.998 574.53 288.671 575.195 287.607L576.853 284.947C577.194 284.4 577.855 284.16 578.479 284.325C580.014 284.731 581.604 284.981 583.232 285.049C583.908 285.078 584.485 285.537 584.623 286.197L585.195 288.929C585.452 290.158 586.657 290.947 587.886 290.69L593.188 289.581C594.416 289.324 595.205 288.119 594.948 286.888L594.305 283.815C594.173 283.183 594.484 282.556 595.048 282.242C596.461 281.457 597.775 280.526 598.972 279.472C599.479 279.026 600.214 278.956 600.771 279.339L603.088 280.923C604.123 281.635 605.54 281.37 606.25 280.333L609.311 275.866C610.021 274.829 609.756 273.414 608.721 272.702L606.132 270.929C605.6 270.563 605.389 269.895 605.581 269.277C606.05 267.761 606.356 266.184 606.493 264.564C606.553 263.889 607.037 263.332 607.704 263.222ZM586.476 270.605C580.326 272.39 574.334 267.687 574.607 261.289C574.771 257.415 577.467 253.981 581.191 252.9C587.341 251.115 593.333 255.817 593.06 262.215C592.895 266.09 590.2 269.523 586.476 270.605Z" fill="white"/>
<path d="M592.413 206.653L595.184 206.197C596.424 205.992 597.263 204.822 597.06 203.583L596.18 198.239C595.977 196.999 594.806 196.159 593.566 196.364L590.485 196.871C589.849 196.975 589.234 196.637 588.945 196.061C588.219 194.611 587.341 193.258 586.336 192.018C585.91 191.492 585.875 190.754 586.282 190.212L587.96 187.976C588.715 186.971 588.511 185.545 587.506 184.791L583.174 181.54C582.169 180.786 580.743 180.987 579.989 181.994L578.11 184.495C577.723 185.013 577.043 185.194 576.435 184.975C574.936 184.437 573.37 184.052 571.758 183.844C571.088 183.757 570.551 183.25 570.47 182.58L570.137 179.814C569.986 178.566 568.852 177.676 567.605 177.827L562.227 178.475C560.98 178.625 560.091 179.758 560.242 181.005L560.617 184.122C560.694 184.765 560.329 185.366 559.738 185.629C557.76 186.514 555.943 187.67 554.331 189.05C553.833 189.477 553.099 189.488 552.565 189.101L550.115 187.316C549.099 186.577 547.678 186.801 546.936 187.816L543.749 192.194C543.009 193.21 543.234 194.633 544.249 195.373L547.076 197.431C547.592 197.808 547.784 198.475 547.584 199.081C546.857 201.303 546.475 203.666 546.483 206.099C546.485 206.775 546.051 207.372 545.397 207.539L542.674 208.231C541.456 208.541 540.722 209.781 541.032 210.997L542.369 216.246C542.679 217.464 543.919 218.199 545.135 217.889L548.168 217.116C548.796 216.957 549.437 217.24 549.774 217.791C550.617 219.169 551.602 220.448 552.712 221.602C553.178 222.09 553.278 222.822 552.921 223.393L551.444 225.761C550.781 226.827 551.104 228.23 552.172 228.896L556.766 231.761C557.833 232.424 559.237 232.1 559.9 231.033L561.558 228.373C561.901 227.824 562.562 227.586 563.186 227.751C564.72 228.156 566.311 228.407 567.939 228.475C568.614 228.504 569.192 228.963 569.33 229.623L569.902 232.355C570.159 233.584 571.364 234.373 572.593 234.116L577.894 233.006C579.125 232.748 579.914 231.543 579.655 230.312L579.012 227.238C578.88 226.606 579.19 225.977 579.755 225.664C581.168 224.88 582.482 223.951 583.679 222.895C584.184 222.449 584.921 222.38 585.48 222.761L587.794 224.348C588.831 225.058 590.247 224.794 590.957 223.757L594.019 219.29C594.727 218.255 594.463 216.838 593.428 216.127L590.839 214.355C590.306 213.989 590.096 213.321 590.287 212.703C590.755 211.186 591.065 209.61 591.201 207.99C591.262 207.321 591.746 206.762 592.413 206.653ZM571.185 214.035C565.036 215.82 559.043 211.118 559.316 204.72C559.481 200.845 562.178 197.412 565.9 196.332C572.049 194.547 578.042 199.249 577.769 205.648C577.603 209.521 574.909 212.954 571.185 214.035Z" fill="#EDEEF0"/>
<path opacity="0.24" d="M578.385 232.78L571.814 234.355C571.509 234.428 571.2 234.239 571.127 233.934L570.539 231.479C570.466 231.174 570.655 230.865 570.96 230.793L577.533 229.218C577.838 229.145 578.147 229.334 578.22 229.639L578.808 232.094C578.881 232.399 578.69 232.707 578.385 232.78Z" fill="#EDEEF0"/>
<path opacity="0.24" d="M544.354 209.212L545.838 215.806C545.908 216.111 545.714 216.417 545.409 216.485L542.944 217.04C542.639 217.109 542.331 216.914 542.263 216.609L540.78 210.016C540.71 209.711 540.904 209.404 541.21 209.335L543.675 208.78C543.98 208.714 544.285 208.907 544.354 209.212Z" fill="#EDEEF0"/>
<path d="M562.508 122.657L399.098 170.762C396.274 171.595 393.284 169.964 392.451 167.14L362.777 66.342C361.947 63.5185 363.578 60.5283 366.399 59.6978L529.813 11.5909C532.635 10.7604 535.625 12.3897 536.457 15.2147L566.13 116.013C566.961 118.836 565.331 121.827 562.508 122.657Z" fill="white"/>
<path d="M443.431 144.016L406 155.035C403.761 155.694 401.387 154.401 400.73 152.161L379.487 80.0035C378.827 77.7629 380.119 75.3904 382.36 74.7314L419.791 63.7123C422.031 63.0517 424.404 64.3459 425.064 66.5865L446.306 138.744C446.966 140.983 445.672 143.355 443.431 144.016Z" fill="#F7F7F8"/>
<path d="M497.194 128.19L459.763 139.209C457.522 139.869 455.15 138.575 454.491 136.335L433.248 64.1775C432.589 61.9368 433.882 59.5643 436.123 58.9053L473.553 47.8862C475.794 47.2272 478.166 48.5198 478.827 50.7605L500.068 122.918C500.727 125.157 499.433 127.531 497.194 128.19Z" fill="#F7F7F8"/>
<path d="M550.953 112.364L513.522 123.383C511.282 124.042 508.911 122.749 508.252 120.509L487.007 48.3516C486.35 46.1109 487.641 43.7384 489.883 43.0794L527.314 32.0603C529.553 31.4012 531.927 32.6939 532.586 34.9345L553.829 107.092C554.488 109.331 553.194 111.703 550.953 112.364Z" fill="#F7F7F8"/>
<path d="M363.958 70.2691L537.613 19.1466L536.537 15.491C536.537 15.491 535.8 12.4627 533.21 11.2828C530.62 10.1014 528.782 10.654 528.354 10.7715C527.925 10.889 367.515 58.1114 367.515 58.1114C367.515 58.1114 365.118 58.5814 363.457 61.3668C361.772 64.1902 363.113 67.4075 363.113 67.4075L363.958 70.2691Z" fill="#EDEDED"/>
<path d="M374.107 61.724C374.391 62.688 373.838 63.7027 372.873 63.9869C371.907 64.2712 370.894 63.7186 370.61 62.7531C370.326 61.7876 370.878 60.7744 371.844 60.4902C372.809 60.2059 373.822 60.7569 374.107 61.724Z" fill="#E6332A"/>
<path d="M384.118 58.7751C384.403 59.7406 383.85 60.7537 382.886 61.038C381.922 61.3223 380.907 60.7696 380.622 59.8041C380.337 58.8386 380.89 57.8255 381.855 57.5412C382.821 57.2586 383.834 57.8096 384.118 58.7751Z" fill="#74C8D6"/>
<path d="M394.132 55.8278C394.418 56.7933 393.864 57.8065 392.9 58.0907C391.936 58.375 390.923 57.824 390.637 56.8569C390.353 55.8929 390.904 54.8782 391.871 54.594C392.835 54.3113 393.848 54.8623 394.132 55.8278Z" fill="#FADD74"/>
<path d="M515.594 23.1547L404.133 55.9675C402.611 56.4154 401.014 55.5451 400.566 54.0238C400.12 52.5025 400.99 50.9066 402.511 50.4572L513.975 17.6443C515.496 17.1965 517.092 18.0668 517.54 19.5881C517.986 21.1094 517.116 22.7069 515.594 23.1547Z" fill="white"/>
<path d="M421.595 70.6877L385.023 81.4536L385.823 84.1713L422.395 73.4053L421.595 70.6877Z" fill="white"/>
<path d="M423.197 76.1174L386.625 86.8834L387.425 89.6011L423.997 78.8351L423.197 76.1174Z" fill="white"/>
<path d="M424.794 81.5589L388.223 92.3248L389.023 95.0425L425.594 84.2765L424.794 81.5589Z" fill="white"/>
<path d="M426.396 86.9854L389.824 97.7513L390.624 100.469L427.196 89.7031L426.396 86.9854Z" fill="white"/>
<path d="M413.663 96.6375L391.422 103.185L392.222 105.903L414.463 99.3552L413.663 96.6375Z" fill="white"/>
<path d="M429.593 97.8637L393.023 108.629L393.823 111.347L430.393 100.581L429.593 97.8637Z" fill="white"/>
<path d="M431.195 103.293L394.623 114.059L395.423 116.777L431.995 106.011L431.195 103.293Z" fill="white"/>
<path d="M432.793 108.734L396.223 119.499L397.023 122.217L433.593 111.452L432.793 108.734Z" fill="white"/>
<path d="M434.396 114.152L397.824 124.918L398.624 127.636L435.196 116.87L434.396 114.152Z" fill="white"/>
<path d="M422.188 123.668L399.424 130.369L400.224 133.087L422.988 126.386L422.188 123.668Z" fill="white"/>
<path d="M437.595 125.042L401.023 135.808L401.823 138.526L438.395 127.76L437.595 125.042Z" fill="white"/>
<path d="M439.195 130.49L402.625 141.255L403.425 143.973L439.995 133.207L439.195 130.49Z" fill="white"/>
<path d="M426.99 139.984L404.227 146.686L405.027 149.403L427.79 142.702L426.99 139.984Z" fill="white"/>
<path d="M475.157 54.9212L438.586 65.6871L439.386 68.4048L475.957 57.6389L475.157 54.9212Z" fill="white"/>
<path d="M476.756 60.3574L440.186 71.1229L440.986 73.8406L477.556 63.0751L476.756 60.3574Z" fill="white"/>
<path d="M478.357 65.7912L441.785 76.5571L442.585 79.2748L479.157 68.5088L478.357 65.7912Z" fill="white"/>
<path d="M479.955 71.2252L443.385 81.9907L444.185 84.7084L480.755 73.9429L479.955 71.2252Z" fill="white"/>
<path d="M467.224 80.8689L444.982 87.4163L445.782 90.1339L468.024 83.5866L467.224 80.8689Z" fill="white"/>
<path d="M483.156 82.0971L446.586 92.8626L447.386 95.5803L483.956 84.8148L483.156 82.0971Z" fill="white"/>
<path d="M484.755 87.5253L448.184 98.2913L448.984 101.009L485.555 90.243L484.755 87.5253Z" fill="white"/>
<path d="M486.355 92.9671L449.785 103.733L450.585 106.45L487.155 95.6848L486.355 92.9671Z" fill="white"/>
<path d="M487.956 98.3934L451.385 109.159L452.184 111.876L488.756 101.11L487.956 98.3934Z" fill="white"/>
<path d="M475.748 107.894L452.984 114.595L453.784 117.313L476.548 110.611L475.748 107.894Z" fill="white"/>
<path d="M528.072 37.9065L491.5 48.6725L493.875 56.7418L530.447 45.9758L528.072 37.9065Z" fill="white"/>
<path d="M531.658 50.0888L495.088 60.8544L495.888 63.5721L532.458 52.8065L531.658 50.0888Z" fill="white"/>
<path d="M533.259 55.5349L496.688 66.3009L497.488 69.0186L534.059 58.2526L533.259 55.5349Z" fill="white"/>
<path d="M520.526 65.1622L498.285 71.7096L499.085 74.4273L521.326 67.8799L520.526 65.1622Z" fill="white"/>
<path d="M536.46 66.3875L499.889 77.1534L500.689 79.8711L537.26 69.1052L536.46 66.3875Z" fill="white"/>
<path d="M538.058 71.8288L501.488 82.5944L502.288 85.3121L538.858 74.5465L538.058 71.8288Z" fill="white"/>
<path d="M539.657 77.2566L503.086 88.0226L503.886 90.7403L540.458 79.9743L539.657 77.2566Z" fill="white"/>
<path d="M541.259 82.698L504.688 93.4639L505.488 96.1816L542.059 85.4157L541.259 82.698Z" fill="white"/>
<path d="M529.051 92.2054L506.289 98.9061L507.089 101.624L529.851 94.9231L529.051 92.2054Z" fill="white"/>
<path d="M470.157 116.937L454.732 121.478L458.574 134.529L473.998 129.988L470.157 116.937Z" fill="white"/>
<path d="M491.561 110.653L476.137 115.193L479.979 128.244L495.403 123.704L491.561 110.653Z" fill="white"/>
<path d="M544.859 94.9246L508.289 105.69L512.131 118.741L548.701 107.975L544.859 94.9246Z" fill="white"/>
<path d="M650.392 165.182C651.647 167.507 650.776 170.407 648.452 171.661C646.127 172.914 643.229 172.045 641.974 169.721C640.721 167.396 641.588 164.496 643.915 163.241C646.239 161.989 649.139 162.857 650.392 165.182Z" fill="#878787"/>
<path d="M640.859 99.8502C633.724 86.6142 617.072 81.7867 603.933 89.271C591.623 96.282 586.876 111.892 593.204 124.566C595.416 128.996 598.672 132.538 602.516 135.05L602.518 135.051C603.452 135.663 604.43 136.19 605.427 136.678C610.193 139.496 619.571 145.772 623.856 153.72L635.52 147.43L635.901 147.225L647.898 140.757C643.722 133.008 643.533 122.09 643.769 116.423C644.568 110.915 643.701 105.122 640.859 99.8502Z" fill="#FFF3AE"/>
<path d="M650.149 146.336L627.329 158.639C625.802 159.464 623.875 158.887 623.053 157.358C622.227 155.829 622.804 153.902 624.334 153.078L647.151 140.776C648.682 139.952 650.606 140.53 651.429 142.058C652.253 143.587 651.677 145.511 650.149 146.336Z" fill="white"/>
<path d="M653.145 151.897L630.327 164.199C628.799 165.025 626.873 164.447 626.051 162.918C625.225 161.39 625.803 159.464 627.331 158.639L650.15 146.336C651.678 145.511 653.604 146.088 654.427 147.617C655.251 149.145 654.676 151.071 653.145 151.897Z" fill="white"/>
<path d="M656.144 157.457L633.326 169.759C631.795 170.585 629.871 170.007 629.046 168.477C628.221 166.95 628.8 165.023 630.328 164.199L653.146 151.897C654.677 151.071 656.603 151.649 657.425 153.179C658.25 154.706 657.673 156.632 656.144 157.457Z" fill="white"/>
<path d="M651.574 165.523L641.787 170.8C640.593 171.443 635.949 169.886 635.305 168.693C635.305 168.693 636.281 168.166 637.475 167.523L651.378 160.027C652.571 159.382 653.548 158.857 653.548 158.857C654.192 160.049 652.768 164.88 651.574 165.523Z" fill="white"/>
<path d="M600.274 96.2596C596.593 100.501 592.345 107.593 594.408 118.133C595.33 122.849 597.835 127.154 601.698 130.013C603.358 131.242 605.344 132.277 607.617 132.692C607.617 132.692 593.374 116.972 611.665 103.421C615.276 100.746 614.669 94.3016 611.715 92.6167C607.601 90.2729 604.228 91.7021 600.274 96.2596Z" fill="#FFEF92"/>
<path d="M631.742 149.183L629.784 145.553C628.978 144.056 627.896 142.722 626.6 141.618L623.852 139.277" stroke="#5B5B5F" stroke-width="1.29755" stroke-miterlimit="10"/>
<path d="M637.532 146.061L635.574 142.431C634.769 140.933 634.247 139.298 634.039 137.61L633.596 134.024" stroke="#5B5B5F" stroke-width="1.29755" stroke-miterlimit="10"/>
<path d="M624.896 140.182C625.074 139.592 625.698 139.256 626.288 139.433C626.878 139.609 627.502 139.274 627.679 138.683L627.815 138.226C627.993 137.635 628.616 137.3 629.206 137.476L630.305 137.805C630.896 137.981 631.518 137.646 631.696 137.056L631.958 136.176C632.136 135.585 632.759 135.248 633.349 135.425" stroke="#5B5B5F" stroke-width="1.29755" stroke-miterlimit="10"/>
<path opacity="0.6" d="M449.194 202.04C448.101 202.003 447.238 201.079 447.273 199.985L447.542 192.034C447.579 190.941 448.503 190.077 449.597 190.114C450.691 190.15 451.555 191.074 451.517 192.169L451.249 200.118C451.212 201.214 450.288 202.078 449.194 202.04Z" fill="white" stroke="white" stroke-width="1.588" stroke-miterlimit="10"/>
<path opacity="0.6" d="M448.524 221.861C447.432 221.824 446.568 220.9 446.605 219.806L446.873 211.857C446.91 210.764 447.834 209.9 448.928 209.937C450.022 209.973 450.884 210.899 450.849 211.992L450.579 219.943C450.543 221.035 449.619 221.899 448.524 221.861Z" fill="white" stroke="white" stroke-width="1.588" stroke-miterlimit="10"/>
<path opacity="0.6" d="M445.115 205.854C445.078 206.948 444.154 207.81 443.06 207.775L435.108 207.507C434.016 207.47 433.152 206.545 433.189 205.452C433.224 204.358 434.149 203.494 435.243 203.531L443.193 203.799C444.286 203.837 445.151 204.761 445.115 205.854Z" fill="white" stroke="white" stroke-width="1.588" stroke-miterlimit="10"/>
<path opacity="0.6" d="M464.935 206.526C464.898 207.618 463.974 208.482 462.88 208.446L454.93 208.177C453.836 208.141 452.972 207.217 453.009 206.123C453.045 205.03 453.971 204.166 455.064 204.201L463.015 204.469C464.109 204.508 464.973 205.433 464.935 206.526Z" fill="white" stroke="white" stroke-width="1.588" stroke-miterlimit="10"/>
<path opacity="0.6" d="M633.728 43.373C632.635 43.3365 631.771 42.4123 631.808 41.3182L632.076 33.3686C632.113 32.2761 633.037 31.4122 634.131 31.4487C635.225 31.4853 636.089 32.4111 636.052 33.5036L635.783 41.4547C635.746 42.5473 634.822 43.4112 633.728 43.373Z" fill="white" stroke="white" stroke-width="1.588" stroke-miterlimit="10"/>
<path opacity="0.6" d="M633.056 63.1962C631.963 63.1581 631.099 62.2338 631.136 61.1413L631.406 53.1902C631.441 52.0976 632.367 51.2338 633.461 51.2703C634.553 51.3068 635.417 52.231 635.381 53.3252L635.111 61.2747C635.074 62.3688 634.15 63.2327 633.056 63.1962Z" fill="white" stroke="white" stroke-width="1.588" stroke-miterlimit="10"/>
<path opacity="0.6" d="M629.646 47.189C629.609 48.2815 628.685 49.1454 627.591 49.1089L619.64 48.8389C618.547 48.8024 617.683 47.8782 617.72 46.784C617.756 45.6915 618.681 44.8276 619.775 44.8642L627.726 45.1325C628.818 45.1706 629.682 46.0949 629.646 47.189Z" fill="white" stroke="white" stroke-width="1.588" stroke-miterlimit="10"/>
<path opacity="0.6" d="M649.468 47.8593C649.432 48.9519 648.507 49.8173 647.413 49.7792L639.462 49.5108C638.368 49.4727 637.504 48.5485 637.542 47.456C637.579 46.3634 638.503 45.498 639.597 45.5361L647.547 45.8044C648.641 45.8425 649.506 46.7668 649.468 47.8593Z" fill="white" stroke="white" stroke-width="1.588" stroke-miterlimit="10"/>
<path opacity="0.6" d="M660.344 234.702C659.831 235.667 658.619 236.037 657.655 235.524L650.632 231.788C649.666 231.273 649.296 230.063 649.809 229.098C650.322 228.132 651.534 227.762 652.498 228.275L659.521 232.012C660.488 232.526 660.857 233.736 660.344 234.702Z" fill="white" stroke="white" stroke-width="1.588" stroke-miterlimit="10"/>
<path opacity="0.6" d="M677.854 244.017C677.341 244.982 676.131 245.352 675.165 244.838L668.142 241.103C667.176 240.588 666.806 239.378 667.319 238.413C667.832 237.447 669.044 237.077 670.007 237.59L677.031 241.325C677.998 241.84 678.368 243.05 677.854 244.017Z" fill="white" stroke="white" stroke-width="1.588" stroke-miterlimit="10"/>
<path opacity="0.6" d="M661.977 240.045C662.943 240.56 663.313 241.77 662.8 242.736L659.063 249.759C658.55 250.725 657.339 251.095 656.373 250.582C655.409 250.067 655.038 248.857 655.552 247.892L659.287 240.868C659.802 239.901 661.012 239.531 661.977 240.045Z" fill="white" stroke="white" stroke-width="1.588" stroke-miterlimit="10"/>
<path opacity="0.6" d="M671.291 222.534C672.256 223.047 672.626 224.257 672.112 225.224L668.377 232.247C667.864 233.212 666.652 233.582 665.686 233.069C664.721 232.556 664.351 231.346 664.864 230.379L668.6 223.357C669.113 222.391 670.323 222.02 671.291 222.534Z" fill="white" stroke="white" stroke-width="1.588" stroke-miterlimit="10"/>
<path opacity="0.6" d="M321.078 129.927C320.563 130.893 319.353 131.263 318.388 130.75L311.364 127.015C310.4 126.5 310.028 125.29 310.541 124.325C311.056 123.359 312.266 122.989 313.231 123.502L320.255 127.239C321.221 127.751 321.592 128.962 321.078 129.927Z" fill="white" stroke="white" stroke-width="1.588" stroke-miterlimit="10"/>
<path opacity="0.6" d="M338.589 139.241C338.076 140.206 336.865 140.576 335.899 140.063L328.877 136.327C327.912 135.814 327.54 134.604 328.053 133.638C328.568 132.673 329.778 132.303 330.743 132.816L337.767 136.551C338.732 137.065 339.102 138.275 338.589 139.241Z" fill="white" stroke="white" stroke-width="1.588" stroke-miterlimit="10"/>
<path opacity="0.6" d="M322.71 135.271C323.676 135.784 324.047 136.994 323.531 137.961L319.796 144.983C319.283 145.948 318.073 146.318 317.108 145.806C316.142 145.293 315.772 144.083 316.287 143.117L320.023 136.093C320.535 135.126 321.745 134.756 322.71 135.271Z" fill="white" stroke="white" stroke-width="1.588" stroke-miterlimit="10"/>
<path opacity="0.6" d="M332.023 117.76C332.989 118.273 333.359 119.483 332.846 120.45L329.109 127.472C328.596 128.437 327.386 128.807 326.421 128.295C325.455 127.782 325.085 126.572 325.598 125.604L329.333 118.582C329.848 117.615 331.059 117.247 332.023 117.76Z" fill="white" stroke="white" stroke-width="1.588" stroke-miterlimit="10"/>
<path d="M379.315 236.009C389.968 236.009 398.603 227.373 398.603 216.721C398.603 206.069 389.968 197.433 379.315 197.433C368.663 197.433 360.027 206.069 360.027 216.721C360.027 227.373 368.663 236.009 379.315 236.009Z" stroke="white" stroke-width="2.27973" stroke-miterlimit="10"/>
<path d="M379.314 236.557V197.433" stroke="white" stroke-width="2.27973" stroke-miterlimit="10"/>
<path d="M398.605 216.721H360.027" stroke="white" stroke-width="2.27973" stroke-miterlimit="10"/>
<path d="M373.152 198.161C373.152 198.161 359.894 214.11 373.152 235.28" stroke="white" stroke-width="2.27973" stroke-miterlimit="10"/>
<path d="M385.061 198.16C385.061 198.16 398.319 214.11 385.061 235.28" stroke="white" stroke-width="2.27973" stroke-miterlimit="10"/>
<path d="M363.684 205.434C363.684 205.434 377.582 209.532 394.945 205.434" stroke="white" stroke-width="2.27973" stroke-miterlimit="10"/>
<path d="M394.945 228.439C394.945 228.439 381.047 224.34 363.684 228.439" stroke="white" stroke-width="2.27973" stroke-miterlimit="10"/>
</g>
</g>
<defs>
<linearGradient id="paint0_linear_16418_72111" x1="312" y1="173.868" x2="312" y2="793.667" gradientUnits="userSpaceOnUse">
<stop stop-color="#4F80BF"/>
<stop offset="0.6211" stop-color="#4F80BF" stop-opacity="0"/>
</linearGradient>
<linearGradient id="paint1_linear_16418_72111" x1="312" y1="328.835" x2="312" y2="793.667" gradientUnits="userSpaceOnUse">
<stop stop-color="#4F80BF"/>
<stop offset="0.6211" stop-color="#4F80BF" stop-opacity="0"/>
</linearGradient>
<linearGradient id="paint2_linear_16418_72111" x1="163.16" y1="523.606" x2="499.251" y2="523.606" gradientUnits="userSpaceOnUse">
<stop stop-color="#4F80BF"/>
<stop offset="0.6211" stop-color="#4F80BF" stop-opacity="0"/>
</linearGradient>
<linearGradient id="paint3_linear_16418_72111" x1="185.363" y1="345.25" x2="423.229" y2="345.25" gradientUnits="userSpaceOnUse">
<stop offset="0.1535" stop-color="#A12929"/>
<stop offset="1" stop-color="#A12929" stop-opacity="0"/>
</linearGradient>
<linearGradient id="paint4_linear_16418_72111" x1="271.184" y1="173.82" x2="688.206" y2="173.82" gradientUnits="userSpaceOnUse">
<stop stop-color="#4F80BF"/>
<stop offset="0.6211" stop-color="#4F80BF" stop-opacity="0"/>
</linearGradient>
<clipPath id="clip0_16418_72111">
<rect width="691" height="793.333" rx="12" fill="white"/>
</clipPath>
<clipPath id="clip1_16418_72111">
<rect width="794" height="794" fill="white" transform="translate(-85 -0.333374)"/>
</clipPath>
</defs>
</svg>
