<svg width="39" height="39" viewBox="0 0 39 39" fill="none" xmlns="http://www.w3.org/2000/svg">
<rect width="38.1844" height="38.1844" rx="7.0922" fill="#F2F4F7"/>
<path d="M27.0918 16.5922V13.8922C27.0918 12.212 27.0918 11.3719 26.7648 10.7302C26.4772 10.1657 26.0183 9.70676 25.4538 9.41914C24.812 9.09216 23.972 9.09216 22.2918 9.09216H15.8918C14.2116 9.09216 13.3716 9.09216 12.7298 9.41914C12.1653 9.70676 11.7064 10.1657 11.4188 10.7302C11.0918 11.3719 11.0918 12.212 11.0918 13.8922V24.2922C11.0918 25.9723 11.0918 26.8124 11.4188 27.4541C11.7064 28.0186 12.1653 28.4776 12.7298 28.7652C13.3716 29.0922 14.2116 29.0922 15.8918 29.0922H21.0918M23.5918 22.0944C23.768 21.5935 24.1158 21.1712 24.5735 20.9021C25.0313 20.6331 25.5695 20.5348 26.0928 20.6245C26.6161 20.7143 27.0908 20.9864 27.4327 21.3926C27.7747 21.7988 27.9618 22.3129 27.961 22.8438C27.961 24.3427 25.7127 25.0922 25.7127 25.0922M25.7418 28.0922H25.7518" stroke="#7A5AF8" stroke-width="2" stroke-linecap="round" stroke-linejoin="round"/>
</svg>
