<svg width="40" height="40" viewBox="0 0 40 40" fill="none" xmlns="http://www.w3.org/2000/svg">
<path d="M32.5 40H7.5C3.35754 40 0 36.6425 0 32.5V7.5C0 3.35754 3.35754 0 7.5 0H32.5C36.6425 0 40 3.35754 40 7.5V32.5C40 36.6425 36.6425 40 32.5 40Z" fill="#12B76A"/>
<path d="M20.0026 5.83398C12.1917 5.83398 5.83594 12.1897 5.83594 20.0007C5.83594 27.8116 12.1917 34.1673 20.0026 34.1673C27.8136 34.1673 34.1693 27.8116 34.1693 20.0007C34.1693 12.1897 27.8136 5.83398 20.0026 5.83398ZM27.1832 16.999L19.5102 24.672C19.2802 24.9024 18.9771 25.0174 18.6762 25.0174C18.3736 25.0174 18.0722 24.9024 17.8422 24.672L14.0049 20.8346C13.5444 20.3742 13.5444 19.6271 14.0049 19.165C14.4653 18.7028 15.2124 18.7045 15.6745 19.165L18.6762 22.1662L25.5153 15.3276C25.9757 14.8671 26.7228 14.8671 27.1849 15.3276C27.6471 15.788 27.6436 16.5368 27.1832 16.999Z" fill="white"/>
</svg>
