<svg width="313" height="319" viewBox="0 0 313 319" fill="none" xmlns="http://www.w3.org/2000/svg">
<path d="M156.5 312C242.656 312 312.5 242.156 312.5 156C312.5 69.8436 242.656 0 156.5 0C70.3436 0 0.5 69.8436 0.5 156C0.5 242.156 70.3436 312 156.5 312Z" fill="url(#paint0_linear_13126_142469)"/>
<g filter="url(#filter0_d_13126_142469)">
<mask id="mask0_13126_142469" style="mask-type:alpha" maskUnits="userSpaceOnUse" x="0" y="0" width="313" height="312">
<path d="M156.5 312C242.656 312 312.5 242.156 312.5 156C312.5 69.8436 242.656 0 156.5 0C70.3436 0 0.5 69.8436 0.5 156C0.5 242.156 70.3436 312 156.5 312Z" fill="url(#paint1_linear_13126_142469)"/>
</mask>
<g mask="url(#mask0_13126_142469)">
<path d="M245.94 89.4375H67.0602C61.3164 89.4375 56.6602 94.0937 56.6602 99.8375V318.237C56.6602 323.981 61.3164 328.637 67.0602 328.637H245.94C251.684 328.637 256.34 323.981 256.34 318.237V99.8375C256.34 94.0937 251.684 89.4375 245.94 89.4375Z" fill="#FAFAFF"/>
</g>
</g>
<path d="M137.781 110.234H83.7009C80.2547 110.234 77.4609 113.028 77.4609 116.474C77.4609 119.921 80.2547 122.714 83.7009 122.714H137.781C141.227 122.714 144.021 119.921 144.021 116.474C144.021 113.028 141.227 110.234 137.781 110.234Z" fill="#D9D6FE"/>
<path d="M137.781 197.602H83.7009C80.2547 197.602 77.4609 200.395 77.4609 203.842C77.4609 207.288 80.2547 210.082 83.7009 210.082H137.781C141.227 210.082 144.021 207.288 144.021 203.842C144.021 200.395 141.227 197.602 137.781 197.602Z" fill="#D9D6FE"/>
<path d="M225.143 141.438H87.863C83.268 141.438 79.543 145.162 79.543 149.757V170.557C79.543 175.153 83.268 178.877 87.863 178.877H225.143C229.738 178.877 233.463 175.153 233.463 170.557V149.757C233.463 145.162 229.738 141.438 225.143 141.438Z" stroke="#6938EF" stroke-width="4.16"/>
<path d="M225.141 226.719H87.8609C82.1172 226.719 77.4609 231.375 77.4609 237.119V253.759C77.4609 259.503 82.1172 264.159 87.8609 264.159H225.141C230.885 264.159 235.541 259.503 235.541 253.759V237.119C235.541 231.375 230.885 226.719 225.141 226.719Z" fill="#D9D6FE"/>
<path d="M110.742 66.5619C115.337 66.5619 119.062 62.8369 119.062 58.2419C119.062 53.6469 115.337 49.9219 110.742 49.9219C106.147 49.9219 102.422 53.6469 102.422 58.2419C102.422 62.8369 106.147 66.5619 110.742 66.5619Z" fill="#EBE9FE"/>
<path d="M156.504 66.5619C161.099 66.5619 164.824 62.8369 164.824 58.2419C164.824 53.6469 161.099 49.9219 156.504 49.9219C151.909 49.9219 148.184 53.6469 148.184 58.2419C148.184 62.8369 151.909 66.5619 156.504 66.5619Z" fill="#6938EF"/>
<path d="M202.261 66.5619C206.856 66.5619 210.581 62.8369 210.581 58.2419C210.581 53.6469 206.856 49.9219 202.261 49.9219C197.666 49.9219 193.941 53.6469 193.941 58.2419C193.941 62.8369 197.666 66.5619 202.261 66.5619Z" fill="#EBE9FE"/>
<path d="M179.38 183.034C185.124 183.034 189.78 178.378 189.78 172.634C189.78 166.891 185.124 162.234 179.38 162.234C173.637 162.234 168.98 166.891 168.98 172.634C168.98 178.378 173.637 183.034 179.38 183.034Z" fill="#FAFAFF"/>
<path d="M187.507 217.091C185.843 217.091 184.29 217.091 182.875 217.002C181.133 216.884 179.457 216.288 178.032 215.279C176.606 214.27 175.487 212.888 174.796 211.284L166.021 193.941C165.377 193.192 165.056 192.218 165.127 191.233C165.198 190.247 165.655 189.33 166.4 188.681C167.009 188.19 167.77 187.927 168.552 187.934C169.128 187.951 169.694 188.092 170.21 188.348C170.726 188.605 171.18 188.97 171.541 189.419L175.527 194.858L175.587 194.929V174.264C175.587 173.239 175.994 172.256 176.719 171.531C177.444 170.806 178.427 170.398 179.453 170.398C180.478 170.398 181.461 170.806 182.186 171.531C182.911 172.256 183.318 173.239 183.318 174.264V187.784C183.273 187.287 183.333 186.785 183.492 186.312C183.652 185.839 183.908 185.404 184.245 185.035C184.582 184.666 184.992 184.372 185.449 184.17C185.906 183.969 186.4 183.865 186.9 183.865C187.4 183.865 187.894 183.969 188.351 184.17C188.808 184.372 189.218 184.666 189.555 185.035C189.892 185.404 190.148 185.839 190.308 186.312C190.467 186.785 190.527 187.287 190.482 187.784V190.603C190.437 190.105 190.496 189.604 190.656 189.13C190.815 188.657 191.072 188.222 191.409 187.853C191.746 187.484 192.156 187.19 192.613 186.988C193.07 186.787 193.564 186.683 194.064 186.683C194.563 186.683 195.057 186.787 195.514 186.988C195.971 187.19 196.381 187.484 196.718 187.853C197.055 188.222 197.312 188.657 197.471 189.13C197.631 189.604 197.69 190.105 197.645 190.603V192.774C197.6 192.277 197.66 191.775 197.819 191.302C197.979 190.828 198.235 190.394 198.572 190.025C198.909 189.656 199.319 189.361 199.776 189.16C200.233 188.958 200.728 188.854 201.227 188.854C201.727 188.854 202.221 188.958 202.678 189.16C203.135 189.361 203.545 189.656 203.882 190.025C204.219 190.394 204.475 190.828 204.635 191.302C204.794 191.775 204.854 192.277 204.809 192.774V205.955C204.738 210.009 202.906 216.844 196.46 216.844C195.992 216.865 192.027 217.093 187.516 217.093L187.507 217.091Z" fill="#6938EF" stroke="#EBE9FE" stroke-width="2.08"/>
<defs>
<filter id="filter0_d_13126_142469" x="44.1802" y="70.7175" width="224.64" height="247.522" filterUnits="userSpaceOnUse" color-interpolation-filters="sRGB">
<feFlood flood-opacity="0" result="BackgroundImageFix"/>
<feColorMatrix in="SourceAlpha" type="matrix" values="0 0 0 0 0 0 0 0 0 0 0 0 0 0 0 0 0 0 127 0" result="hardAlpha"/>
<feOffset dy="-6.24"/>
<feGaussianBlur stdDeviation="6.24"/>
<feColorMatrix type="matrix" values="0 0 0 0 0.788235 0 0 0 0 0.803922 0 0 0 0 0.85098 0 0 0 0.349 0"/>
<feBlend mode="normal" in2="BackgroundImageFix" result="effect1_dropShadow_13126_142469"/>
<feBlend mode="normal" in="SourceGraphic" in2="effect1_dropShadow_13126_142469" result="shape"/>
</filter>
<linearGradient id="paint0_linear_13126_142469" x1="156.5" y1="0" x2="156.5" y2="312" gradientUnits="userSpaceOnUse">
<stop stop-color="#E3ECFA"/>
<stop offset="1" stop-color="#DAE7FF"/>
</linearGradient>
<linearGradient id="paint1_linear_13126_142469" x1="156.5" y1="0" x2="156.5" y2="312" gradientUnits="userSpaceOnUse">
<stop stop-color="#C3B5FD"/>
<stop offset="1" stop-color="#C3B5FD"/>
</linearGradient>
</defs>
</svg>
