<svg width="500" height="325" viewBox="0 0 500 325" fill="none" xmlns="http://www.w3.org/2000/svg">
<g clip-path="url(#clip0_18461_34082)">
<path d="M499.5 302.4H-0.5V302.65H499.5V302.4Z" fill="#EBEBEB"/>
<path d="M85.08 311.92H51.96V312.17H85.08V311.92Z" fill="#EBEBEB"/>
<path d="M179.33 309.21H152.94V309.46H179.33V309.21Z" fill="#EBEBEB"/>
<path d="M135.39 317.82H89.4697V318.07H135.39V317.82Z" fill="#EBEBEB"/>
<path d="M449.4 319.53H427.8V319.78H449.4V319.53Z" fill="#EBEBEB"/>
<path d="M422.94 319.53H390.97V319.78H422.94V319.53Z" fill="#EBEBEB"/>
<path d="M331.83 315.31H276.71V315.56H331.83V315.31Z" fill="#EBEBEB"/>
<path d="M236.5 257.8H43.41C41.8973 257.797 40.4475 257.195 39.3788 256.124C38.3102 255.053 37.71 253.603 37.71 252.09V-19.34C37.7231 -20.844 38.3292 -22.282 39.3964 -23.3418C40.4637 -24.4015 41.9059 -24.9974 43.41 -25H236.5C238.014 -25 239.467 -24.3984 240.538 -23.3276C241.608 -22.2567 242.21 -20.8044 242.21 -19.29V252.09C242.21 253.604 241.608 255.057 240.538 256.128C239.467 257.198 238.014 257.8 236.5 257.8ZM43.41 -24.8C41.9636 -24.7974 40.5774 -24.2209 39.5556 -23.1973C38.5338 -22.1736 37.96 -20.7864 37.96 -19.34V252.09C37.96 253.536 38.5338 254.924 39.5556 255.947C40.5774 256.971 41.9636 257.547 43.41 257.55H236.5C237.947 257.547 239.334 256.971 240.358 255.948C241.381 254.924 241.957 253.537 241.96 252.09V-19.34C241.957 -20.7873 241.381 -22.1745 240.358 -23.1979C239.334 -24.2213 237.947 -24.7974 236.5 -24.8H43.41Z" fill="#EBEBEB"/>
<path d="M452.81 257.8H259.71C258.196 257.797 256.746 257.195 255.675 256.125C254.605 255.054 254.003 253.604 254 252.09V-19.34C254.016 -20.8449 254.624 -22.2829 255.693 -23.3424C256.762 -24.4019 258.205 -24.9975 259.71 -25H452.81C454.312 -24.9948 455.752 -24.3978 456.817 -23.3383C457.882 -22.2788 458.487 -20.8422 458.5 -19.34V252.09C458.5 253.601 457.901 255.05 456.835 256.121C455.768 257.191 454.321 257.795 452.81 257.8ZM259.71 -24.8C258.263 -24.7974 256.875 -24.2213 255.852 -23.1979C254.829 -22.1745 254.253 -20.7873 254.25 -19.34V252.09C254.253 253.537 254.829 254.924 255.852 255.948C256.875 256.971 258.263 257.547 259.71 257.55H452.81C454.257 257.547 455.645 256.971 456.668 255.948C457.691 254.924 458.267 253.537 458.27 252.09V-19.34C458.267 -20.7873 457.691 -22.1745 456.668 -23.1979C455.645 -24.2213 454.257 -24.7974 452.81 -24.8H259.71Z" fill="#EBEBEB"/>
<path d="M288.82 5.47998H77.0303V136.13H288.82V5.47998Z" fill="#E6E6E6"/>
<path d="M294.26 5.47998H79.5703V136.13H294.26V5.47998Z" fill="#F0F0F0"/>
<path d="M288.82 136.13H77.0303V146.24H288.82V136.13Z" fill="#E6E6E6"/>
<path d="M303.32 136.13H88.6299V146.24H303.32V136.13Z" fill="#F0F0F0"/>
<path d="M286.64 128.52V13.1001L87.1897 13.1001V128.52H286.64Z" fill="#FAFAFA"/>
<path d="M101.83 128.52L146.54 13.1001H167.64L122.93 128.52H101.83Z" fill="white"/>
<path d="M127.47 128.52L172.18 13.1001H180.4L135.69 128.52H127.47Z" fill="white"/>
<path d="M205.69 128.52L250.4 13.1001H258.63L213.92 128.52H205.69Z" fill="white"/>
<path d="M286.64 128.51V13.0898H285.67V128.51H286.64Z" fill="#E6E6E6"/>
<path d="M306 202.94H268.54V302.4H306V202.94Z" fill="#E6E6E6"/>
<path d="M298.88 302.4H306V279.62H291.42L298.88 302.4Z" fill="#F0F0F0"/>
<path d="M92.2696 202.94H54.8096V302.4H92.2696V202.94Z" fill="#E6E6E6"/>
<path d="M306 202.94H86.0596V298.8H306V202.94Z" fill="#F0F0F0"/>
<path d="M93.1696 302.4H86.0596V279.62H100.63L93.1696 302.4Z" fill="#F0F0F0"/>
<path d="M93.3799 216.24V284.55C93.3799 285.881 94.4589 286.96 95.7899 286.96H156.17C157.501 286.96 158.58 285.881 158.58 284.55V216.24C158.58 214.909 157.501 213.83 156.17 213.83H95.7899C94.4589 213.83 93.3799 214.909 93.3799 216.24Z" fill="#FAFAFA"/>
<path d="M132.42 221.32H119.5C113.9 221.32 108.5 217.99 104.69 212.09H147.21C143.38 218 138.02 221.32 132.42 221.32Z" fill="#F0F0F0"/>
<path d="M163.43 216.24V284.55C163.43 285.881 164.509 286.96 165.84 286.96H226.22C227.551 286.96 228.63 285.881 228.63 284.55V216.24C228.63 214.909 227.551 213.83 226.22 213.83H165.84C164.509 213.83 163.43 214.909 163.43 216.24Z" fill="#FAFAFA"/>
<path d="M203.14 221.32H190.24C184.63 221.32 179.24 217.99 175.43 212.09H217.95C214.09 218 208.74 221.32 203.14 221.32Z" fill="#F0F0F0"/>
<path d="M233.49 216.24V284.55C233.49 285.881 234.569 286.96 235.9 286.96H296.28C297.611 286.96 298.69 285.881 298.69 284.55V216.24C298.69 214.909 297.611 213.83 296.28 213.83H235.9C234.569 213.83 233.49 214.909 233.49 216.24Z" fill="#FAFAFA"/>
<path d="M273.19 221.32H260.29C254.69 221.32 249.29 217.99 245.48 212.09H288.01C284.15 218 278.8 221.32 273.19 221.32Z" fill="#F0F0F0"/>
<path d="M460.97 193.18C460.921 192.952 460.795 192.749 460.612 192.605C460.43 192.461 460.203 192.385 459.97 192.39H433.91C433.677 192.385 433.45 192.461 433.268 192.605C433.085 192.749 432.959 192.952 432.91 193.18L419.5 302.4H421.5L434.74 194.4H459.18L472.43 302.4H474.43L460.97 193.18Z" fill="#F0F0F0"/>
<path d="M421.74 193.18C421.691 192.952 421.565 192.749 421.382 192.605C421.2 192.461 420.973 192.385 420.74 192.39H394.69C394.457 192.385 394.23 192.461 394.048 192.605C393.865 192.749 393.739 192.952 393.69 193.18L380.21 302.4H382.26L395.51 194.4H419.94L433.18 302.4H435.23L421.74 193.18Z" fill="#F0F0F0"/>
<path d="M440.5 193.38H395.6C387.02 193.38 382.28 187.56 379.85 177.96L378.66 172.47C378.252 170.808 378.229 169.075 378.592 167.403C378.956 165.731 379.696 164.164 380.757 162.821C381.818 161.478 383.172 160.396 384.715 159.655C386.257 158.915 387.949 158.537 389.66 158.55H417.81C423.64 158.55 425.18 159.94 429.2 168.72L440.5 193.38Z" fill="#F0F0F0"/>
<path d="M415.96 184.78H459.9C461.531 184.78 463.095 185.428 464.249 186.581C465.402 187.734 466.05 189.299 466.05 190.93V191.14C466.05 191.734 465.814 192.304 465.394 192.724C464.974 193.144 464.404 193.38 463.81 193.38H415.96V184.78Z" fill="#F0F0F0"/>
<path d="M402.5 193.18C402.452 192.952 402.325 192.749 402.143 192.605C401.96 192.461 401.733 192.385 401.5 192.39H375.41C375.178 192.385 374.951 192.461 374.768 192.605C374.586 192.749 374.459 192.952 374.41 193.18L360.94 302.4H362.99L376.23 194.4H400.67L413.91 302.4H415.91L402.5 193.18Z" fill="#F0F0F0"/>
<path d="M363.24 193.18C363.191 192.952 363.065 192.749 362.882 192.605C362.7 192.461 362.473 192.385 362.24 192.39H336.19C335.957 192.385 335.73 192.461 335.548 192.605C335.365 192.749 335.239 192.952 335.19 193.18L321.71 302.4H323.76L337.01 194.4H361.44L374.68 302.4H376.73L363.24 193.18Z" fill="#F0F0F0"/>
<path d="M381.95 193.38H337.05C328.47 193.38 323.72 187.56 321.3 177.96L320.11 172.47C319.702 170.808 319.679 169.075 320.043 167.403C320.406 165.731 321.146 164.164 322.207 162.821C323.268 161.478 324.622 160.396 326.165 159.655C327.708 158.915 329.399 158.537 331.11 158.55H359.25C365.09 158.55 366.62 159.94 370.65 168.72L381.95 193.38Z" fill="#F0F0F0"/>
<path d="M357.5 184.78H401.4C403.031 184.78 404.595 185.428 405.749 186.581C406.902 187.734 407.55 189.299 407.55 190.93V191.14C407.55 191.734 407.314 192.304 406.894 192.724C406.474 193.144 405.904 193.38 405.31 193.38H357.5V184.78Z" fill="#F0F0F0"/>
<path d="M428.7 0.120117H351.03V90.7001H428.7V0.120117Z" fill="#F0F0F0"/>
<path d="M435.23 0.120117H352.2V90.7001H435.23V0.120117Z" fill="#F5F5F5"/>
<path d="M428.09 83.55V7.25L359.34 7.25V83.55H428.09Z" fill="white"/>
<path d="M388.19 74.1899H399.25V39.84H388.19V74.1899Z" fill="#E6E6E6"/>
<path d="M407 74.1802H418.06V58.1002H407V74.1802Z" fill="#E6E6E6"/>
<path d="M407 58.1099H418.06V48.2999H407V58.1099Z" fill="#F0F0F0"/>
<path d="M388.19 39.8301H399.25V18.8801H388.19V39.8301Z" fill="#F0F0F0"/>
<path d="M369.38 74.1802H380.44V46.0802H369.38V74.1802Z" fill="#E6E6E6"/>
<path d="M369.38 46.0801H380.44V33.2001H369.38V46.0801Z" fill="#F0F0F0"/>
<path d="M249.5 347.56C356.583 347.56 443.39 342.492 443.39 336.24C443.39 329.988 356.583 324.92 249.5 324.92C142.418 324.92 55.6104 329.988 55.6104 336.24C55.6104 342.492 142.418 347.56 249.5 347.56Z" fill="#F5F5F5"/>
<path d="M91.5205 250.48H76.2405C73.8877 250.48 71.9805 252.387 71.9805 254.74V281.63C71.9805 283.983 73.8877 285.89 76.2405 285.89H91.5205C93.8732 285.89 95.7805 283.983 95.7805 281.63V254.74C95.7805 252.387 93.8732 250.48 91.5205 250.48Z" fill="#407BFF"/>
<path d="M119.131 231.63H103.851C101.498 231.63 99.5908 233.537 99.5908 235.89V281.62C99.5908 283.973 101.498 285.88 103.851 285.88H119.131C121.484 285.88 123.391 283.973 123.391 281.62V235.89C123.391 233.537 121.484 231.63 119.131 231.63Z" fill="#407BFF"/>
<path d="M146.73 239.81H131.45C129.098 239.81 127.19 241.717 127.19 244.07V281.63C127.19 283.983 129.098 285.89 131.45 285.89H146.73C149.083 285.89 150.99 283.983 150.99 281.63V244.07C150.99 241.717 149.083 239.81 146.73 239.81Z" fill="#407BFF"/>
<path d="M174.33 228.14H159.05C156.697 228.14 154.79 230.047 154.79 232.4V281.63C154.79 283.983 156.697 285.89 159.05 285.89H174.33C176.683 285.89 178.59 283.983 178.59 281.63V232.4C178.59 230.047 176.683 228.14 174.33 228.14Z" fill="#407BFF"/>
<path d="M201.931 215.81H186.651C184.298 215.81 182.391 217.717 182.391 220.07V281.63C182.391 283.983 184.298 285.89 186.651 285.89H201.931C204.283 285.89 206.191 283.983 206.191 281.63V220.07C206.191 217.717 204.283 215.81 201.931 215.81Z" fill="#407BFF"/>
<path d="M229.54 202.81H214.26C211.907 202.81 210 204.717 210 207.07V281.63C210 283.983 211.907 285.89 214.26 285.89H229.54C231.893 285.89 233.8 283.983 233.8 281.63V207.07C233.8 204.717 231.893 202.81 229.54 202.81Z" fill="#407BFF"/>
<path d="M257.141 222.48H241.861C239.508 222.48 237.601 224.387 237.601 226.74V281.63C237.601 283.983 239.508 285.89 241.861 285.89H257.141C259.493 285.89 261.401 283.983 261.401 281.63V226.74C261.401 224.387 259.493 222.48 257.141 222.48Z" fill="#407BFF"/>
<path d="M284.74 197.14H269.46C267.107 197.14 265.2 199.047 265.2 201.4V281.63C265.2 283.983 267.107 285.89 269.46 285.89H284.74C287.093 285.89 289 283.983 289 281.63V201.4C289 199.047 287.093 197.14 284.74 197.14Z" fill="#407BFF"/>
<path d="M312.341 189.48H297.061C294.708 189.48 292.801 191.387 292.801 193.74V281.63C292.801 283.983 294.708 285.89 297.061 285.89H312.341C314.694 285.89 316.601 283.983 316.601 281.63V193.74C316.601 191.387 314.694 189.48 312.341 189.48Z" fill="#407BFF"/>
<path d="M339.95 194.14H324.67C322.317 194.14 320.41 196.047 320.41 198.4V281.63C320.41 283.983 322.317 285.89 324.67 285.89H339.95C342.303 285.89 344.21 283.983 344.21 281.63V198.4C344.21 196.047 342.303 194.14 339.95 194.14Z" fill="#407BFF"/>
<path d="M367.551 166.86H352.271C349.918 166.86 348.011 168.767 348.011 171.12V281.63C348.011 283.983 349.918 285.89 352.271 285.89H367.551C369.903 285.89 371.811 283.983 371.811 281.63V171.12C371.811 168.767 369.903 166.86 367.551 166.86Z" fill="#407BFF"/>
<path d="M395.15 178.19H379.87C377.518 178.19 375.61 180.097 375.61 182.45V281.63C375.61 283.983 377.518 285.89 379.87 285.89H395.15C397.503 285.89 399.41 283.983 399.41 281.63V182.45C399.41 180.097 397.503 178.19 395.15 178.19Z" fill="#407BFF"/>
<path d="M422.751 150.58H407.471C405.118 150.58 403.211 152.487 403.211 154.84V281.63C403.211 283.983 405.118 285.89 407.471 285.89H422.751C425.104 285.89 427.011 283.983 427.011 281.63V154.84C427.011 152.487 425.104 150.58 422.751 150.58Z" fill="#407BFF"/>
<path d="M83.8908 266.25C83.8109 266.241 83.7341 266.214 83.6664 266.171C83.5988 266.127 83.5421 266.069 83.5008 266C83.4248 265.892 83.3939 265.758 83.4144 265.628C83.4349 265.497 83.5053 265.379 83.6108 265.3L84.8208 264.42C84.929 264.344 85.0624 264.313 85.193 264.333C85.3236 264.354 85.4411 264.424 85.5208 264.53C85.561 264.582 85.5901 264.643 85.6064 264.707C85.6227 264.771 85.6258 264.838 85.6155 264.903C85.6052 264.969 85.5818 265.031 85.5466 265.087C85.5114 265.144 85.4652 265.192 85.4108 265.23L84.2008 266.11C84.1157 266.189 84.0067 266.238 83.8908 266.25Z" fill="#263238"/>
<path d="M89.1608 262.41C89.0805 262.411 89.0011 262.393 88.9296 262.356C88.8581 262.319 88.7967 262.266 88.7508 262.2C88.6748 262.092 88.6439 261.958 88.6644 261.828C88.6849 261.697 88.7553 261.58 88.8608 261.5L91.3008 259.73C91.354 259.691 91.4143 259.663 91.4782 259.648C91.5422 259.632 91.6086 259.63 91.6736 259.64C91.7386 259.65 91.8009 259.673 91.8571 259.707C91.9132 259.742 91.9621 259.787 92.0008 259.84C92.0395 259.893 92.0674 259.953 92.0829 260.017C92.0983 260.081 92.101 260.148 92.0908 260.213C92.0806 260.278 92.0576 260.34 92.0233 260.396C91.989 260.452 91.944 260.501 91.8908 260.54L89.5008 262.31C89.4536 262.348 89.3992 262.377 89.3408 262.394C89.2825 262.411 89.2213 262.416 89.1608 262.41ZM95.6508 257.68C95.5722 257.679 95.4948 257.66 95.4252 257.624C95.3555 257.587 95.2957 257.534 95.2508 257.47C95.1754 257.363 95.1447 257.231 95.1653 257.102C95.1858 256.974 95.256 256.858 95.3608 256.78L97.8008 255C97.9074 254.924 98.0393 254.894 98.1682 254.914C98.2971 254.935 98.4129 255.005 98.4908 255.11C98.531 255.162 98.5601 255.223 98.5764 255.287C98.5927 255.351 98.5958 255.418 98.5855 255.483C98.5752 255.549 98.5518 255.611 98.5166 255.668C98.4814 255.724 98.4352 255.772 98.3808 255.81L95.9508 257.58C95.8654 257.647 95.7594 257.682 95.6508 257.68ZM102.151 252.95C102.072 252.949 101.994 252.931 101.923 252.896C101.852 252.862 101.79 252.812 101.741 252.75C101.665 252.642 101.634 252.508 101.654 252.378C101.675 252.247 101.745 252.13 101.851 252.05L104.291 250.27C104.398 250.192 104.532 250.159 104.664 250.18C104.795 250.2 104.913 250.272 104.991 250.38C105.069 250.487 105.101 250.621 105.081 250.753C105.06 250.884 104.988 251.002 104.881 251.08L102.441 252.86C102.361 252.936 102.26 252.985 102.151 253V252.95ZM108.641 248.22C108.537 248.218 108.436 248.183 108.352 248.121C108.269 248.059 108.207 247.972 108.175 247.873C108.143 247.774 108.143 247.668 108.174 247.568C108.206 247.469 108.267 247.382 108.351 247.32L110.791 245.55C110.843 245.512 110.903 245.484 110.966 245.469C111.029 245.454 111.095 245.452 111.159 245.462C111.223 245.472 111.284 245.495 111.339 245.529C111.395 245.563 111.443 245.607 111.481 245.66C111.519 245.712 111.546 245.772 111.561 245.835C111.576 245.898 111.579 245.964 111.569 246.028C111.558 246.092 111.536 246.153 111.502 246.208C111.468 246.264 111.423 246.312 111.371 246.35L108.941 248.13C108.852 248.189 108.748 248.221 108.641 248.22ZM115.141 243.5C115.061 243.499 114.982 243.479 114.911 243.443C114.84 243.406 114.778 243.354 114.731 243.29C114.692 243.236 114.665 243.175 114.65 243.111C114.636 243.047 114.634 242.98 114.645 242.915C114.656 242.85 114.68 242.788 114.715 242.732C114.751 242.676 114.797 242.628 114.851 242.59L117.281 240.82C117.334 240.781 117.394 240.753 117.458 240.738C117.522 240.722 117.589 240.72 117.654 240.73C117.719 240.74 117.781 240.763 117.837 240.797C117.893 240.832 117.942 240.877 117.981 240.93C118.02 240.983 118.047 241.043 118.063 241.107C118.078 241.171 118.081 241.238 118.071 241.303C118.061 241.368 118.038 241.43 118.003 241.486C117.969 241.542 117.924 241.591 117.871 241.63L115.431 243.4C115.346 243.461 115.245 243.496 115.141 243.5ZM121.641 238.77C121.56 238.771 121.481 238.753 121.41 238.716C121.338 238.679 121.277 238.626 121.231 238.56C121.155 238.452 121.124 238.318 121.144 238.188C121.165 238.057 121.235 237.94 121.341 237.86L123.781 236.09C123.887 236.014 124.019 235.984 124.148 236.004C124.277 236.025 124.393 236.095 124.471 236.2C124.511 236.252 124.54 236.313 124.556 236.377C124.573 236.441 124.576 236.508 124.565 236.573C124.555 236.639 124.532 236.701 124.497 236.758C124.461 236.814 124.415 236.862 124.361 236.9L121.931 238.67C121.848 238.735 121.746 238.771 121.641 238.77ZM128.131 234.04C128.052 234.04 127.974 234.021 127.905 233.985C127.835 233.948 127.775 233.895 127.731 233.83C127.691 233.777 127.661 233.717 127.645 233.653C127.629 233.589 127.626 233.522 127.636 233.456C127.646 233.391 127.67 233.328 127.705 233.272C127.74 233.216 127.786 233.168 127.841 233.13L130.271 231.36C130.378 231.282 130.512 231.249 130.644 231.27C130.775 231.29 130.893 231.362 130.971 231.47C131.049 231.577 131.081 231.711 131.061 231.843C131.04 231.974 130.968 232.092 130.861 232.17L128.421 233.94C128.334 233.992 128.231 234.013 128.131 234V234.04ZM134.631 229.31C134.526 229.31 134.424 229.277 134.338 229.215C134.253 229.154 134.19 229.068 134.156 228.968C134.123 228.868 134.122 228.761 134.154 228.661C134.185 228.561 134.247 228.473 134.331 228.41L136.771 226.63C136.878 226.552 137.012 226.519 137.144 226.54C137.275 226.561 137.393 226.632 137.471 226.74C137.549 226.847 137.581 226.981 137.561 227.113C137.54 227.244 137.468 227.362 137.361 227.44L134.921 229.21C134.838 229.275 134.736 229.311 134.631 229.31ZM141.121 224.58C141.017 224.578 140.916 224.543 140.832 224.481C140.749 224.419 140.687 224.332 140.655 224.233C140.623 224.134 140.623 224.028 140.654 223.928C140.686 223.829 140.747 223.742 140.831 223.68L143.261 221.91C143.313 221.87 143.374 221.841 143.438 221.824C143.502 221.808 143.569 221.805 143.634 221.815C143.7 221.825 143.762 221.849 143.819 221.884C143.875 221.919 143.923 221.965 143.961 222.02C144.036 222.126 144.067 222.258 144.046 222.387C144.026 222.516 143.956 222.632 143.851 222.71L141.411 224.49C141.326 224.549 141.224 224.581 141.121 224.58ZM147.621 219.85C147.516 219.85 147.414 219.817 147.328 219.755C147.243 219.694 147.18 219.608 147.146 219.508C147.113 219.408 147.112 219.301 147.144 219.201C147.175 219.101 147.237 219.013 147.321 218.95L149.761 217.18C149.813 217.14 149.874 217.111 149.938 217.094C150.002 217.078 150.069 217.075 150.134 217.085C150.2 217.095 150.262 217.119 150.319 217.154C150.375 217.189 150.423 217.235 150.461 217.29C150.537 217.398 150.568 217.531 150.547 217.662C150.527 217.793 150.456 217.91 150.351 217.99L147.911 219.76C147.825 219.818 147.724 219.849 147.621 219.85ZM154.111 215.13C154.032 215.129 153.955 215.109 153.886 215.073C153.816 215.036 153.756 214.984 153.711 214.92C153.671 214.867 153.641 214.807 153.625 214.743C153.609 214.679 153.606 214.612 153.616 214.546C153.626 214.481 153.65 214.418 153.685 214.362C153.72 214.306 153.766 214.258 153.821 214.22L156.251 212.45C156.304 212.411 156.364 212.383 156.428 212.367C156.492 212.352 156.559 212.349 156.624 212.359C156.689 212.37 156.751 212.393 156.807 212.427C156.863 212.461 156.912 212.507 156.951 212.56C157.027 212.668 157.058 212.801 157.037 212.932C157.017 213.063 156.946 213.18 156.841 213.26L154.411 215C154.326 215.072 154.221 215.117 154.111 215.13ZM160.611 210.4C160.53 210.401 160.451 210.383 160.38 210.346C160.308 210.309 160.247 210.256 160.201 210.19C160.125 210.082 160.094 209.948 160.114 209.818C160.135 209.687 160.205 209.57 160.311 209.49L162.751 207.72C162.804 207.681 162.864 207.653 162.928 207.638C162.992 207.622 163.059 207.62 163.124 207.63C163.189 207.64 163.251 207.663 163.307 207.697C163.363 207.732 163.412 207.777 163.451 207.83C163.49 207.883 163.517 207.943 163.533 208.007C163.548 208.071 163.551 208.138 163.541 208.203C163.531 208.268 163.508 208.33 163.473 208.386C163.439 208.442 163.394 208.491 163.341 208.53L160.901 210.3C160.818 210.365 160.716 210.401 160.611 210.4ZM167.101 205.67C167.022 205.67 166.945 205.65 166.875 205.614C166.806 205.577 166.746 205.524 166.701 205.46C166.661 205.408 166.632 205.349 166.616 205.285C166.6 205.222 166.597 205.156 166.607 205.091C166.617 205.026 166.641 204.965 166.676 204.909C166.711 204.854 166.757 204.807 166.811 204.77L169.241 202.99C169.348 202.912 169.482 202.879 169.614 202.9C169.745 202.92 169.863 202.992 169.941 203.1C170.019 203.207 170.051 203.341 170.031 203.473C170.01 203.604 169.938 203.722 169.831 203.8L167.401 205.57C167.315 205.635 167.209 205.671 167.101 205.67ZM173.601 200.94C173.522 200.941 173.443 200.923 173.372 200.888C173.301 200.854 173.239 200.803 173.191 200.74C173.115 200.632 173.084 200.498 173.104 200.368C173.125 200.237 173.195 200.12 173.301 200.04L175.741 198.26C175.848 198.182 175.982 198.149 176.114 198.17C176.245 198.19 176.363 198.262 176.441 198.37C176.519 198.477 176.551 198.611 176.531 198.743C176.51 198.874 176.438 198.992 176.331 199.07L173.891 200.85C173.805 200.908 173.704 200.939 173.601 200.94ZM180.091 196.21C180.013 196.209 179.937 196.191 179.868 196.156C179.798 196.121 179.738 196.071 179.691 196.01C179.652 195.957 179.624 195.896 179.608 195.832C179.593 195.768 179.59 195.702 179.6 195.637C179.611 195.572 179.634 195.51 179.668 195.453C179.702 195.397 179.748 195.348 179.801 195.31L182.231 193.54C182.282 193.492 182.344 193.456 182.41 193.434C182.477 193.411 182.547 193.403 182.617 193.41C182.687 193.416 182.755 193.438 182.816 193.472C182.877 193.507 182.93 193.554 182.972 193.611C183.014 193.667 183.043 193.732 183.058 193.801C183.073 193.869 183.074 193.94 183.059 194.009C183.045 194.078 183.016 194.143 182.975 194.2C182.934 194.257 182.882 194.305 182.821 194.34L180.391 196.12C180.302 196.178 180.197 196.21 180.091 196.21ZM186.591 191.49C186.511 191.489 186.432 191.469 186.361 191.433C186.29 191.396 186.228 191.344 186.181 191.28C186.105 191.172 186.074 191.038 186.094 190.908C186.115 190.777 186.185 190.66 186.291 190.58L188.731 188.81C188.784 188.771 188.844 188.743 188.908 188.727C188.972 188.712 189.039 188.709 189.104 188.719C189.169 188.73 189.231 188.753 189.287 188.787C189.343 188.821 189.392 188.867 189.431 188.92C189.507 189.028 189.538 189.161 189.517 189.292C189.497 189.423 189.426 189.54 189.321 189.62L186.881 191.39C186.796 191.451 186.695 191.486 186.591 191.49Z" fill="#263238"/>
<path d="M193.08 186.76C193.002 186.757 192.926 186.737 192.856 186.701C192.787 186.664 192.727 186.613 192.68 186.55C192.642 186.497 192.614 186.436 192.598 186.373C192.583 186.309 192.58 186.242 192.59 186.177C192.6 186.112 192.623 186.05 192.658 185.994C192.692 185.937 192.737 185.889 192.79 185.85L194 184.97C194.06 184.926 194.129 184.896 194.201 184.882C194.274 184.868 194.349 184.871 194.42 184.89L195.87 185.26C196.003 185.293 196.117 185.378 196.187 185.495C196.258 185.612 196.279 185.752 196.245 185.885C196.212 186.018 196.128 186.132 196.011 186.202C195.893 186.272 195.753 186.293 195.62 186.26L194.4 185.95L193.4 186.69C193.304 186.746 193.192 186.77 193.08 186.76Z" fill="#263238"/>
<path d="M304.66 214.36H304.58L301.74 213.63C301.607 213.597 301.493 213.512 301.423 213.395C301.353 213.278 301.332 213.138 301.365 213.005C301.398 212.872 301.483 212.758 301.6 212.688C301.717 212.618 301.857 212.597 301.99 212.63L304.75 213.34C304.835 213.341 304.918 213.364 304.991 213.406C305.064 213.448 305.126 213.508 305.17 213.58C305.206 213.632 305.231 213.692 305.243 213.754C305.255 213.817 305.254 213.881 305.24 213.943C305.226 214.005 305.199 214.063 305.161 214.114C305.123 214.166 305.075 214.208 305.02 214.24C304.911 214.307 304.788 214.348 304.66 214.36ZM297 212.36H296.87L293.95 211.61C293.884 211.594 293.823 211.564 293.768 211.524C293.714 211.484 293.668 211.433 293.633 211.375C293.598 211.317 293.575 211.253 293.565 211.186C293.555 211.119 293.559 211.051 293.575 210.985C293.591 210.919 293.621 210.858 293.661 210.803C293.701 210.749 293.752 210.703 293.81 210.668C293.868 210.633 293.932 210.61 293.999 210.6C294.066 210.59 294.134 210.594 294.2 210.61L297.12 211.36C297.253 211.376 297.373 211.444 297.456 211.549C297.539 211.654 297.576 211.787 297.56 211.92C297.544 212.053 297.476 212.173 297.371 212.256C297.266 212.339 297.133 212.376 297 212.36ZM309.14 211.81C309.05 211.811 308.961 211.788 308.883 211.742C308.806 211.696 308.742 211.63 308.7 211.55C308.638 211.434 308.623 211.299 308.658 211.172C308.694 211.045 308.777 210.937 308.89 210.87L311.5 209.37C311.617 209.305 311.755 209.288 311.884 209.324C312.013 209.359 312.123 209.444 312.19 209.56C312.255 209.675 312.271 209.812 312.236 209.939C312.2 210.067 312.115 210.175 312 210.24L309.39 211.74C309.315 211.789 309.229 211.819 309.14 211.83V211.81ZM289.21 210.35H289.08L286.16 209.6C286.027 209.567 285.913 209.482 285.843 209.365C285.773 209.248 285.752 209.108 285.785 208.975C285.818 208.842 285.903 208.728 286.02 208.658C286.137 208.588 286.277 208.567 286.41 208.6L289.33 209.35C289.463 209.366 289.583 209.434 289.666 209.539C289.748 209.644 289.786 209.777 289.77 209.91C289.754 210.043 289.686 210.163 289.581 210.246C289.476 210.328 289.343 210.366 289.21 210.35ZM281.42 208.35H281.29L278.37 207.6C278.243 207.565 278.134 207.481 278.067 207.368C278 207.254 277.979 207.118 278.01 206.99C278.026 206.926 278.055 206.866 278.095 206.814C278.134 206.761 278.184 206.717 278.24 206.683C278.297 206.65 278.36 206.628 278.425 206.619C278.49 206.61 278.556 206.613 278.62 206.63L281.54 207.38C281.673 207.396 281.793 207.464 281.876 207.569C281.958 207.674 281.996 207.807 281.98 207.94C281.964 208.073 281.896 208.193 281.791 208.276C281.686 208.358 281.553 208.396 281.42 208.38V208.35ZM316.12 207.82C316.03 207.821 315.941 207.798 315.863 207.752C315.786 207.706 315.722 207.64 315.68 207.56C315.615 207.445 315.599 207.308 315.634 207.181C315.67 207.053 315.755 206.945 315.87 206.88L318.48 205.38C318.538 205.346 318.601 205.325 318.667 205.316C318.734 205.307 318.801 205.312 318.865 205.33C318.929 205.347 318.989 205.378 319.042 205.419C319.094 205.46 319.138 205.512 319.17 205.57C319.232 205.686 319.247 205.821 319.212 205.948C319.176 206.075 319.093 206.183 318.98 206.25L316.36 207.75C316.288 207.796 316.205 207.824 316.12 207.83V207.82ZM273.63 206.34H273.51L270.59 205.59C270.526 205.574 270.466 205.545 270.414 205.505C270.361 205.466 270.317 205.416 270.283 205.36C270.25 205.303 270.228 205.24 270.219 205.175C270.21 205.11 270.213 205.044 270.23 204.98C270.245 204.916 270.273 204.855 270.312 204.801C270.351 204.748 270.401 204.703 270.458 204.67C270.515 204.636 270.578 204.614 270.644 204.606C270.71 204.597 270.776 204.602 270.84 204.62L273.76 205.37C273.826 205.379 273.889 205.4 273.946 205.433C274.004 205.466 274.054 205.51 274.095 205.562C274.135 205.615 274.165 205.675 274.182 205.739C274.199 205.803 274.204 205.869 274.195 205.935C274.186 206.001 274.165 206.064 274.132 206.121C274.099 206.179 274.055 206.229 274.003 206.27C273.95 206.31 273.89 206.34 273.826 206.357C273.762 206.374 273.696 206.379 273.63 206.37V206.34ZM265.84 204.34H265.72L262.8 203.59C262.667 203.557 262.553 203.472 262.483 203.355C262.413 203.238 262.392 203.098 262.425 202.965C262.458 202.832 262.543 202.718 262.66 202.648C262.777 202.578 262.917 202.557 263.05 202.59L265.97 203.34C266.036 203.349 266.099 203.37 266.156 203.403C266.214 203.436 266.264 203.48 266.304 203.532C266.345 203.585 266.375 203.645 266.392 203.709C266.409 203.773 266.414 203.839 266.405 203.905C266.396 203.971 266.375 204.034 266.342 204.091C266.309 204.149 266.265 204.199 266.213 204.24C266.16 204.28 266.1 204.31 266.036 204.327C265.972 204.344 265.906 204.349 265.84 204.34ZM323.09 203.83C323.002 203.83 322.915 203.805 322.839 203.759C322.763 203.714 322.702 203.648 322.66 203.57C322.594 203.456 322.576 203.32 322.61 203.193C322.644 203.066 322.726 202.957 322.84 202.89L325.46 201.39C325.517 201.357 325.58 201.335 325.645 201.326C325.711 201.318 325.777 201.323 325.84 201.34C325.904 201.358 325.963 201.388 326.015 201.43C326.066 201.471 326.109 201.522 326.14 201.58C326.174 201.636 326.196 201.699 326.205 201.764C326.215 201.829 326.211 201.895 326.194 201.958C326.177 202.021 326.148 202.081 326.108 202.133C326.067 202.185 326.017 202.228 325.96 202.26L323.34 203.76C323.263 203.803 323.178 203.827 323.09 203.83ZM258.09 202.33H257.97L255.05 201.58C254.917 201.547 254.803 201.462 254.733 201.345C254.663 201.228 254.642 201.088 254.675 200.955C254.708 200.822 254.793 200.708 254.91 200.638C255.027 200.568 255.167 200.547 255.3 200.58L258.22 201.33C258.353 201.347 258.473 201.416 258.554 201.522C258.636 201.628 258.672 201.762 258.655 201.895C258.638 202.028 258.569 202.148 258.463 202.23C258.357 202.311 258.223 202.347 258.09 202.33ZM250.31 200.33H250.18L247.26 199.58C247.127 199.547 247.013 199.462 246.943 199.345C246.873 199.228 246.852 199.088 246.885 198.955C246.918 198.822 247.003 198.708 247.12 198.638C247.237 198.568 247.377 198.547 247.51 198.58L250.43 199.33C250.496 199.338 250.559 199.359 250.617 199.391C250.674 199.423 250.725 199.467 250.766 199.519C250.807 199.571 250.837 199.63 250.855 199.694C250.873 199.758 250.878 199.824 250.87 199.89C250.862 199.956 250.841 200.019 250.809 200.077C250.777 200.134 250.733 200.185 250.681 200.226C250.629 200.267 250.57 200.297 250.506 200.315C250.442 200.333 250.376 200.338 250.31 200.33ZM330.11 199.84C330.022 199.84 329.935 199.815 329.859 199.769C329.783 199.724 329.722 199.658 329.68 199.58C329.646 199.524 329.624 199.461 329.615 199.396C329.605 199.331 329.609 199.265 329.626 199.202C329.643 199.138 329.672 199.079 329.712 199.027C329.753 198.975 329.803 198.932 329.86 198.9L332.48 197.4C332.537 197.367 332.6 197.345 332.665 197.336C332.731 197.328 332.797 197.333 332.86 197.35C332.924 197.368 332.983 197.398 333.035 197.44C333.086 197.481 333.129 197.532 333.16 197.59C333.194 197.646 333.216 197.709 333.225 197.774C333.235 197.839 333.231 197.905 333.214 197.968C333.197 198.032 333.168 198.091 333.128 198.143C333.087 198.195 333.037 198.238 332.98 198.27L330.36 199.77C330.271 199.816 330.17 199.837 330.07 199.83L330.11 199.84ZM242.5 198.31H242.37L239.45 197.56C239.317 197.527 239.203 197.442 239.133 197.325C239.063 197.208 239.042 197.068 239.075 196.935C239.108 196.802 239.193 196.688 239.31 196.618C239.427 196.548 239.567 196.527 239.7 196.56L242.62 197.31C242.753 197.326 242.873 197.394 242.956 197.499C243.038 197.604 243.076 197.737 243.06 197.87C243.044 198.003 242.976 198.123 242.871 198.206C242.766 198.289 242.633 198.326 242.5 198.31ZM234.71 196.31H234.58L231.66 195.56C231.533 195.525 231.424 195.441 231.357 195.328C231.29 195.214 231.269 195.079 231.3 194.95C231.316 194.886 231.345 194.826 231.385 194.774C231.424 194.721 231.474 194.677 231.53 194.643C231.587 194.61 231.65 194.588 231.715 194.579C231.78 194.57 231.846 194.573 231.91 194.59L234.83 195.34C234.963 195.356 235.083 195.424 235.166 195.529C235.248 195.634 235.286 195.767 235.27 195.9C235.254 196.033 235.186 196.153 235.081 196.236C234.976 196.319 234.843 196.356 234.71 196.34V196.31ZM337.07 195.84C336.982 195.84 336.895 195.815 336.819 195.769C336.743 195.724 336.682 195.658 336.64 195.58C336.606 195.524 336.584 195.461 336.575 195.396C336.565 195.331 336.569 195.265 336.586 195.202C336.603 195.138 336.632 195.079 336.672 195.027C336.713 194.975 336.763 194.932 336.82 194.9L339.44 193.4C339.497 193.367 339.56 193.345 339.625 193.336C339.691 193.328 339.757 193.333 339.82 193.35C339.884 193.368 339.943 193.398 339.995 193.44C340.046 193.481 340.089 193.532 340.12 193.59C340.154 193.646 340.176 193.709 340.185 193.774C340.195 193.839 340.191 193.905 340.174 193.968C340.157 194.032 340.128 194.091 340.088 194.143C340.047 194.195 339.997 194.238 339.94 194.27L337.32 195.77C337.237 195.813 337.144 195.833 337.05 195.83L337.07 195.84ZM226.9 194.29H226.78L223.85 193.54C223.723 193.505 223.615 193.421 223.55 193.307C223.484 193.193 223.466 193.057 223.5 192.93C223.515 192.867 223.543 192.807 223.581 192.754C223.62 192.702 223.669 192.658 223.724 192.624C223.78 192.591 223.842 192.568 223.907 192.559C223.971 192.55 224.037 192.554 224.1 192.57L227.03 193.32C227.096 193.329 227.159 193.35 227.216 193.383C227.274 193.416 227.324 193.46 227.365 193.512C227.405 193.565 227.435 193.625 227.452 193.689C227.469 193.753 227.474 193.819 227.465 193.885C227.456 193.951 227.435 194.014 227.402 194.071C227.369 194.129 227.325 194.179 227.273 194.22C227.22 194.26 227.16 194.29 227.096 194.307C227.032 194.324 226.966 194.329 226.9 194.32V194.29ZM219.11 192.29H218.99L216.07 191.54C215.937 191.507 215.823 191.422 215.753 191.305C215.683 191.188 215.662 191.048 215.695 190.915C215.728 190.782 215.813 190.668 215.93 190.598C216.047 190.528 216.187 190.507 216.32 190.54L219.24 191.29C219.373 191.307 219.493 191.376 219.575 191.482C219.656 191.588 219.692 191.722 219.675 191.855C219.658 191.988 219.589 192.108 219.483 192.19C219.377 192.271 219.243 192.307 219.11 192.29ZM344.03 191.84C343.942 191.84 343.855 191.815 343.779 191.769C343.703 191.724 343.642 191.658 343.6 191.58C343.566 191.524 343.544 191.461 343.535 191.396C343.525 191.331 343.529 191.265 343.546 191.202C343.563 191.138 343.592 191.079 343.632 191.027C343.673 190.975 343.723 190.932 343.78 190.9L346.4 189.4C346.457 189.363 346.521 189.339 346.589 189.328C346.656 189.317 346.724 189.32 346.79 189.336C346.856 189.353 346.918 189.383 346.972 189.424C347.026 189.465 347.071 189.517 347.105 189.576C347.138 189.635 347.159 189.701 347.166 189.768C347.173 189.836 347.167 189.904 347.147 189.969C347.126 190.034 347.093 190.094 347.049 190.146C347.005 190.198 346.951 190.24 346.89 190.27L344.28 191.77C344.202 191.808 344.117 191.829 344.03 191.83V191.84ZM211.32 190.28H211.2L208.28 189.53C208.147 189.497 208.033 189.412 207.963 189.295C207.893 189.178 207.872 189.038 207.905 188.905C207.938 188.772 208.023 188.658 208.14 188.588C208.257 188.518 208.397 188.497 208.53 188.53L211.45 189.28C211.516 189.289 211.579 189.31 211.636 189.343C211.694 189.376 211.744 189.42 211.785 189.472C211.825 189.525 211.855 189.585 211.872 189.649C211.889 189.713 211.894 189.779 211.885 189.845C211.876 189.911 211.855 189.974 211.822 190.031C211.789 190.089 211.745 190.139 211.693 190.18C211.64 190.22 211.58 190.25 211.516 190.267C211.452 190.284 211.386 190.289 211.32 190.28ZM203.54 188.28H203.41L200.49 187.53C200.357 187.497 200.243 187.412 200.173 187.295C200.103 187.178 200.082 187.038 200.115 186.905C200.148 186.772 200.233 186.658 200.35 186.588C200.467 186.518 200.607 186.497 200.74 186.53L203.66 187.28C203.793 187.296 203.913 187.364 203.996 187.469C204.078 187.574 204.116 187.707 204.1 187.84C204.084 187.973 204.016 188.093 203.911 188.176C203.806 188.259 203.673 188.296 203.54 188.28ZM351.01 187.85C350.92 187.851 350.831 187.828 350.753 187.782C350.676 187.736 350.612 187.67 350.57 187.59C350.508 187.474 350.493 187.339 350.528 187.212C350.564 187.085 350.647 186.977 350.76 186.91L353.38 185.41C353.437 185.377 353.5 185.355 353.565 185.346C353.631 185.338 353.697 185.343 353.76 185.36C353.824 185.378 353.883 185.408 353.935 185.45C353.986 185.491 354.029 185.542 354.06 185.6C354.125 185.715 354.141 185.852 354.106 185.979C354.07 186.107 353.985 186.215 353.87 186.28L351.26 187.78C351.181 187.815 351.096 187.832 351.01 187.83V187.85ZM358.01 183.85C357.92 183.851 357.831 183.828 357.753 183.782C357.676 183.736 357.612 183.67 357.57 183.59C357.505 183.475 357.489 183.338 357.524 183.211C357.56 183.083 357.645 182.975 357.76 182.91L360.37 181.41C360.427 181.377 360.49 181.356 360.556 181.347C360.621 181.339 360.687 181.343 360.751 181.361C360.814 181.378 360.874 181.407 360.926 181.448C360.978 181.488 361.022 181.538 361.055 181.595C361.088 181.652 361.109 181.715 361.118 181.78C361.126 181.846 361.122 181.912 361.104 181.976C361.087 182.039 361.058 182.099 361.017 182.151C360.977 182.203 360.927 182.247 360.87 182.28L358.25 183.78C358.169 183.819 358.08 183.837 357.99 183.83L358.01 183.85ZM365.01 179.85C364.922 179.85 364.835 179.825 364.759 179.779C364.683 179.734 364.622 179.668 364.58 179.59C364.514 179.476 364.497 179.34 364.53 179.213C364.564 179.086 364.646 178.977 364.76 178.91L367.38 177.41C367.437 177.377 367.5 177.355 367.565 177.346C367.631 177.338 367.697 177.343 367.76 177.36C367.824 177.378 367.883 177.408 367.935 177.45C367.986 177.491 368.029 177.542 368.06 177.6C368.094 177.656 368.116 177.719 368.125 177.784C368.135 177.849 368.131 177.915 368.114 177.978C368.097 178.042 368.068 178.101 368.028 178.153C367.987 178.205 367.937 178.248 367.88 178.28L365.26 179.78C365.167 179.825 365.063 179.842 364.96 179.83L365.01 179.85ZM372.01 175.85C371.922 175.85 371.835 175.825 371.759 175.779C371.683 175.734 371.622 175.668 371.58 175.59C371.546 175.534 371.524 175.471 371.515 175.406C371.505 175.341 371.509 175.275 371.526 175.212C371.543 175.148 371.572 175.089 371.612 175.037C371.653 174.985 371.703 174.942 371.76 174.91L374.38 173.41C374.437 173.377 374.5 173.355 374.565 173.346C374.631 173.338 374.697 173.343 374.76 173.36C374.824 173.378 374.883 173.408 374.935 173.45C374.986 173.491 375.029 173.542 375.06 173.6C375.094 173.656 375.116 173.719 375.125 173.784C375.135 173.849 375.131 173.915 375.114 173.978C375.097 174.042 375.068 174.101 375.028 174.153C374.987 174.205 374.937 174.248 374.88 174.28L372.26 175.78C372.161 175.828 372.049 175.846 371.94 175.83L372.01 175.85ZM379.01 171.85C378.922 171.85 378.835 171.825 378.759 171.779C378.683 171.734 378.622 171.668 378.58 171.59C378.546 171.534 378.524 171.471 378.515 171.406C378.505 171.341 378.509 171.275 378.526 171.212C378.543 171.148 378.572 171.089 378.612 171.037C378.653 170.985 378.703 170.942 378.76 170.91L381.38 169.41C381.437 169.377 381.5 169.356 381.565 169.347C381.631 169.339 381.697 169.343 381.761 169.361C381.824 169.378 381.884 169.407 381.936 169.448C381.988 169.488 382.032 169.538 382.065 169.595C382.098 169.652 382.119 169.715 382.128 169.781C382.136 169.846 382.132 169.912 382.114 169.976C382.097 170.039 382.068 170.099 382.027 170.151C381.987 170.203 381.937 170.247 381.88 170.28L379.26 171.78C379.155 171.833 379.036 171.85 378.92 171.83L379.01 171.85ZM386.01 167.85C385.922 167.85 385.835 167.825 385.759 167.779C385.683 167.734 385.622 167.668 385.58 167.59C385.546 167.534 385.524 167.471 385.515 167.406C385.505 167.341 385.509 167.275 385.526 167.212C385.543 167.148 385.572 167.089 385.612 167.037C385.653 166.985 385.703 166.942 385.76 166.91L388.38 165.41C388.437 165.373 388.501 165.349 388.569 165.338C388.636 165.327 388.704 165.33 388.77 165.346C388.836 165.363 388.898 165.393 388.952 165.434C389.006 165.475 389.051 165.527 389.085 165.586C389.118 165.645 389.139 165.711 389.146 165.778C389.153 165.846 389.147 165.914 389.127 165.979C389.106 166.044 389.073 166.104 389.029 166.156C388.985 166.208 388.931 166.25 388.87 166.28L386.26 167.78C386.148 167.834 386.022 167.852 385.9 167.83L386.01 167.85ZM393.01 163.85C392.92 163.85 392.832 163.826 392.754 163.78C392.677 163.735 392.613 163.669 392.57 163.59C392.508 163.474 392.493 163.339 392.528 163.212C392.564 163.085 392.647 162.977 392.76 162.91L395.38 161.41C395.437 161.377 395.5 161.355 395.565 161.346C395.631 161.338 395.697 161.343 395.76 161.36C395.824 161.378 395.883 161.408 395.935 161.45C395.986 161.491 396.029 161.542 396.06 161.6C396.125 161.715 396.141 161.852 396.106 161.979C396.07 162.107 395.985 162.215 395.87 162.28L393.26 163.78C393.142 163.838 393.009 163.856 392.88 163.83L393.01 163.85ZM400.01 159.85C399.92 159.851 399.831 159.828 399.753 159.782C399.676 159.736 399.612 159.67 399.57 159.59C399.505 159.475 399.489 159.338 399.524 159.211C399.56 159.083 399.645 158.975 399.76 158.91L402.37 157.41C402.428 157.376 402.491 157.355 402.557 157.346C402.624 157.337 402.691 157.342 402.755 157.36C402.819 157.377 402.879 157.408 402.932 157.449C402.984 157.49 403.028 157.542 403.06 157.6C403.122 157.716 403.137 157.851 403.102 157.978C403.066 158.105 402.983 158.213 402.87 158.28L400.25 159.78C400.192 159.814 400.127 159.836 400.06 159.844C399.993 159.853 399.925 159.848 399.86 159.83L400.01 159.85ZM407.01 155.85C406.922 155.85 406.835 155.825 406.759 155.779C406.683 155.734 406.622 155.668 406.58 155.59C406.515 155.475 406.499 155.338 406.534 155.211C406.57 155.083 406.655 154.975 406.77 154.91L409.38 153.41C409.437 153.377 409.5 153.355 409.565 153.346C409.631 153.338 409.697 153.343 409.76 153.36C409.824 153.378 409.883 153.408 409.935 153.45C409.986 153.491 410.029 153.542 410.06 153.6C410.094 153.656 410.116 153.719 410.125 153.784C410.135 153.849 410.131 153.915 410.114 153.978C410.097 154.042 410.068 154.101 410.028 154.153C409.987 154.205 409.937 154.248 409.88 154.28L407.26 155.78C407.195 155.817 407.124 155.84 407.05 155.849C406.976 155.858 406.901 155.851 406.83 155.83L407.01 155.85Z" fill="#263238"/>
<path d="M413.811 151.83C413.722 151.829 413.636 151.805 413.56 151.759C413.484 151.713 413.422 151.648 413.381 151.57C413.347 151.514 413.325 151.451 413.315 151.386C413.306 151.321 413.31 151.255 413.327 151.192C413.344 151.128 413.373 151.069 413.413 151.017C413.453 150.965 413.504 150.922 413.561 150.89L414.871 150.15C414.927 150.118 414.989 150.097 415.054 150.089C415.118 150.081 415.184 150.085 415.247 150.103C415.309 150.12 415.368 150.149 415.419 150.189C415.471 150.229 415.514 150.278 415.546 150.335C415.578 150.391 415.599 150.454 415.607 150.518C415.615 150.583 415.61 150.648 415.593 150.711C415.576 150.773 415.546 150.832 415.507 150.883C415.467 150.935 415.417 150.978 415.361 151.01L414.061 151.76C413.984 151.803 413.898 151.827 413.811 151.83Z" fill="#263238"/>
<path d="M87.9905 265.75C87.9905 266.563 87.7492 267.358 87.2971 268.035C86.8451 268.711 86.2026 269.237 85.451 269.548C84.6994 269.859 83.8725 269.94 83.075 269.78C82.2775 269.621 81.5452 269.229 80.9708 268.653C80.3964 268.077 80.0057 267.344 79.8483 266.546C79.6908 265.748 79.7736 264.921 80.0862 264.17C80.3989 263.42 80.9272 262.778 81.6044 262.328C82.2816 261.878 83.0772 261.638 83.8905 261.64C84.9788 261.643 86.0216 262.077 86.7903 262.847C87.5589 263.618 87.9905 264.662 87.9905 265.75Z" fill="white"/>
<path d="M83.8905 270.35C82.9779 270.352 82.0852 270.083 81.3256 269.577C80.5659 269.071 79.9735 268.351 79.6233 267.509C79.2732 266.666 79.181 265.738 79.3586 264.843C79.5362 263.948 79.9754 263.125 80.6207 262.48C81.2661 261.835 82.0884 261.396 82.9836 261.218C83.8788 261.04 84.8065 261.133 85.6493 261.483C86.4921 261.833 87.2119 262.425 87.7177 263.185C88.2235 263.945 88.4925 264.837 88.4905 265.75C88.4852 266.968 87.9989 268.135 87.1374 268.997C86.2759 269.858 85.1089 270.345 83.8905 270.35ZM83.8905 262.14C83.1761 262.138 82.4772 262.348 81.8822 262.743C81.2872 263.139 80.8229 263.702 80.5482 264.361C80.2734 265.021 80.2005 265.747 80.3387 266.448C80.4768 267.149 80.8198 267.793 81.3243 268.299C81.8288 268.805 82.472 269.15 83.1725 269.29C83.8731 269.43 84.5994 269.359 85.2597 269.086C85.9199 268.813 86.4843 268.35 86.8814 267.757C87.2785 267.163 87.4905 266.464 87.4905 265.75C87.4905 264.794 87.1115 263.877 86.4367 263.201C85.7619 262.524 84.8462 262.143 83.8905 262.14Z" fill="#263238"/>
<path d="M194.3 189.47C196.565 189.47 198.4 187.634 198.4 185.37C198.4 183.106 196.565 181.27 194.3 181.27C192.036 181.27 190.2 183.106 190.2 185.37C190.2 187.634 192.036 189.47 194.3 189.47Z" fill="white"/>
<path d="M194.301 190C193.388 190.002 192.496 189.733 191.737 189.228C190.977 188.722 190.385 188.003 190.034 187.161C189.684 186.319 189.591 185.391 189.768 184.497C189.945 183.602 190.383 182.779 191.027 182.134C191.672 181.488 192.493 181.048 193.388 180.869C194.282 180.69 195.21 180.781 196.053 181.13C196.895 181.478 197.616 182.069 198.123 182.828C198.63 183.586 198.901 184.478 198.901 185.39C198.898 186.61 198.413 187.779 197.551 188.643C196.689 189.507 195.521 189.994 194.301 190ZM194.301 181.79C193.586 181.788 192.886 181.998 192.291 182.394C191.696 182.79 191.232 183.354 190.957 184.014C190.683 184.674 190.611 185.4 190.75 186.102C190.889 186.803 191.233 187.447 191.738 187.952C192.243 188.458 192.888 188.802 193.589 188.941C194.29 189.08 195.017 189.008 195.677 188.733C196.337 188.459 196.901 187.994 197.296 187.399C197.692 186.804 197.903 186.105 197.901 185.39C197.902 184.916 197.81 184.446 197.63 184.008C197.449 183.569 197.185 183.17 196.85 182.834C196.516 182.498 196.119 182.231 195.681 182.048C195.244 181.866 194.775 181.771 194.301 181.77V181.79Z" fill="#263238"/>
<path d="M304.701 217.97C306.965 217.97 308.801 216.134 308.801 213.87C308.801 211.606 306.965 209.77 304.701 209.77C302.436 209.77 300.601 211.606 300.601 213.87C300.601 216.134 302.436 217.97 304.701 217.97Z" fill="white"/>
<path d="M304.711 218.47C303.798 218.472 302.906 218.203 302.146 217.697C301.386 217.191 300.794 216.472 300.444 215.629C300.093 214.786 300.001 213.858 300.179 212.963C300.356 212.068 300.796 211.246 301.441 210.6C302.086 209.955 302.909 209.516 303.804 209.338C304.699 209.161 305.627 209.253 306.47 209.603C307.312 209.953 308.032 210.545 308.538 211.305C309.044 212.065 309.313 212.957 309.311 213.87C309.306 215.088 308.819 216.255 307.958 217.117C307.096 217.978 305.929 218.465 304.711 218.47ZM304.711 210.26C303.996 210.258 303.297 210.468 302.702 210.864C302.107 211.259 301.643 211.822 301.368 212.482C301.094 213.141 301.021 213.867 301.159 214.568C301.297 215.269 301.64 215.913 302.145 216.419C302.649 216.925 303.292 217.27 303.993 217.41C304.693 217.55 305.42 217.479 306.08 217.206C306.74 216.933 307.305 216.471 307.702 215.877C308.099 215.283 308.311 214.584 308.311 213.87C308.311 212.914 307.932 211.998 307.257 211.321C306.582 210.644 305.667 210.263 304.711 210.26Z" fill="#263238"/>
<path d="M415.111 154.68C417.375 154.68 419.211 152.844 419.211 150.58C419.211 148.316 417.375 146.48 415.111 146.48C412.846 146.48 411.011 148.316 411.011 150.58C411.011 152.844 412.846 154.68 415.111 154.68Z" fill="white"/>
<path d="M415.11 155.18C414.201 155.178 413.313 154.907 412.558 154.4C411.802 153.893 411.214 153.174 410.868 152.333C410.521 151.493 410.432 150.568 410.61 149.676C410.789 148.785 411.228 147.966 411.871 147.324C412.515 146.681 413.335 146.244 414.227 146.068C415.119 145.891 416.043 145.983 416.883 146.331C417.723 146.68 418.441 147.269 418.946 148.025C419.451 148.782 419.721 149.671 419.721 150.58C419.718 151.801 419.231 152.971 418.367 153.833C417.502 154.696 416.331 155.18 415.11 155.18ZM415.11 146.98C414.399 146.982 413.704 147.195 413.113 147.592C412.522 147.988 412.063 148.551 411.792 149.209C411.521 149.867 411.451 150.591 411.591 151.288C411.731 151.986 412.075 152.627 412.578 153.129C413.082 153.632 413.724 153.973 414.422 154.112C415.12 154.25 415.843 154.178 416.5 153.905C417.158 153.632 417.719 153.171 418.114 152.579C418.51 151.987 418.721 151.292 418.721 150.58C418.715 149.627 418.332 148.715 417.656 148.044C416.979 147.373 416.064 146.997 415.11 147V146.98Z" fill="#263238"/>
</g>
<defs>
<clipPath id="clip0_18461_34082">
<rect width="500" height="325" fill="white"/>
</clipPath>
</defs>
</svg>
