<svg width="20" height="20" viewBox="0 0 20 20" fill="none" xmlns="http://www.w3.org/2000/svg">
<path fill-rule="evenodd" clip-rule="evenodd" d="M4.16666 10.0001C4.16666 9.53984 4.53975 9.16675 4.99999 9.16675H15C15.4602 9.16675 15.8333 9.53984 15.8333 10.0001C15.8333 10.4603 15.4602 10.8334 15 10.8334H4.99999C4.53975 10.8334 4.16666 10.4603 4.16666 10.0001Z" fill="#5925DC"/>
<path fill-rule="evenodd" clip-rule="evenodd" d="M1.66666 5.00008C1.66666 4.53984 2.03975 4.16675 2.49999 4.16675H17.5C17.9602 4.16675 18.3333 4.53984 18.3333 5.00008C18.3333 5.46032 17.9602 5.83341 17.5 5.83341H2.49999C2.03975 5.83341 1.66666 5.46032 1.66666 5.00008Z" fill="#5925DC"/>
<path fill-rule="evenodd" clip-rule="evenodd" d="M6.66666 15.0001C6.66666 14.5398 7.03975 14.1667 7.49999 14.1667H12.5C12.9602 14.1667 13.3333 14.5398 13.3333 15.0001C13.3333 15.4603 12.9602 15.8334 12.5 15.8334H7.49999C7.03975 15.8334 6.66666 15.4603 6.66666 15.0001Z" fill="#5925DC"/>
</svg>
