<svg width="32" height="43" viewBox="0 0 32 43" fill="none" xmlns="http://www.w3.org/2000/svg">
<g filter="url(#filter0_d_11848_48888)">
<path d="M1.10156 0.9902C1.10156 0.805766 1.25108 0.65625 1.43551 0.65625L21.1269 0.65625C21.2195 0.65625 21.3079 0.694692 21.3711 0.762397L30.7154 10.7789C30.773 10.8407 30.8051 10.922 30.8051 11.0065L30.8228 41.3977C30.8229 41.5822 30.6733 41.7319 30.4888 41.7319H1.43551C1.25108 41.7319 1.10156 41.5824 1.10156 41.3979V0.9902Z" fill="url(#paint0_linear_11848_48888)"/>
<path d="M21.127 0.589844C21.238 0.589867 21.3441 0.635576 21.4199 0.716797L30.7646 10.7334C30.8337 10.8075 30.872 10.9056 30.8721 11.0068L30.8896 41.3975C30.8898 41.6187 30.7105 41.7986 30.4893 41.7988H1.43555C1.21423 41.7988 1.03516 41.6188 1.03516 41.3975V0.990234C1.03516 0.768913 1.21422 0.589844 1.43555 0.589844H21.127Z" stroke="#E5E5E5" stroke-width="0.133579"/>
</g>
<g filter="url(#filter1_d_11848_48888)">
<path d="M21.3409 10.9411L30.6393 10.8433C30.6974 10.8427 30.7271 10.7733 30.6874 10.7309L21.389 0.779952C21.3477 0.735673 21.2734 0.764951 21.2734 0.825552L21.2734 10.8744C21.2734 10.9115 21.3038 10.9415 21.3409 10.9411Z" fill="url(#paint1_linear_11848_48888)"/>
</g>
<path d="M13.6549 7.23447C13.7539 5.43159 15.9642 5.21211 16.5415 7.23447C17.0033 8.85236 16.2606 11.4516 15.7878 13.3077C16.2606 14.399 17.8052 16.4213 18.7258 17.3149C21.7995 16.8446 23.5314 16.897 24.6704 17.4403C26.2151 18.1772 25.8874 19.99 24.3896 20.1368C23.1101 20.2622 21.2222 20.1368 18.5386 17.8949C17.8416 17.989 15.7644 18.3935 13.2805 19.2589C12.3287 20.7952 11.0024 22.8965 9.87905 23.8053C8.03794 25.2946 6.64931 24.8086 6.25925 23.9934C5.72876 22.5511 7.88192 21.2028 11.7982 19.2589C12.4171 18.0256 13.8453 14.9414 14.6067 12.4706C14.2738 11.6711 13.5301 9.50765 13.6549 7.23447ZM11.2677 20.1054C5.93159 22.4191 6.18126 23.9777 7.17983 24.1345C8.1784 24.2912 9.411 23.0214 11.2677 20.1054ZM24.3272 18.7258C24.2648 17.2522 22.018 17.2522 19.0847 17.7538C22.5017 20.1995 24.3272 19.7605 24.3272 18.7258ZM15.5273 13.8972C14.7034 16.3429 13.9046 18.0622 13.6081 18.6161C15.8299 17.9263 17.592 17.5553 18.1953 17.456C16.9596 16.0513 15.9017 14.4982 15.5273 13.8972ZM14.8875 11.6868C16.1825 7.53233 15.7457 6.21545 14.7627 6.35652C13.733 6.52897 13.8734 9.47627 14.8875 11.6868Z" fill="#FF2116"/>
<rect x="0.101562" y="27.4395" width="31.6583" height="11.421" rx="0.333948" fill="url(#paint2_linear_11848_48888)"/>
<g filter="url(#filter2_d_11848_48888)">
<path d="M10.9037 34.0046H9.29695V33.1609H10.9037C11.1836 33.1609 11.4097 33.1157 11.5821 33.0252C11.7545 32.9348 11.8803 32.8104 11.9594 32.6521C12.0414 32.491 12.0824 32.3073 12.0824 32.101C12.0824 31.906 12.0414 31.7237 11.9594 31.5541C11.8803 31.3817 11.7545 31.2432 11.5821 31.1386C11.4097 31.034 11.1836 30.9817 10.9037 30.9817H9.6234V36.3066H8.55926V30.1338H10.9037C11.3814 30.1338 11.787 30.2186 12.1205 30.3882C12.4568 30.5549 12.7126 30.7867 12.8879 31.0835C13.0631 31.3774 13.1507 31.7138 13.1507 32.0925C13.1507 32.491 13.0631 32.833 12.8879 33.1185C12.7126 33.4039 12.4568 33.623 12.1205 33.7756C11.787 33.9282 11.3814 34.0046 10.9037 34.0046ZM15.898 36.3066H14.5795L14.5879 35.463H15.898C16.2795 35.463 16.5989 35.3796 16.8561 35.2128C17.1161 35.0461 17.3112 34.8072 17.4412 34.4963C17.574 34.1854 17.6404 33.8152 17.6404 33.3856V33.0506C17.6404 32.7171 17.6023 32.4218 17.526 32.1646C17.4525 31.9074 17.3423 31.6912 17.1953 31.5159C17.0511 31.3407 16.8731 31.2078 16.6611 31.1174C16.4519 31.027 16.2103 30.9817 15.9361 30.9817H14.554V30.1338H15.9361C16.346 30.1338 16.7204 30.2031 17.0596 30.3416C17.3988 30.4772 17.6913 30.6737 17.9372 30.9309C18.1859 31.1881 18.3767 31.4961 18.5096 31.8551C18.6424 32.214 18.7088 32.6154 18.7088 33.0591V33.3856C18.7088 33.8293 18.6424 34.2307 18.5096 34.5896C18.3767 34.9486 18.1859 35.2566 17.9372 35.5138C17.6885 35.7682 17.3917 35.9646 17.0469 36.1031C16.7049 36.2388 16.3219 36.3066 15.898 36.3066ZM15.1688 30.1338V36.3066H14.1046V30.1338H15.1688ZM20.8413 30.1338V36.3066H19.7772V30.1338H20.8413ZM23.3596 32.8344V33.6781H20.57V32.8344H23.3596ZM23.7115 30.1338V30.9817H20.57V30.1338H23.7115Z" fill="white"/>
</g>
<defs>
<filter id="filter0_d_11848_48888" x="0.434433" y="0.389858" width="31.053" height="42.4104" filterUnits="userSpaceOnUse" color-interpolation-filters="sRGB">
<feFlood flood-opacity="0" result="BackgroundImageFix"/>
<feColorMatrix in="SourceAlpha" type="matrix" values="0 0 0 0 0 0 0 0 0 0 0 0 0 0 0 0 0 0 127 0" result="hardAlpha"/>
<feOffset dy="0.400738"/>
<feGaussianBlur stdDeviation="0.267159"/>
<feComposite in2="hardAlpha" operator="out"/>
<feColorMatrix type="matrix" values="0 0 0 0 0 0 0 0 0 0 0 0 0 0 0 0 0 0 0.35 0"/>
<feBlend mode="normal" in2="BackgroundImageFix" result="effect1_dropShadow_11848_48888"/>
<feBlend mode="normal" in="SourceGraphic" in2="effect1_dropShadow_11848_48888" result="shape"/>
</filter>
<filter id="filter1_d_11848_48888" x="20.5388" y="0.357075" width="10.4983" height="11.2522" filterUnits="userSpaceOnUse" color-interpolation-filters="sRGB">
<feFlood flood-opacity="0" result="BackgroundImageFix"/>
<feColorMatrix in="SourceAlpha" type="matrix" values="0 0 0 0 0 0 0 0 0 0 0 0 0 0 0 0 0 0 127 0" result="hardAlpha"/>
<feOffset dx="-0.200369" dy="0.133579"/>
<feGaussianBlur stdDeviation="0.267159"/>
<feComposite in2="hardAlpha" operator="out"/>
<feColorMatrix type="matrix" values="0 0 0 0 0 0 0 0 0 0 0 0 0 0 0 0 0 0 0.25 0"/>
<feBlend mode="normal" in2="BackgroundImageFix" result="effect1_dropShadow_11848_48888"/>
<feBlend mode="normal" in="SourceGraphic" in2="effect1_dropShadow_11848_48888" result="shape"/>
</filter>
<filter id="filter2_d_11848_48888" x="8.29534" y="30.1348" width="15.6828" height="6.70619" filterUnits="userSpaceOnUse" color-interpolation-filters="sRGB">
<feFlood flood-opacity="0" result="BackgroundImageFix"/>
<feColorMatrix in="SourceAlpha" type="matrix" values="0 0 0 0 0 0 0 0 0 0 0 0 0 0 0 0 0 0 127 0" result="hardAlpha"/>
<feOffset dy="0.267159"/>
<feGaussianBlur stdDeviation="0.133579"/>
<feComposite in2="hardAlpha" operator="out"/>
<feColorMatrix type="matrix" values="0 0 0 0 0 0 0 0 0 0 0 0 0 0 0 0 0 0 0.25 0"/>
<feBlend mode="normal" in2="BackgroundImageFix" result="effect1_dropShadow_11848_48888"/>
<feBlend mode="normal" in="SourceGraphic" in2="effect1_dropShadow_11848_48888" result="shape"/>
</filter>
<linearGradient id="paint0_linear_11848_48888" x1="15.5281" y1="0.65625" x2="15.5281" y2="41.7319" gradientUnits="userSpaceOnUse">
<stop stop-color="#F7F7F7"/>
<stop offset="1" stop-color="white"/>
</linearGradient>
<linearGradient id="paint1_linear_11848_48888" x1="26.0489" y1="0.65625" x2="26.0489" y2="10.9419" gradientUnits="userSpaceOnUse">
<stop stop-color="#F6F6F6"/>
<stop offset="1" stop-color="white"/>
</linearGradient>
<linearGradient id="paint2_linear_11848_48888" x1="15.9307" y1="42.1666" x2="15.9307" y2="25.5359" gradientUnits="userSpaceOnUse">
<stop stop-color="#D0180E"/>
<stop offset="1" stop-color="#FF2116"/>
</linearGradient>
</defs>
</svg>
