<svg width="76" height="73" viewBox="0 0 76 73" fill="none" xmlns="http://www.w3.org/2000/svg">
<path d="M0 8.00001C0 3.58173 3.58172 0 8 0H68.0039C72.4222 0 76.0039 3.58172 76.0039 8V64.5492C76.0039 68.9674 72.4222 72.5492 68.0039 72.5492H8C3.58172 72.5492 0 68.9675 0 64.5492V8.00001Z" fill="#BDB4FE"/>
<g clip-path="url(#clip0_15297_32559)">
<g filter="url(#filter0_d_15297_32559)">
<rect x="4" y="3" width="69" height="66" rx="3.01029" fill="white"/>
</g>
<circle cx="38.0314" cy="37.6417" r="12.2501" fill="#E9ECF1"/>
<path d="M34.1484 41.4962C34.1484 39.7411 35.5712 38.3184 37.3262 38.3184H38.7388C40.4939 38.3184 41.9166 39.7411 41.9166 41.4962H34.1484Z" fill="#2B43FF"/>
<circle cx="38.0023" cy="35.6986" r="1.91638" fill="#2B43FF"/>
<path d="M46.4919 62.0052C33.0352 66.6786 18.3378 59.5583 13.6644 46.1015C8.99097 32.6448 16.1113 17.9474 29.568 13.274C43.0247 8.60056 57.7221 15.7209 62.3956 29.1776C67.069 42.6343 59.9487 57.3317 46.4919 62.0052ZM30.943 17.2331C19.6728 21.1472 13.7095 33.4564 17.6235 44.7265C21.5376 55.9967 33.8468 61.96 45.117 58.046C56.3871 54.132 62.3504 41.8227 58.4364 30.5526C54.5224 19.2824 42.2132 13.3191 30.943 17.2331Z" fill="#E9ECF1"/>
<path d="M31.8183 60.5099C31.5149 61.6267 32.1734 62.7871 33.3112 62.9988C36.1404 63.5255 39.0428 63.5758 41.8978 63.1429C45.4447 62.6052 48.8404 61.3334 51.8679 59.4089C54.8955 57.4845 57.4883 54.9496 59.4807 51.9663C61.4731 48.983 62.8213 45.6169 63.4391 42.0831C64.0569 38.5493 63.9307 34.9254 63.0686 31.4431C62.2066 27.9608 60.6276 24.6966 58.4325 21.8591C56.2375 19.0216 53.4746 16.6732 50.3206 14.964C47.7818 13.5881 45.0345 12.6508 42.1944 12.1863C41.0523 11.9995 40.0391 12.8675 39.9456 14.0211C39.8521 15.1746 40.7145 16.1753 41.8536 16.38C44.1129 16.7862 46.2976 17.5508 48.3237 18.6488C50.9653 20.0803 53.2791 22.0471 55.1175 24.4235C56.9559 26.8 58.2783 29.5338 59.0003 32.4502C59.7223 35.3667 59.828 38.4017 59.3106 41.3613C58.7932 44.321 57.664 47.1401 55.9954 49.6386C54.3267 52.1372 52.1552 54.2602 49.6196 55.8719C47.084 57.4837 44.2401 58.5488 41.2695 58.9992C38.9911 59.3446 36.6766 59.3226 34.4134 58.9382C33.2724 58.7444 32.1217 59.393 31.8183 60.5099Z" fill="#3243FD"/>
</g>
<defs>
<filter id="filter0_d_15297_32559" x="1.59177" y="1.79588" width="73.8165" height="70.8165" filterUnits="userSpaceOnUse" color-interpolation-filters="sRGB">
<feFlood flood-opacity="0" result="BackgroundImageFix"/>
<feColorMatrix in="SourceAlpha" type="matrix" values="0 0 0 0 0 0 0 0 0 0 0 0 0 0 0 0 0 0 127 0" result="hardAlpha"/>
<feMorphology radius="1.00343" operator="erode" in="SourceAlpha" result="effect1_dropShadow_15297_32559"/>
<feOffset dy="1.20412"/>
<feGaussianBlur stdDeviation="1.70583"/>
<feComposite in2="hardAlpha" operator="out"/>
<feColorMatrix type="matrix" values="0 0 0 0 0.227451 0 0 0 0 0.301961 0 0 0 0 0.913725 0 0 0 0.15 0"/>
<feBlend mode="normal" in2="BackgroundImageFix" result="effect1_dropShadow_15297_32559"/>
<feBlend mode="normal" in="SourceGraphic" in2="effect1_dropShadow_15297_32559" result="shape"/>
</filter>
<clipPath id="clip0_15297_32559">
<rect width="69" height="67" fill="white" transform="translate(4 3)"/>
</clipPath>
</defs>
</svg>
