<svg width="24" height="23" viewBox="0 0 24 23" fill="none" xmlns="http://www.w3.org/2000/svg">
<path d="M10.4012 12.3719C10.8102 12.9187 11.332 13.3711 11.9313 13.6985C12.5305 14.0259 13.1931 14.2206 13.8742 14.2694C14.5553 14.3181 15.2389 14.2199 15.8787 13.9812C16.5185 13.7426 17.0994 13.3691 17.5822 12.8862L20.4393 10.029C21.3067 9.13094 21.7867 7.92807 21.7759 6.67951C21.765 5.43096 21.2642 4.23661 20.3813 3.35371C19.4984 2.47082 18.3041 1.97001 17.0555 1.95916C15.807 1.94831 14.6041 2.42829 13.706 3.29571L12.0679 4.92428M14.2108 10.4671C13.8018 9.92035 13.2799 9.46791 12.6807 9.14053C12.0815 8.81314 11.4188 8.61845 10.7378 8.56968C10.0567 8.5209 9.37305 8.61917 8.73328 8.85782C8.09351 9.09647 7.51255 9.46993 7.0298 9.95285L4.17266 12.81C3.30524 13.7081 2.82527 14.911 2.83612 16.1595C2.84697 17.4081 3.34777 18.6024 4.23067 19.4853C5.11356 20.3682 6.30791 20.869 7.55646 20.8799C8.80502 20.8907 10.0079 20.4107 10.906 19.5433L12.5346 17.9148" stroke="#6938EF" stroke-width="1.90476" stroke-linecap="round" stroke-linejoin="round"/>
</svg>
