<svg width="40" height="29" viewBox="0 0 40 29" fill="none" xmlns="http://www.w3.org/2000/svg">
<g clip-path="url(#clip0_11951_2191)">
<mask id="mask0_11951_2191" style="mask-type:luminance" maskUnits="userSpaceOnUse" x="-5" y="-5" width="171" height="39">
<path d="M-4.57227 -4.63989H165.63V33.2793H-4.57227V-4.63989Z" fill="white"/>
</mask>
<g mask="url(#mask0_11951_2191)">
<path d="M18.124 3.60002C14.9922 3.7426 11.8761 4.20369 8.83691 4.97952C9.70777 8.07878 10.897 11.0832 12.3834 13.935C13.3685 14.2953 14.3179 14.6042 15.185 14.8633C13.6336 12.2034 12.3577 9.38497 11.3867 6.45988C13.6063 6.0046 15.8613 5.72552 18.124 5.61681V3.60002Z" fill="#6938EF"/>
</g>
<mask id="mask1_11951_2191" style="mask-type:luminance" maskUnits="userSpaceOnUse" x="-5" y="-5" width="171" height="39">
<path d="M-4.57227 -4.63989H165.63V33.2793H-4.57227V-4.63989Z" fill="white"/>
</mask>
<g mask="url(#mask1_11951_2191)">
<path d="M20.3555 24.5738C20.7625 24.1484 21.1616 23.7149 21.5508 23.2735C20.5167 23.1668 19.4748 23.0202 18.4111 22.8184C18.9282 23.4181 19.459 24.0018 20.0054 24.5738L20.1805 24.7559L20.3555 24.5738Z" fill="#6938EF"/>
</g>
<mask id="mask2_11951_2191" style="mask-type:luminance" maskUnits="userSpaceOnUse" x="-5" y="-5" width="171" height="39">
<path d="M-4.57129 -4.63989H165.631V33.2793H-4.57129V-4.63989Z" fill="white"/>
</mask>
<g mask="url(#mask2_11951_2191)">
<path d="M20.1815 26.2301C18.9744 25.0367 17.8342 23.778 16.7609 22.4617C15.703 22.2026 14.6159 21.8838 13.4834 21.4841C15.4534 24.2095 17.6986 26.7309 20.1815 29.001C22.0335 27.3088 23.7536 25.474 25.3246 23.5186C24.4871 23.489 23.6574 23.4494 22.8278 23.3879C21.9843 24.3718 21.1016 25.3198 20.1815 26.2301Z" fill="#6938EF"/>
</g>
<mask id="mask3_11951_2191" style="mask-type:luminance" maskUnits="userSpaceOnUse" x="-5" y="-5" width="171" height="39">
<path d="M-4.57129 -4.63989H165.631V33.2793H-4.57129V-4.63989Z" fill="white"/>
</mask>
<g mask="url(#mask3_11951_2191)">
<path d="M39.2967 16.5113C38.4671 14.3797 35.7679 12.5806 32.6204 11.124C32.6169 11.1325 32.6132 11.1411 32.6096 11.1497C33.6736 8.53938 34.5181 5.83903 35.125 3.07877L35.1742 2.85909L34.9618 2.79185C33.1709 2.22382 31.1065 1.68157 28.7985 1.268C26.3884 0.83648 24.1786 0.62666 22.238 0.545513V2.56231C23.8737 2.6336 25.7021 2.79968 27.6758 3.12048C29.5594 3.4251 31.2697 3.82097 32.7894 4.24466C31.8083 8.06817 30.3554 11.7575 28.4683 15.217L25.8397 13.6911L25.7199 13.9067C25.124 14.9892 24.4812 16.0481 23.7951 17.0773C24.5226 17.2593 25.2127 17.4256 25.8711 17.572C26.1071 17.2019 26.3391 16.8318 26.5651 16.4559L29.1938 17.9838L29.3156 17.778C30.4757 15.8259 31.4987 13.7965 32.3799 11.7074C32.3656 11.7418 32.3517 11.7764 32.3372 11.8108C32.3628 11.8247 32.3884 11.8424 32.4158 11.8603C33.4283 12.4896 34.4073 13.1903 35.3412 13.9621C36.0431 14.6014 37.323 15.7572 37.6512 16.8773C37.7318 17.1506 37.7554 17.4178 37.7024 17.6789C37.4724 18.1797 36.8748 18.4707 36.3321 18.6507C35.6343 18.8842 34.84 18.997 34.0437 19.0642C32.2428 19.1593 30.4363 19.0761 28.6333 18.8764C27.9041 18.7953 27.1766 18.6941 26.4491 18.5774C26.0775 18.5182 25.7041 18.4547 25.3324 18.3875C24.617 18.2588 23.9013 18.1183 23.1897 17.9658C21.8626 17.685 20.5415 17.3723 19.2302 17.0535C17.7853 16.6657 16.3344 16.2638 14.8932 15.8206C14.0302 15.5554 13.1691 15.2743 12.3178 14.9715C11.8872 14.8211 11.4588 14.6646 11.0321 14.5023C10.2868 14.2154 9.54983 13.9125 8.82036 13.5842C7.55049 13.0181 6.30799 12.3809 5.10868 11.6543C4.41863 11.2031 3.74816 10.7182 3.20752 10.1681C2.79469 9.74446 2.37006 9.19842 2.35047 8.64025C2.37006 8.52927 2.40747 8.42638 2.45468 8.32754C2.97373 7.21929 4.88444 6.7185 5.90495 6.44144C5.96723 6.42956 6.02975 6.41591 6.09027 6.40201C6.66155 8.34675 7.35161 10.2551 8.15591 12.1157C9.07398 12.5826 10.0177 13.0042 10.9475 13.3822C9.51644 10.4629 8.38191 7.39928 7.57384 4.24466C11.3506 3.18975 15.2531 2.61186 19.1732 2.52869V5.58245C22.4602 5.50914 25.7533 5.80212 28.9753 6.46116C28.2579 8.62432 27.3712 10.7321 26.3331 12.7588L28.067 13.7662C29.5122 10.9657 30.6721 8.01888 31.5233 4.9808C28.1459 4.11978 24.674 3.64301 21.1901 3.56767V0.511893C15.7681 0.401169 10.3539 1.19469 5.18929 2.85909C5.35954 3.64983 5.54913 4.43602 5.7578 5.21665C5.75705 5.21387 5.7563 5.21109 5.75554 5.20831C5.7121 5.21235 5.66891 5.2164 5.62572 5.22019L5.6217 5.22221C3.82098 5.40827 2.30327 5.88327 1.34779 6.80344C-0.095349 8.22263 0.520122 10.4927 1.60342 11.874C3.75795 14.6072 7.42066 16.9961 11.679 18.8109C12.7266 19.2584 13.8099 19.6699 14.9168 20.042C15.4693 20.2301 16.0295 20.4063 16.5917 20.5724C17.6693 20.8929 18.7603 21.1761 19.8554 21.4195C20.0383 21.461 20.2231 21.5007 20.4059 21.5404C21.1647 21.6986 21.9216 21.8392 22.6764 21.958C23.0754 22.0232 23.4727 22.0806 23.8679 22.1319C24.6622 22.235 25.4484 22.3162 26.2231 22.3715C30.1294 22.6564 33.7507 22.32 36.4913 21.2117C36.7017 21.1265 36.9102 21.0355 37.1106 20.9425C38.6283 20.2281 40.0398 18.4863 39.2967 16.5113Z" fill="#6938EF"/>
</g>
</g>
<defs>
<clipPath id="clip0_11951_2191">
<rect width="39" height="28.5" fill="white" transform="translate(0.5 0.5)"/>
</clipPath>
</defs>
</svg>
