<svg width="213" height="117" viewBox="0 0 213 117" fill="none" xmlns="http://www.w3.org/2000/svg">
<g clip-path="url(#clip0_17768_247089)">
<rect x="-9" y="-27" width="213" height="171" fill="#FAFAFF"/>
<path fill-rule="evenodd" clip-rule="evenodd" d="M167.365 28.5742C170.659 28.5742 173.329 31.2538 173.329 34.5592C173.329 37.8646 170.659 40.5442 167.365 40.5442H133.285C136.579 40.5442 139.249 43.2238 139.249 46.5292C139.249 49.8346 136.579 52.5142 133.285 52.5142H152.029C155.323 52.5142 157.993 55.1938 157.993 58.4992C157.993 61.8046 155.323 64.4842 152.029 64.4842H143.361C139.208 64.4842 135.841 67.1638 135.841 70.4692C135.841 72.6728 137.545 74.6678 140.953 76.4542C144.247 76.4542 146.917 79.1338 146.917 82.4392C146.917 85.7446 144.247 88.4242 140.953 88.4242H70.2369C66.9431 88.4242 64.2729 85.7446 64.2729 82.4392C64.2729 79.1338 66.9431 76.4542 70.2369 76.4542H37.0089C33.7151 76.4542 31.0449 73.7746 31.0449 70.4692C31.0449 67.1638 33.7151 64.4842 37.0089 64.4842H71.0889C74.3827 64.4842 77.0529 61.8046 77.0529 58.4992C77.0529 55.1938 74.3827 52.5142 71.0889 52.5142H49.7889C46.4951 52.5142 43.8249 49.8346 43.8249 46.5292C43.8249 43.2238 46.4951 40.5442 49.7889 40.5442H83.8689C80.5751 40.5442 77.9049 37.8646 77.9049 34.5592C77.9049 31.2538 80.5751 28.5742 83.8689 28.5742H167.365ZM167.365 52.5142C170.659 52.5142 173.329 55.1938 173.329 58.4992C173.329 61.8046 170.659 64.4842 167.365 64.4842C164.071 64.4842 161.401 61.8046 161.401 58.4992C161.401 55.1938 164.071 52.5142 167.365 52.5142Z" fill="#D9D6FE"/>
<g clip-path="url(#clip1_17768_247089)">
<path d="M157.38 28.6912H156.556V26.4936C156.556 23.3801 154.023 20.8471 150.909 20.8471H113.503L110.547 17.8196C109.263 16.5044 107.472 15.75 105.634 15.75H80.6485C77.535 15.75 75.002 18.283 75.002 21.3966V77.3122C75.002 80.4257 77.5349 82.9587 80.6485 82.9587H157.38C160.493 82.9587 163.026 80.4258 163.026 77.3122V34.3377C163.026 31.2241 160.493 28.6912 157.38 28.6912ZM150.909 24.815C151.835 24.815 152.588 25.568 152.588 26.4937V28.6913H122.384C121.607 28.6913 120.851 28.3728 120.309 27.8174L117.377 24.8151H150.909V24.815ZM159.059 77.3122C159.059 78.2378 158.306 78.9909 157.38 78.9909H80.6485C79.7229 78.9909 78.9698 78.2379 78.9698 77.3122V21.3966C78.9698 20.4709 79.7228 19.7178 80.6485 19.7178H105.634C106.41 19.7178 107.166 20.0363 107.708 20.5917L117.47 30.5893C118.755 31.9046 120.545 32.6589 122.384 32.6589H157.38C158.306 32.6589 159.059 33.4119 159.059 34.3376V77.3122H159.059Z" fill="#6938EF"/>
</g>
<path d="M86 31H108.152M86 41.26H122.636M86 52.375H122.636M86 63.49H122.636M86 74.605H108.152" stroke="#9B8AFB" stroke-width="2.5" stroke-linecap="round" stroke-linejoin="round"/>
</g>
<defs>
<clipPath id="clip0_17768_247089">
<rect width="213" height="117" fill="white"/>
</clipPath>
<clipPath id="clip1_17768_247089">
<rect width="88" height="70.6149" fill="white" transform="translate(75.002 15.75)"/>
</clipPath>
</defs>
</svg>
