<svg width="148" height="148" viewBox="0 0 148 148" fill="none" xmlns="http://www.w3.org/2000/svg">
<rect width="148" height="148" rx="74" fill="#EBE9FE"/>
<path d="M114.154 94.3665L110.586 91.6906C109.243 90.6863 108.342 89.2006 108.073 87.5458L103.596 60.3888C102.507 53.3219 98.9258 46.8778 93.4992 42.2216C88.0726 37.5655 81.1592 35.0046 74.0089 35.002C66.8585 34.9993 59.9432 37.5552 54.5132 42.2074C49.0833 46.8595 45.497 53.301 44.4029 60.3671L39.9266 87.5458C39.6572 89.1996 38.757 90.6846 37.4154 91.6885L33.8404 94.3665C32.5065 95.3675 31.5214 96.7629 31.0247 98.3549C30.5279 99.9469 30.5448 101.655 31.0728 103.237C31.6008 104.819 32.6133 106.194 33.9667 107.169C35.3201 108.143 36.9458 108.667 38.6136 108.666H109.39C111.057 108.666 112.682 108.141 114.034 107.166C115.387 106.191 116.398 104.815 116.925 103.234C117.452 101.652 117.469 99.9448 116.972 98.3533C116.475 96.7619 115.488 95.3671 114.154 94.3665Z" fill="#7A5AF8"/>
<path d="M80.4989 40.113C79.9243 40.113 79.3732 39.8847 78.9668 39.4784C78.5605 39.0721 78.3322 38.521 78.3322 37.9463V34.9997C78.3322 33.8504 77.8757 32.7482 77.063 31.9355C76.2504 31.1229 75.1482 30.6663 73.9989 30.6663C72.8496 30.6663 71.7474 31.1229 70.9348 31.9355C70.1221 32.7482 69.6656 33.8504 69.6656 34.9997V37.9463C69.6656 38.521 69.4373 39.0721 69.031 39.4784C68.6246 39.8847 68.0735 40.113 67.4989 40.113C66.9243 40.113 66.3732 39.8847 65.9668 39.4784C65.5605 39.0721 65.3322 38.521 65.3322 37.9463V34.9997C65.3322 32.7011 66.2453 30.4967 67.8707 28.8714C69.496 27.2461 71.7004 26.333 73.9989 26.333C76.2975 26.333 78.5019 27.2461 80.1272 28.8714C81.7525 30.4967 82.6656 32.7011 82.6656 34.9997V37.9463C82.6656 38.521 82.4373 39.0721 82.031 39.4784C81.6246 39.8847 81.0735 40.113 80.4989 40.113ZM60.3164 113C61.5418 115.592 63.4785 117.783 65.9008 119.317C68.3232 120.851 71.1315 121.666 73.9989 121.666C76.8663 121.666 79.6747 120.851 82.097 119.317C84.5194 117.783 86.456 115.592 87.6814 113H60.3164Z" fill="#7A5AF8"/>
<circle cx="126" cy="22" r="16" fill="#7A5AF8"/>
</svg>
