<svg width="29" height="29" viewBox="0 0 29 29" fill="none" xmlns="http://www.w3.org/2000/svg">
<rect width="28.8" height="28.8" rx="14.4" fill="#F4F3FF"/>
<path d="M21.4004 20.7001V19.3001C21.4004 17.9954 20.5081 16.8991 19.3004 16.5883M16.8504 8.30363C17.8765 8.719 18.6004 9.72502 18.6004 10.9001C18.6004 12.0752 17.8765 13.0812 16.8504 13.4966M17.9004 20.7001C17.9004 19.3955 17.9004 18.7431 17.6873 18.2286C17.4031 17.5425 16.858 16.9974 16.1719 16.7132C15.6573 16.5001 15.005 16.5001 13.7004 16.5001H11.6004C10.2958 16.5001 9.64344 16.5001 9.12888 16.7132C8.4428 16.9974 7.89771 17.5425 7.61353 18.2286C7.40039 18.7431 7.40039 19.3955 7.40039 20.7001M15.4504 10.9001C15.4504 12.4465 14.1968 13.7001 12.6504 13.7001C11.104 13.7001 9.85039 12.4465 9.85039 10.9001C9.85039 9.3537 11.104 8.1001 12.6504 8.1001C14.1968 8.1001 15.4504 9.3537 15.4504 10.9001Z" stroke="#6938EF" stroke-width="1.2" stroke-linecap="round" stroke-linejoin="round"/>
</svg>
