<svg width="76" height="73" viewBox="0 0 76 73" fill="none" xmlns="http://www.w3.org/2000/svg">
<path d="M0 8.00001C0 3.58173 3.58172 0 8 0H68.0039C72.4222 0 76.0039 3.58172 76.0039 8V64.5492C76.0039 68.9674 72.4222 72.5492 68.0039 72.5492H8C3.58172 72.5492 0 68.9675 0 64.5492V8.00001Z" fill="#BDB4FE"/>
<g clip-path="url(#clip0_15297_32496)">
<g filter="url(#filter0_d_15297_32496)">
<rect x="4" y="3" width="69" height="66" rx="3.01029" fill="white"/>
</g>
<circle cx="39.1538" cy="37.7007" r="15.4624" fill="#F4F3FF"/>
<path d="M33.2559 40.9293C32.9012 40.9293 32.5823 40.8614 32.2993 40.7256C32.0182 40.5878 31.7936 40.3992 31.6257 40.1595C31.4578 39.9199 31.3682 39.6463 31.3568 39.3388H32.2059C32.2266 39.5878 32.337 39.7926 32.537 39.9529C32.737 40.1133 32.9766 40.1935 33.2559 40.1935C33.4785 40.1935 33.6757 40.1426 33.8474 40.0407C34.021 39.9369 34.1568 39.7945 34.2549 39.6133C34.3549 39.4322 34.4049 39.2256 34.4049 38.9935C34.4049 38.7577 34.354 38.5473 34.2521 38.3624C34.1502 38.1775 34.0096 38.0322 33.8304 37.9265C33.653 37.8209 33.4493 37.7671 33.2191 37.7652C33.0436 37.7652 32.8672 37.7954 32.6898 37.8558C32.5125 37.9162 32.3691 37.9954 32.2597 38.0935L31.4587 37.9747L31.7842 35.0539H34.971V35.8039H32.5115L32.3276 37.4256H32.3616C32.4748 37.3162 32.6248 37.2247 32.8115 37.1511C33.0002 37.0775 33.2021 37.0407 33.4172 37.0407C33.77 37.0407 34.0842 37.1247 34.3596 37.2926C34.637 37.4605 34.8549 37.6898 35.0134 37.9803C35.1738 38.269 35.253 38.6011 35.2511 38.9765C35.253 39.352 35.1681 39.6869 34.9964 39.9812C34.8266 40.2756 34.5908 40.5076 34.2889 40.6775C33.9889 40.8454 33.6446 40.9293 33.2559 40.9293ZM38.3028 40.9463C37.8556 40.9444 37.4735 40.8265 37.1565 40.5926C36.8396 40.3586 36.5971 40.018 36.4292 39.5709C36.2613 39.1237 36.1773 38.585 36.1773 37.9549C36.1773 37.3266 36.2613 36.7898 36.4292 36.3445C36.599 35.8992 36.8424 35.5596 37.1594 35.3256C37.4782 35.0917 37.8594 34.9747 38.3028 34.9747C38.7461 34.9747 39.1263 35.0926 39.4433 35.3285C39.7603 35.5624 40.0027 35.902 40.1707 36.3473C40.3405 36.7907 40.4254 37.3266 40.4254 37.9549C40.4254 38.5869 40.3414 39.1265 40.1735 39.5737C40.0056 40.019 39.7631 40.3595 39.4461 40.5954C39.1292 40.8293 38.748 40.9463 38.3028 40.9463ZM38.3028 40.1907C38.6952 40.1907 39.0018 39.9992 39.2226 39.6162C39.4452 39.2331 39.5565 38.6794 39.5565 37.9549C39.5565 37.4737 39.5056 37.0671 39.4037 36.7351C39.3037 36.4011 39.1593 36.1483 38.9707 35.9766C38.7839 35.803 38.5612 35.7162 38.3028 35.7162C37.9122 35.7162 37.6056 35.9086 37.383 36.2936C37.1603 36.6785 37.048 37.2322 37.0462 37.9549C37.0462 38.4379 37.0962 38.8463 37.1962 39.1803C37.298 39.5124 37.4424 39.7643 37.6292 39.936C37.816 40.1058 38.0405 40.1907 38.3028 40.1907ZM44.4548 39.7633V39.4577C44.4548 39.2388 44.5001 39.0388 44.5906 38.8577C44.6831 38.6747 44.8171 38.5284 44.9925 38.419C45.1699 38.3077 45.384 38.252 45.635 38.252C45.8916 38.252 46.1067 38.3067 46.2802 38.4162C46.4538 38.5256 46.585 38.6718 46.6736 38.8548C46.7642 39.0379 46.8095 39.2388 46.8095 39.4577V39.7633C46.8095 39.9822 46.7642 40.1831 46.6736 40.3661C46.5831 40.5473 46.4501 40.6935 46.2746 40.8048C46.101 40.9142 45.8878 40.969 45.635 40.969C45.3803 40.969 45.1652 40.9142 44.9897 40.8048C44.8142 40.6935 44.6812 40.5473 44.5906 40.3661C44.5001 40.1831 44.4548 39.9822 44.4548 39.7633ZM45.1142 39.4577V39.7633C45.1142 39.9256 45.1529 40.0727 45.2303 40.2048C45.3076 40.3369 45.4425 40.4029 45.635 40.4029C45.8255 40.4029 45.9586 40.3369 46.034 40.2048C46.1095 40.0727 46.1472 39.9256 46.1472 39.7633V39.4577C46.1472 39.2954 46.1104 39.1482 46.0369 39.0162C45.9652 38.8841 45.8312 38.818 45.635 38.818C45.4463 38.818 45.3123 38.8841 45.2331 39.0162C45.1538 39.1482 45.1142 39.2954 45.1142 39.4577ZM41.5397 36.4464V36.1407C41.5397 35.9219 41.585 35.7209 41.6756 35.5379C41.768 35.3549 41.902 35.2087 42.0775 35.0992C42.2548 34.9898 42.469 34.9351 42.7199 34.9351C42.9765 34.9351 43.1916 34.9898 43.3652 35.0992C43.5388 35.2087 43.6699 35.3549 43.7586 35.5379C43.8473 35.7209 43.8916 35.9219 43.8916 36.1407V36.4464C43.8916 36.6652 43.8463 36.8662 43.7557 37.0492C43.6671 37.2303 43.535 37.3766 43.3595 37.4879C43.1859 37.5973 42.9727 37.652 42.7199 37.652C42.4633 37.652 42.2473 37.5973 42.0718 37.4879C41.8982 37.3766 41.7662 37.2303 41.6756 37.0492C41.585 36.8662 41.5397 36.6652 41.5397 36.4464ZM42.202 36.1407V36.4464C42.202 36.6086 42.2397 36.7558 42.3152 36.8879C42.3926 37.02 42.5275 37.086 42.7199 37.086C42.9086 37.086 43.0407 37.02 43.1161 36.8879C43.1935 36.7558 43.2322 36.6086 43.2322 36.4464V36.1407C43.2322 35.9785 43.1954 35.8313 43.1218 35.6992C43.0482 35.5671 42.9142 35.5011 42.7199 35.5011C42.5312 35.5011 42.3973 35.5671 42.318 35.6992C42.2407 35.8313 42.202 35.9785 42.202 36.1407ZM41.8086 40.8501L45.7935 35.0539H46.4699L42.485 40.8501H41.8086Z" fill="#6938EF"/>
<path d="M66.3947 33.8523C67.507 33.6951 68.2882 32.6639 68.0548 31.5651C67.2738 27.8879 65.7968 24.3871 63.6968 21.254C61.5969 18.121 58.9201 15.4243 55.8156 13.3045C54.8879 12.671 53.6372 13.0018 53.0691 13.9708C52.5009 14.9398 52.8315 16.1794 53.7521 16.823C56.3313 18.6261 58.5592 20.895 60.3178 23.5188C62.0764 26.1427 63.3285 29.0656 64.0161 32.1366C64.2615 33.2327 65.2825 34.0095 66.3947 33.8523Z" fill="#9B8AFB"/>
<path d="M57.069 58.5757C57.8005 59.4282 59.0901 59.531 59.8903 58.7426C62.5679 56.1041 64.7221 52.9741 66.2309 49.5173C67.7397 46.0606 68.5702 42.3528 68.6843 38.5953C68.7184 37.4725 67.7661 36.5968 66.6436 36.64C65.5211 36.6832 64.6547 37.6294 64.6083 38.7517C64.4782 41.896 63.7664 44.9951 62.5028 47.89C61.2391 50.785 59.4507 53.4142 57.2335 55.6475C56.4421 56.4446 56.3375 57.7233 57.069 58.5757Z" fill="#D9D6FE"/>
<path d="M51.7883 13.2615C52.304 12.2636 51.9156 11.0296 50.8846 10.5837C47.4342 9.09147 43.7246 8.26892 39.9543 8.16713C36.184 8.06534 32.4355 8.68655 28.9096 9.99045C27.8561 10.3801 27.4016 11.5913 27.8628 12.6156C28.3239 13.6399 29.526 14.0881 30.5837 13.7101C33.5472 12.651 36.687 12.1482 39.8445 12.2335C43.0021 12.3187 46.1102 12.9902 49.0122 14.2076C50.048 14.6421 51.2725 14.2594 51.7883 13.2615Z" fill="#7A5AF8"/>
<path d="M26.3509 13.3478C25.8281 12.3536 24.5939 11.9655 23.638 12.5555C20.2923 14.6204 17.3862 17.3362 15.0963 20.5489C12.8064 23.7616 11.1871 27.3947 10.3267 31.231C10.0809 32.3271 10.8503 33.3671 11.9607 33.537C13.0711 33.7068 14.1008 32.9417 14.3587 31.8484C15.1152 28.6409 16.4885 25.604 18.4088 22.91C20.329 20.2159 22.7517 17.927 25.5369 16.1655C26.4863 15.5651 26.8737 14.3421 26.3509 13.3478Z" fill="#6938EF"/>
<path d="M11.6993 35.9521C10.5783 35.8808 9.60431 36.7324 9.61026 37.8556C9.63108 41.7872 10.4366 45.6824 11.9871 49.3102C13.5376 52.938 15.7962 56.2121 18.6235 58.9443C19.4313 59.7248 20.7198 59.6094 21.443 58.7499C22.1662 57.8903 22.0491 56.6128 21.25 55.8234C18.9055 53.5074 17.0278 50.7537 15.7276 47.7115C14.4274 44.6693 13.7347 41.4092 13.681 38.1141C13.6627 36.991 12.8203 36.0234 11.6993 35.9521Z" fill="#9B8AFB"/>
</g>
<defs>
<filter id="filter0_d_15297_32496" x="1.59177" y="1.79588" width="73.8165" height="70.8165" filterUnits="userSpaceOnUse" color-interpolation-filters="sRGB">
<feFlood flood-opacity="0" result="BackgroundImageFix"/>
<feColorMatrix in="SourceAlpha" type="matrix" values="0 0 0 0 0 0 0 0 0 0 0 0 0 0 0 0 0 0 127 0" result="hardAlpha"/>
<feMorphology radius="1.00343" operator="erode" in="SourceAlpha" result="effect1_dropShadow_15297_32496"/>
<feOffset dy="1.20412"/>
<feGaussianBlur stdDeviation="1.70583"/>
<feComposite in2="hardAlpha" operator="out"/>
<feColorMatrix type="matrix" values="0 0 0 0 0.227451 0 0 0 0 0.301961 0 0 0 0 0.913725 0 0 0 0.15 0"/>
<feBlend mode="normal" in2="BackgroundImageFix" result="effect1_dropShadow_15297_32496"/>
<feBlend mode="normal" in="SourceGraphic" in2="effect1_dropShadow_15297_32496" result="shape"/>
</filter>
<clipPath id="clip0_15297_32496">
<rect width="69" height="67" fill="white" transform="translate(4 3)"/>
</clipPath>
</defs>
</svg>
