<svg width="76" height="73" viewBox="0 0 76 73" fill="none" xmlns="http://www.w3.org/2000/svg">
<path d="M0 8.00001C0 3.58173 3.58172 0 8 0H68.0039C72.4222 0 76.0039 3.58172 76.0039 8V64.5492C76.0039 68.9674 72.4222 72.5492 68.0039 72.5492H8C3.58172 72.5492 0 68.9675 0 64.5492V8.00001Z" fill="#BDB4FE"/>
<g clip-path="url(#clip0_15297_32405)">
<g filter="url(#filter0_d_15297_32405)">
<rect x="4" y="3" width="69" height="66" rx="3.01029" fill="white"/>
</g>
<rect width="62.0087" height="42.8203" transform="translate(6.73828 8.17969)" fill="white"/>
<path opacity="0.5" d="M7.35152 48.1211H7.78766L8.54595 49.9726H8.57387L9.33216 48.1211H9.76829V50.5029H9.42636V48.7793H9.40427L8.7018 50.4994H8.41802L7.71555 48.7782H7.69345V50.5029H7.35152V48.1211Z" fill="black"/>
<path opacity="0.5" d="M17.0895 48.4304V48.1211H18.9329V48.4304H18.1898V50.5029H17.8315V48.4304H17.0895Z" fill="black"/>
<path opacity="0.5" d="M27.3218 50.5029L26.6612 48.1211H27.0392L27.5032 49.9656H27.5253L28.008 48.1211H28.3825L28.8651 49.9668H28.8872L29.3501 48.1211H29.7293L29.0675 50.5029H28.7058L28.2045 48.7188H28.1859L27.6847 50.5029H27.3218Z" fill="black"/>
<path opacity="0.5" d="M36.4372 48.4304V48.1211H38.2806V48.4304H37.5374V50.5029H37.1792V48.4304H36.4372Z" fill="black"/>
<path opacity="0.5" d="M46.4375 50.5029V48.1211H47.9145V48.4304H46.7968V49.1561H47.8087V49.4643H46.7968V50.5029H46.4375Z" fill="black"/>
<path opacity="0.5" d="M57.385 48.7468C57.3726 48.6367 57.3214 48.5514 57.2315 48.4909C57.1415 48.4296 57.0283 48.399 56.8919 48.399C56.7942 48.399 56.7097 48.4145 56.6383 48.4455C56.567 48.4758 56.5116 48.5176 56.472 48.5711C56.4333 48.6239 56.4139 48.684 56.4139 48.7514C56.4139 48.808 56.4271 48.8569 56.4534 48.898C56.4806 48.939 56.5158 48.9735 56.5593 49.0015C56.6034 49.0286 56.6507 49.0515 56.7011 49.0701C56.7515 49.0879 56.8 49.1026 56.8465 49.1143L57.0791 49.1748C57.1551 49.1934 57.233 49.2186 57.3129 49.2503C57.3928 49.2821 57.4668 49.324 57.535 49.376C57.6033 49.4279 57.6583 49.4923 57.7002 49.569C57.7428 49.6458 57.7641 49.7377 57.7641 49.8447C57.7641 49.9796 57.7293 50.0994 57.6595 50.204C57.5905 50.3087 57.4901 50.3913 57.3583 50.4518C57.2272 50.5122 57.0687 50.5425 56.8826 50.5425C56.7042 50.5425 56.5499 50.5142 56.4197 50.4576C56.2894 50.401 56.1875 50.3207 56.1138 50.2168C56.0402 50.1122 55.9994 49.9881 55.9917 49.8447H56.3522C56.3592 49.9307 56.3871 50.0024 56.436 50.0598C56.4856 50.1164 56.5488 50.1587 56.6255 50.1866C56.7031 50.2137 56.788 50.2273 56.8802 50.2273C56.9818 50.2273 57.0721 50.2114 57.1512 50.1796C57.2311 50.147 57.2939 50.1021 57.3396 50.0447C57.3854 49.9865 57.4083 49.9187 57.4083 49.8412C57.4083 49.7706 57.3881 49.7128 57.3478 49.6679C57.3082 49.6229 57.2544 49.5857 57.1861 49.5562C57.1187 49.5268 57.0423 49.5008 56.957 49.4783L56.6756 49.4015C56.4848 49.3496 56.3336 49.2732 56.222 49.1724C56.1111 49.0716 56.0557 48.9383 56.0557 48.7723C56.0557 48.6351 56.0929 48.5153 56.1673 48.413C56.2417 48.3106 56.3425 48.2312 56.4697 48.1745C56.5969 48.1172 56.7403 48.0885 56.9 48.0885C57.0613 48.0885 57.2036 48.1168 57.3268 48.1734C57.4509 48.23 57.5486 48.3079 57.6199 48.4072C57.6913 48.5056 57.7285 48.6188 57.7316 48.7468H57.385Z" fill="black"/>
<path opacity="0.5" d="M67.0334 48.7468C67.021 48.6367 66.9699 48.5514 66.8799 48.4909C66.79 48.4296 66.6768 48.399 66.5403 48.399C66.4426 48.399 66.3581 48.4145 66.2868 48.4455C66.2154 48.4758 66.16 48.5176 66.1205 48.5711C66.0817 48.6239 66.0623 48.684 66.0623 48.7514C66.0623 48.808 66.0755 48.8569 66.1019 48.898C66.129 48.939 66.1643 48.9735 66.2077 49.0015C66.2519 49.0286 66.2992 49.0515 66.3496 49.0701C66.4 49.0879 66.4484 49.1026 66.495 49.1143L66.7276 49.1748C66.8035 49.1934 66.8815 49.2186 66.9613 49.2503C67.0412 49.2821 67.1152 49.324 67.1835 49.376C67.2517 49.4279 67.3067 49.4923 67.3486 49.569C67.3913 49.6458 67.4126 49.7377 67.4126 49.8447C67.4126 49.9796 67.3777 50.0994 67.3079 50.204C67.2389 50.3087 67.1385 50.3913 67.0067 50.4518C66.8757 50.5122 66.7171 50.5425 66.531 50.5425C66.3527 50.5425 66.1984 50.5142 66.0681 50.4576C65.9379 50.401 65.8359 50.3207 65.7622 50.2168C65.6886 50.1122 65.6479 49.9881 65.6401 49.8447H66.0007C66.0076 49.9307 66.0356 50.0024 66.0844 50.0598C66.134 50.1164 66.1972 50.1587 66.274 50.1866C66.3515 50.2137 66.4364 50.2273 66.5287 50.2273C66.6303 50.2273 66.7206 50.2114 66.7997 50.1796C66.8795 50.147 66.9423 50.1021 66.9881 50.0447C67.0338 49.9865 67.0567 49.9187 67.0567 49.8412C67.0567 49.7706 67.0365 49.7128 66.9962 49.6679C66.9567 49.6229 66.9028 49.5857 66.8346 49.5562C66.7671 49.5268 66.6907 49.5008 66.6054 49.4783L66.324 49.4015C66.1333 49.3496 65.9821 49.2732 65.8704 49.1724C65.7595 49.0716 65.7041 48.9383 65.7041 48.7723C65.7041 48.6351 65.7413 48.5153 65.8157 48.413C65.8902 48.3106 65.991 48.2312 66.1181 48.1745C66.2453 48.1172 66.3887 48.0885 66.5485 48.0885C66.7097 48.0885 66.852 48.1168 66.9753 48.1734C67.0993 48.23 67.197 48.3079 67.2684 48.4072C67.3397 48.5056 67.3769 48.6188 67.38 48.7468H67.0334Z" fill="black"/>
<rect x="6.74219" y="36.5176" width="4" height="22" rx="2" fill="#BDB4FE"/>
<rect x="15.5312" y="27.9248" width="4" height="31" rx="2" fill="#5925DC"/>
<rect x="25.7422" y="41.5176" width="4" height="17" rx="2" fill="#7A5AF8"/>
<rect x="35.7422" y="14.5176" width="4" height="44" rx="2" fill="#BDB4FE"/>
<rect x="44.7422" y="18.5176" width="5" height="40" rx="2.5" fill="#7A5AF8"/>
<rect x="54.7422" y="18.5176" width="4" height="40" rx="2" fill="#BDB4FE"/>
<rect x="64.5312" y="18.9248" width="4" height="40" rx="2" fill="#5925DC"/>
<rect x="41.9922" y="8.17969" width="10.1863" height="6.7106" rx="1.40361" fill="#F4F3FF"/>
<path d="M47.0457 15.6789C47.1357 15.8348 47.3608 15.8348 47.4509 15.6789L48.2387 14.3143H46.2578L47.0457 15.6789Z" fill="#F4F3FF"/>
<path d="M45.2567 9.85277V12.4048H44.8704V10.2391H44.8554L44.2448 10.6378V10.269L44.8816 9.85277H45.2567ZM46.8355 12.4472C46.6386 12.4463 46.4704 12.3944 46.3308 12.2914C46.1912 12.1884 46.0845 12.0384 46.0106 11.8415C45.9366 11.6447 45.8997 11.4075 45.8997 11.13C45.8997 10.8534 45.9366 10.617 46.0106 10.421C46.0853 10.2249 46.1925 10.0754 46.3321 9.9724C46.4724 9.86939 46.6403 9.81788 46.8355 9.81788C47.0307 9.81788 47.1981 9.8698 47.3377 9.97364C47.4772 10.0767 47.584 10.2262 47.6579 10.4222C47.7327 10.6175 47.7701 10.8534 47.7701 11.13C47.7701 11.4083 47.7331 11.6459 47.6592 11.8428C47.5852 12.0388 47.4785 12.1888 47.3389 12.2926C47.1993 12.3956 47.0315 12.4472 46.8355 12.4472ZM46.8355 12.1144C47.0083 12.1144 47.1433 12.0301 47.2405 11.8615C47.3385 11.6928 47.3875 11.449 47.3875 11.13C47.3875 10.9182 47.3651 10.7392 47.3202 10.593C47.2762 10.4459 47.2126 10.3346 47.1296 10.259C47.0473 10.1826 46.9493 10.1444 46.8355 10.1444C46.6635 10.1444 46.5285 10.2291 46.4305 10.3986C46.3325 10.568 46.283 10.8119 46.2822 11.13C46.2822 11.3427 46.3042 11.5225 46.3483 11.6696C46.3931 11.8158 46.4567 11.9267 46.5389 12.0023C46.6212 12.0771 46.72 12.1144 46.8355 12.1144ZM49.1006 12.4472C48.9037 12.4463 48.7355 12.3944 48.5959 12.2914C48.4563 12.1884 48.3496 12.0384 48.2757 11.8415C48.2017 11.6447 48.1648 11.4075 48.1648 11.13C48.1648 10.8534 48.2017 10.617 48.2757 10.421C48.3504 10.2249 48.4576 10.0754 48.5972 9.9724C48.7375 9.86939 48.9054 9.81788 49.1006 9.81788C49.2958 9.81788 49.4632 9.8698 49.6028 9.97364C49.7423 10.0767 49.8491 10.2262 49.923 10.4222C49.9978 10.6175 50.0352 10.8534 50.0352 11.13C50.0352 11.4083 49.9982 11.6459 49.9243 11.8428C49.8503 12.0388 49.7436 12.1888 49.604 12.2926C49.4644 12.3956 49.2966 12.4472 49.1006 12.4472ZM49.1006 12.1144C49.2734 12.1144 49.4084 12.0301 49.5056 11.8615C49.6036 11.6928 49.6526 11.449 49.6526 11.13C49.6526 10.9182 49.6302 10.7392 49.5853 10.593C49.5413 10.4459 49.4777 10.3346 49.3947 10.259C49.3124 10.1826 49.2144 10.1444 49.1006 10.1444C48.9286 10.1444 48.7936 10.2291 48.6956 10.3986C48.5976 10.568 48.5481 10.8119 48.5473 11.13C48.5473 11.3427 48.5693 11.5225 48.6134 11.6696C48.6582 11.8158 48.7218 11.9267 48.804 12.0023C48.8862 12.0771 48.9851 12.1144 49.1006 12.1144Z" fill="#7A5AF8"/>
</g>
<defs>
<filter id="filter0_d_15297_32405" x="1.59177" y="1.79588" width="73.8165" height="70.8165" filterUnits="userSpaceOnUse" color-interpolation-filters="sRGB">
<feFlood flood-opacity="0" result="BackgroundImageFix"/>
<feColorMatrix in="SourceAlpha" type="matrix" values="0 0 0 0 0 0 0 0 0 0 0 0 0 0 0 0 0 0 127 0" result="hardAlpha"/>
<feMorphology radius="1.00343" operator="erode" in="SourceAlpha" result="effect1_dropShadow_15297_32405"/>
<feOffset dy="1.20412"/>
<feGaussianBlur stdDeviation="1.70583"/>
<feComposite in2="hardAlpha" operator="out"/>
<feColorMatrix type="matrix" values="0 0 0 0 0.227451 0 0 0 0 0.301961 0 0 0 0 0.913725 0 0 0 0.15 0"/>
<feBlend mode="normal" in2="BackgroundImageFix" result="effect1_dropShadow_15297_32405"/>
<feBlend mode="normal" in="SourceGraphic" in2="effect1_dropShadow_15297_32405" result="shape"/>
</filter>
<clipPath id="clip0_15297_32405">
<rect width="69" height="67" fill="white" transform="translate(4 3)"/>
</clipPath>
</defs>
</svg>
