<svg width="76" height="73" viewBox="0 0 76 73" fill="none" xmlns="http://www.w3.org/2000/svg">
<path d="M0 8.00001C0 3.58173 3.58172 0 8 0H68.0039C72.4222 0 76.0039 3.58172 76.0039 8V64.5492C76.0039 68.9674 72.4222 72.5492 68.0039 72.5492H8C3.58172 72.5492 0 68.9675 0 64.5492V8.00001Z" fill="#BDB4FE"/>
<g clip-path="url(#clip0_15335_31694)">
<g filter="url(#filter0_d_15335_31694)">
<rect x="4" y="3" width="69" height="66" rx="3.01029" fill="white"/>
</g>
<path d="M69.6698 38.9099C67.4195 46.8703 62.099 53.6108 54.8788 57.6484C47.6587 61.6861 39.1303 62.6901 31.1698 60.4398C23.2094 58.1894 16.4689 52.8689 12.4313 45.6487C8.39364 38.4286 7.38956 29.9002 9.63994 21.9398L39.6549 30.4248L69.6698 38.9099Z" fill="#EBE9FE"/>
<mask id="path-4-inside-1_15335_31694" fill="white">
<rect x="26.6055" y="19.833" width="25.4455" height="24.6247" rx="2"/>
</mask>
<rect x="26.6055" y="19.833" width="25.4455" height="24.6247" rx="2" stroke="#9B8AFB" stroke-width="6" mask="url(#path-4-inside-1_15335_31694)"/>
<path d="M51.3496 57.9112C51.0443 58.1455 50.5996 57.9613 50.5493 57.5797L48.2571 40.1751C48.2071 39.7936 48.5892 39.5008 48.9447 39.648L65.1635 46.365C65.5187 46.5124 65.5812 46.9891 65.2762 47.2235L51.3496 57.9112Z" stroke="#7A5AF8" stroke-width="3"/>
<circle cx="20.6562" cy="45.4248" r="10" stroke="#7A5AF8" stroke-width="3"/>
</g>
<defs>
<filter id="filter0_d_15335_31694" x="1.59177" y="1.79588" width="73.8165" height="70.8165" filterUnits="userSpaceOnUse" color-interpolation-filters="sRGB">
<feFlood flood-opacity="0" result="BackgroundImageFix"/>
<feColorMatrix in="SourceAlpha" type="matrix" values="0 0 0 0 0 0 0 0 0 0 0 0 0 0 0 0 0 0 127 0" result="hardAlpha"/>
<feMorphology radius="1.00343" operator="erode" in="SourceAlpha" result="effect1_dropShadow_15335_31694"/>
<feOffset dy="1.20412"/>
<feGaussianBlur stdDeviation="1.70583"/>
<feComposite in2="hardAlpha" operator="out"/>
<feColorMatrix type="matrix" values="0 0 0 0 0.227451 0 0 0 0 0.301961 0 0 0 0 0.913725 0 0 0 0.15 0"/>
<feBlend mode="normal" in2="BackgroundImageFix" result="effect1_dropShadow_15335_31694"/>
<feBlend mode="normal" in="SourceGraphic" in2="effect1_dropShadow_15335_31694" result="shape"/>
</filter>
<clipPath id="clip0_15335_31694">
<rect width="69" height="67" fill="white" transform="translate(4 3)"/>
</clipPath>
</defs>
</svg>
