<svg width="18" height="18" viewBox="0 0 18 18" fill="none" xmlns="http://www.w3.org/2000/svg">
<g clip-path="url(#clip0_13818_48114)">
<path d="M9.16475 6.50112V9.27852M9.16475 12.0559H9.17169M7.97741 2.93215L2.09626 12.7503C1.975 12.9603 1.91084 13.1983 1.91016 13.4408C1.90948 13.6833 1.97231 13.9217 2.09239 14.1324C2.21246 14.3431 2.38561 14.5186 2.5946 14.6416C2.80358 14.7646 3.04113 14.8307 3.2836 14.8333H15.0459C15.2884 14.8307 15.5259 14.7646 15.7349 14.6416C15.9439 14.5186 16.117 14.3431 16.2371 14.1324C16.3572 13.9217 16.42 13.6833 16.4193 13.4408C16.4187 13.1983 16.3545 12.9603 16.2332 12.7503L10.3521 2.93215C10.2283 2.72809 10.054 2.55937 9.84604 2.44228C9.63806 2.32519 9.40342 2.26367 9.16475 2.26367C8.92607 2.26367 8.69143 2.32519 8.48345 2.44228C8.27548 2.55937 8.10119 2.72809 7.97741 2.93215Z" stroke="#F04438" stroke-width="1.43885" stroke-linecap="round" stroke-linejoin="round"/>
</g>
<defs>
<clipPath id="clip0_13818_48114">
<rect width="16.6644" height="16.6644" fill="white" transform="translate(0.832031 0.945312)"/>
</clipPath>
</defs>
</svg>
