<svg width="30" height="30" viewBox="0 0 30 30" fill="none" xmlns="http://www.w3.org/2000/svg">
<rect width="30" height="30" rx="15" fill="#EBE9FE"/>
<path d="M15.0004 17.25C12.6228 17.25 10.5085 18.398 9.16237 20.1795C8.87265 20.5629 8.7278 20.7546 8.73253 21.0137C8.7362 21.2139 8.8619 21.4664 9.0194 21.59C9.22327 21.75 9.50578 21.75 10.0708 21.75H19.93C20.495 21.75 20.7775 21.75 20.9814 21.59C21.1389 21.4664 21.2646 21.2139 21.2682 21.0137C21.273 20.7546 21.1281 20.5629 20.8384 20.1795C19.4923 18.398 17.3779 17.25 15.0004 17.25Z" stroke="#7A5AF8" stroke-width="1.5" stroke-linecap="round" stroke-linejoin="round"/>
<path d="M15.0004 15C16.8643 15 18.3754 13.489 18.3754 11.625C18.3754 9.76104 16.8643 8.25 15.0004 8.25C13.1364 8.25 11.6254 9.76104 11.6254 11.625C11.6254 13.489 13.1364 15 15.0004 15Z" stroke="#7A5AF8" stroke-width="1.5" stroke-linecap="round" stroke-linejoin="round"/>
</svg>
