<svg width="50" height="50" viewBox="0 0 50 50" fill="none" xmlns="http://www.w3.org/2000/svg">
<rect width="50" height="50" rx="25" fill="#F2F4F7"/>
<path d="M35 25.625V18.5C35 16.3998 35 15.3497 34.5913 14.5475C34.2317 13.8419 33.6581 13.2683 32.9525 12.9087C32.1503 12.5 31.1002 12.5 29 12.5H21C18.8998 12.5 17.8497 12.5 17.0475 12.9087C16.3419 13.2683 15.7683 13.8419 15.4087 14.5475C15 15.3497 15 16.3998 15 18.5V31.5C15 33.6002 15 34.6503 15.4087 35.4525C15.7683 36.1581 16.3419 36.7317 17.0475 37.0913C17.8497 37.5 18.8997 37.5 20.9998 37.5H25.625M27.5 23.75H20M22.5 28.75H20M30 18.75H20M28.75 33.75L32.5 37.5M32.5 37.5L36.25 33.75M32.5 37.5V30" stroke="#7A5AF8" stroke-width="2.5" stroke-linecap="round" stroke-linejoin="round"/>
</svg>
