<svg width="34" height="34" viewBox="0 0 34 34" fill="none" xmlns="http://www.w3.org/2000/svg">
<g clip-path="url(#clip0_11191_15623)">
<path d="M9.0349 12.8142H9.30858C10.3623 12.8142 11.2243 13.6763 11.2243 14.73V24.3088C11.2243 25.3624 10.3623 26.2245 9.30858 26.2245H9.0349C7.98123 26.2245 7.11914 25.3624 7.11914 24.3088V14.73C7.11914 13.6763 7.98123 12.8142 9.0349 12.8142ZM16.698 7.06689C17.7516 7.06689 18.6137 7.92899 18.6137 8.98266V24.3088C18.6137 25.3624 17.7516 26.2245 16.698 26.2245C15.6443 26.2245 14.7822 25.3624 14.7822 24.3088V8.98266C14.7822 7.92899 15.6443 7.06689 16.698 7.06689ZM24.361 18.0141C25.4147 18.0141 26.2768 18.8762 26.2768 19.9299V24.3088C26.2768 25.3624 25.4147 26.2245 24.361 26.2245C23.3073 26.2245 22.4453 25.3624 22.4453 24.3088V19.9299C22.4453 18.8762 23.3073 18.0141 24.361 18.0141Z" fill="#5925DC"/>
</g>
<defs>
<clipPath id="clip0_11191_15623">
<rect width="32.8417" height="32.8417" fill="white" transform="translate(0.276367 0.224609)"/>
</clipPath>
</defs>
</svg>
