<svg width="18" height="18" viewBox="0 0 18 18" fill="none" xmlns="http://www.w3.org/2000/svg">
<path d="M15.4124 15.5276H4.02502C3.63615 15.5276 3.44171 15.5276 3.29318 15.4519C3.16253 15.3854 3.05631 15.2791 2.98974 15.1485C2.91406 15 2.91406 14.8055 2.91406 14.4166V3.0293M14.718 6.50105L11.997 9.40528C11.8938 9.51535 11.8423 9.57038 11.7801 9.59882C11.7252 9.62393 11.6647 9.63429 11.6045 9.62887C11.5364 9.62273 11.4695 9.58798 11.3356 9.51847L9.07387 8.34408C8.94001 8.27458 8.87308 8.23983 8.80496 8.23369C8.74483 8.22827 8.68433 8.23863 8.62943 8.26373C8.56722 8.29218 8.51566 8.34721 8.41254 8.45728L5.69147 11.3615" stroke="#12B76A" stroke-width="1.43885" stroke-linecap="round" stroke-linejoin="round"/>
</svg>
