<svg width="38" height="38" viewBox="0 0 38 38" fill="none" xmlns="http://www.w3.org/2000/svg">
<rect width="37.9535" height="37.9535" rx="6.97674" fill="#F2F4F7"/>
<path d="M26.9766 16.4766V13.7766C26.9766 12.0964 26.9766 11.2563 26.6496 10.6146C26.362 10.0501 25.903 9.59116 25.3385 9.30354C24.6968 8.97656 23.8567 8.97656 22.1766 8.97656H15.7766C14.0964 8.97656 13.2563 8.97656 12.6146 9.30354C12.0501 9.59116 11.5912 10.0501 11.3035 10.6146C10.9766 11.2563 10.9766 12.0964 10.9766 13.7766V24.1766C10.9766 25.8567 10.9766 26.6968 11.3035 27.3385C11.5912 27.903 12.0501 28.362 12.6146 28.6496C13.2563 28.9766 14.0964 28.9766 15.7766 28.9766H20.9766M23.4766 21.9788C23.6528 21.4779 24.0005 21.0556 24.4583 20.7865C24.9161 20.5175 25.4543 20.4192 25.9776 20.5089C26.5009 20.5987 26.9756 20.8708 27.3175 21.277C27.6594 21.6832 27.8466 22.1973 27.8458 22.7282C27.8458 24.2271 25.5975 24.9766 25.5975 24.9766M25.6266 27.9766H25.6366" stroke="#6938EF" stroke-width="2" stroke-linecap="round" stroke-linejoin="round"/>
</svg>
