<svg width="18" height="18" viewBox="0 0 18 18" fill="none" xmlns="http://www.w3.org/2000/svg">
<path d="M9.16274 11.3607L7.07969 9.27766M9.16274 11.3607C10.1326 10.9918 11.0631 10.5266 11.9401 9.97201M9.16274 11.3607V14.8325C9.16274 14.8325 11.2666 14.4506 11.9401 13.4438C12.69 12.3189 11.9401 9.97201 11.9401 9.97201M7.07969 9.27766C7.44918 8.31906 7.91444 7.40018 8.46839 6.53498C9.27743 5.24139 10.404 4.1763 11.7409 3.44101C13.0777 2.70573 14.5805 2.32469 16.1062 2.33416C16.1062 4.22279 15.5647 7.54179 11.9401 9.97201M7.07969 9.27766H3.60793C3.60793 9.27766 3.98983 7.17378 4.99663 6.50026C6.12148 5.75036 8.46839 6.50026 8.46839 6.50026M3.95511 12.4022C2.91358 13.2771 2.56641 15.874 2.56641 15.874C2.56641 15.874 5.16328 15.5268 6.03816 14.4853C6.53115 13.902 6.52421 13.0063 5.97567 12.4647C5.70578 12.2071 5.35026 12.0583 4.97735 12.0468C4.60444 12.0352 4.2404 12.1618 3.95511 12.4022Z" stroke="#0BA5EC" stroke-width="1.43885" stroke-linecap="round" stroke-linejoin="round"/>
</svg>
