<svg width="50" height="50" viewBox="0 0 50 50" fill="none" xmlns="http://www.w3.org/2000/svg">
<rect width="50" height="50" rx="25" fill="#F2F4F7"/>
<path d="M23.125 17.5H26.875C28.2537 17.5 29.375 16.3787 29.375 15V12.5C29.375 11.1212 28.2537 10 26.875 10H23.125C21.7463 10 20.625 11.1212 20.625 12.5V15C20.625 16.3787 21.7463 17.5 23.125 17.5ZM23.125 12.5H26.875V15H23.125V12.5ZM26.875 32.5H23.125C21.7463 32.5 20.625 33.6213 20.625 35V37.5C20.625 38.8787 21.7463 40 23.125 40H26.875C28.2537 40 29.375 38.8787 29.375 37.5V35C29.375 33.6213 28.2537 32.5 26.875 32.5ZM26.875 37.5H23.125V35H26.875V37.5ZM37.5 32.5H33.75C32.3713 32.5 31.25 33.6213 31.25 35V37.5C31.25 38.8787 32.3713 40 33.75 40H37.5C38.8787 40 40 38.8787 40 37.5V35C40 33.6213 38.8787 32.5 37.5 32.5ZM37.5 37.5H33.75V35H37.5V37.5ZM16.25 32.5H12.5C11.1212 32.5 10 33.6213 10 35V37.5C10 38.8787 11.1212 40 12.5 40H16.25C17.6287 40 18.75 38.8787 18.75 37.5V35C18.75 33.6213 17.6287 32.5 16.25 32.5ZM16.25 37.5H12.5V35H16.25V37.5ZM15.625 30H13.125V26.875C13.125 25.1512 14.5275 23.75 16.25 23.75H23.75V20H26.25V23.75H33.75C35.4737 23.75 36.875 25.1512 36.875 26.875V30H34.375V26.875C34.375 26.5312 34.0938 26.25 33.75 26.25H26.25V30H23.75V26.25H16.25C15.905 26.25 15.625 26.5312 15.625 26.875V30Z" fill="#7A5AF8"/>
</svg>
