<svg width="33" height="33" viewBox="0 0 33 33" fill="none" xmlns="http://www.w3.org/2000/svg">
<g clip-path="url(#clip0_14501_62247)">
<path d="M21.2157 7.65649L23.1482 5.72257L24.2512 6.82415L30.8019 0.273438L32.7345 2.20599L26.1837 8.75671C25.1177 9.82275 23.3847 9.82275 22.3186 8.75671L21.2157 7.65649ZM5.11702 9.55624C5.81678 9.55624 6.51655 9.28973 7.04957 8.75671L13.6003 2.20599L11.6677 0.273438L5.11702 6.82415L2.04326 3.75175L0.110705 5.6843L3.18447 8.75671C3.71749 9.28973 4.41726 9.55624 5.11702 9.55624ZM32.8014 25.275L26.6129 32.7919H4.10018C1.83961 32.7919 0 30.9523 0 28.6918V21.8581C0 19.5976 1.83961 17.758 4.10018 17.758V12.2911H6.83363V17.758H13.6673V12.2911H16.4007V17.758H23.2343V12.2911H25.9678V17.758H26.6129L32.8014 25.275ZM10.2805 20.4914L14.218 25.275L10.2805 30.0585H16.3064L20.2467 25.275L16.3064 20.4914H10.2805ZM4.10018 30.0585H6.73933L10.6796 25.275L6.73933 20.4914H4.10018C3.34574 20.4914 2.73345 21.1051 2.73345 21.8581V28.6918C2.73345 29.4448 3.34574 30.0585 4.10018 30.0585ZM29.2616 25.275L25.3227 20.4914H19.8476L23.7851 25.275L19.8476 30.0585H25.3227L29.2616 25.275ZM11.624 7.65512L12.7256 8.75671C13.7916 9.82275 15.5246 9.82275 16.5907 8.75671L23.1414 2.20599L21.2089 0.273438L14.6581 6.82415L13.5566 5.72257L11.624 7.65512Z" fill="#6938EF"/>
</g>
<defs>
<clipPath id="clip0_14501_62247">
<rect width="32.8014" height="32.8014" fill="white"/>
</clipPath>
</defs>
</svg>
