<svg width="30" height="30" viewBox="0 0 30 30" fill="none" xmlns="http://www.w3.org/2000/svg">
<rect width="30" height="30" rx="15" fill="#EBE9FE"/>
<path d="M15 17.125H11.625C10.5783 17.125 10.055 17.125 9.62914 17.2542C8.67034 17.545 7.92003 18.2953 7.62918 19.2541C7.5 19.68 7.5 20.2033 7.5 21.25M16.875 11.125C16.875 12.989 15.364 14.5 13.5 14.5C11.636 14.5 10.125 12.989 10.125 11.125C10.125 9.26104 11.636 7.75 13.5 7.75C15.364 7.75 16.875 9.26104 16.875 11.125Z" stroke="#7A5AF8" stroke-width="1.5" stroke-linecap="round" stroke-linejoin="round"/>
<path d="M19 13L19.8981 15.7639H22.8042L20.4531 17.4721L21.3511 20.2361L19 18.5279L16.6489 20.2361L17.5469 17.4721L15.1958 15.7639H18.1019L19 13Z" fill="#7A5AF8"/>
</svg>
